<?xml version="1.0" encoding="UTF-8"?>
<svg width="26px" height="26px" viewBox="0 0 26 26" version="1.1" xmlns="http://www.w3.org/2000/svg" xmlns:xlink="http://www.w3.org/1999/xlink">
    <title>w</title>
    <g id="基础规范" stroke="none" stroke-width="1" fill="none" fill-rule="evenodd">
        <g id="图标16*16px-已轮廓化" transform="translate(-165.000000, -1405.000000)">
            <g id="w" transform="translate(165.000000, 1405.000000)">
                <circle id="椭圆形备份-8" fill="#FB8F29" cx="13" cy="13" r="13"></circle>
                <g id="user-women-full" transform="translate(5.000000, 5.000000)" fill="#FFFFFF" fill-rule="nonzero">
                    <path d="M7.74991192,0 C7.83564534,0 7.91969771,0.0016810475 7.99870695,0.00672419001 C8.07435408,0.00336209501 8.15504436,0.0016810475 8.23741569,0.0016810475 C8.91992098,0.0016810475 9.82096244,0.14120799 10.7320902,0.716126236 C12.5543457,1.86764378 12.5543457,4.74223501 12.5543457,6.46867079 C12.5543457,7.6723008 13.1477554,8.59687693 13.5041375,9.04571661 C13.6218108,9.19364879 13.5545689,9.41218497 13.3746969,9.46934058 L12.3660684,9.78705856 L11.9474875,9.91818027 C11.4851995,10.0291294 11.1288174,10.0661124 10.8581687,10.0661124 C10.5202782,10.0661124 10.3168715,10.0072758 10.2143276,9.9652496 C10.2059223,9.9618875 10.1975171,9.96020645 10.1891118,9.96020645 C10.1554909,9.96020645 10.125232,9.98710321 10.125232,10.0240863 L10.125232,11.0713789 C10.125232,11.5821302 11.5180062,12.0972891 13.1113842,12.6099881 C13.4960598,12.7055842 13.8750239,12.8151308 14.2225522,12.9536713 C14.7124884,13.148996 15.1682353,13.4126616 15.4973296,13.8058084 C15.8327397,14.2064884 16.0118392,14.7118877 15.9993922,15.3433927 C15.9555191,17.5693009 12.4157333,18.5952494 7.99998692,18.5952494 C3.58424059,18.5952494 0.0406679905,17.4081293 0.000590111892,15.343351 C-0.0116676005,14.7118441 0.167410966,14.2064468 0.502808463,13.8058084 C0.831919651,13.4126616 1.28765806,13.148996 1.7775859,12.9536713 C2.11559631,12.8189169 2.48332167,12.7115934 2.8569887,12.617016 C4.46182862,12.1028694 5.87218186,11.5863818 5.87218186,11.0713789 L5.87218186,10.0240863 C5.87218186,9.98710321 5.841923,9.96020645 5.80830205,9.96020645 C5.79989681,9.96020645 5.79149158,9.9618875 5.78308634,9.9652496 C5.67886139,10.0089568 5.47545464,10.0661124 5.1375641,10.0661124 C4.86691545,10.0661124 4.51053338,10.0291294 4.04824531,9.91818027 L3.62798344,9.78537751 L2.62103598,9.46765954 C2.4411639,9.41050392 2.373922,9.19196774 2.49159533,9.04403556 C2.84965845,8.59519588 3.44138717,7.67061975 3.44138717,6.46698974 C3.44138717,4.74055396 3.44138717,1.86596273 5.26364266,0.714445189 C6.16972726,0.14120799 7.06908768,0 7.74991192,0 Z" id="形状结合"></path>
                </g>
            </g>
        </g>
    </g>
</svg>