<?xml version="1.0" encoding="UTF-8"?>
<svg width="26px" height="26px" viewBox="0 0 26 26" version="1.1" xmlns="http://www.w3.org/2000/svg" xmlns:xlink="http://www.w3.org/1999/xlink">
    <title>m</title>
    <g id="基础规范" stroke="none" stroke-width="1" fill="none" fill-rule="evenodd">
        <g id="图标16*16px-已轮廓化" transform="translate(-130.000000, -1404.000000)">
            <g id="m" transform="translate(130.000000, 1404.000000)">
                <circle id="椭圆形备份-7" fill="#1F7BFC" cx="13" cy="13" r="13"></circle>
                <g id="头像_avatar备份-5" transform="translate(5.000000, 5.000000)" fill="#FFFFFF" fill-rule="nonzero">
                    <path d="M0.00156772762,15.6762405 C0.00156772762,16.4129344 1.94912234,18.7737815 8,18.7737815 C14.0508777,18.7737815 15.9973791,16.5158585 15.9973791,15.6763247 C15.9973791,15.1166356 15.9973791,14.9877655 15.9973791,15.2897145 C16.0050423,15.1732093 16.0206212,14.5917782 15.6373794,13.9489997 C15.3956954,13.5436947 15.0449588,13.1935476 14.5948538,12.9083268 C14.050349,12.5632744 13.3576758,12.3132535 12.5198659,12.1627273 C12.5136764,12.1619273 11.8924558,12.0795695 11.2560352,11.9170433 C10.1477834,11.6339698 10.0508993,11.3834437 10.0502677,11.3810016 C10.0437414,11.3562437 10.0343098,11.3324542 10.0222256,11.3100964 C10.013173,11.2633596 9.99077302,11.087486 10.033594,10.6162442 C10.1423097,9.41936092 10.7843303,8.71199302 11.3002036,8.14365659 C11.4628983,7.96441462 11.6165402,7.79510948 11.7348981,7.62908855 C12.2453398,6.91287855 12.2927082,6.09847915 12.2948555,6.04799497 C12.2948555,5.94572136 12.2831082,5.86163722 12.2579714,5.78370043 C12.2078661,5.62774265 12.1135925,5.53056377 12.0447505,5.45961646 C12.0269399,5.44125858 12.010561,5.42433227 11.9971715,5.40879544 C11.9920768,5.4028586 11.9785189,5.38715335 11.9908558,5.30652183 C12.036161,5.00972205 12.063361,4.76121697 12.0764136,4.52445925 C12.0996557,4.10264903 12.117803,3.47182844 12.0090031,2.85789205 C11.9955715,2.75305003 11.9724979,2.64231326 11.9365821,2.51039757 C11.8216348,2.08763578 11.6369613,1.72619183 11.380372,1.42788889 C11.3362457,1.37988051 10.2634044,0.249599234 7.14896458,0.0176878252 C6.71831227,-0.0143753091 6.29258626,0.00289625717 5.87351289,0.0243151888 C5.77250243,0.0293088693 5.63418675,0.0361636011 5.50475526,0.0697004186 C5.1831976,0.152997199 5.09738714,0.356811787 5.07486084,0.470879071 C5.0375135,0.65982209 5.10315556,0.806798824 5.14656605,0.904074542 C5.15288184,0.918196637 5.1606713,0.935632414 5.14707131,0.981038696 C5.07477663,1.09300072 4.9610504,1.19393959 4.84509259,1.289569 C4.81157682,1.31805319 4.03060898,1.99144216 3.98766164,2.8711131 C3.87187225,3.54012313 3.88063014,4.58248026 4.01755636,5.30290078 C4.02551424,5.34269023 4.0372616,5.40159545 4.01818793,5.44138489 C3.87094594,5.57334269 3.7040408,5.72290047 3.70446185,6.06416338 C3.70623027,6.09847915 3.75359865,6.91287855 4.26408249,7.62908855 C4.38231398,7.79498316 4.53582966,7.96416199 4.69839796,8.14327764 C5.21465021,8.71203512 5.85662869,9.41936092 5.9653865,10.6162021 C6.00816542,11.0874439 5.98576544,11.2633596 5.97671281,11.3100543 C5.96462861,11.3324121 5.95519704,11.3562016 5.94871283,11.3809595 C5.94803915,11.3834016 5.85153396,11.6331277 4.74829266,11.9156117 C4.11182997,12.0786011 3.48526201,12.1618852 3.46656729,12.16458 C2.65237841,12.3020114 1.96394944,12.5458007 1.42042563,12.8890426 C0.971844909,13.1723687 0.620438852,13.5231474 0.375954821,13.9316523 C-0.0146638394,14.5843676 -0.00410384716,15.1788093 0.00156772762,15.2873145 C0.00156772762,15.0554693 0.00156772762,15.1851113 0.00156772762,15.6762405 Z" id="路径"></path>
                </g>
            </g>
        </g>
    </g>
</svg>