<?xml version="1.0" encoding="UTF-8"?>
<svg width="64px" height="67px" viewBox="0 0 64 67" version="1.1" xmlns="http://www.w3.org/2000/svg" xmlns:xlink="http://www.w3.org/1999/xlink">
    <title>编组 28</title>
    <g id="基础规范" stroke="none" stroke-width="1" fill="none" fill-rule="evenodd">
        <g id="编组-28" transform="translate(0.000000, 1.000000)">
            <g id="1">
                <ellipse id="椭圆形" fill="#F5F5F5" fill-rule="nonzero" cx="32" cy="33" rx="32" ry="7"></ellipse>
                <g id="编组" transform="translate(9.000000, 0.000000)" stroke="#D9D9D9">
                    <path d="M46,12.76 L35.854,1.258 C35.367,0.474 34.656,0 33.907,0 L12.093,0 C11.344,0 10.633,0.474 10.146,1.257 L0,12.761 L0,22 L46,22 L46,12.76 Z" id="路径"></path>
                    <path d="M32.613,15.931 C32.613,14.326 33.607,13.001 34.84,13 L46,13 L46,31.137 C46,33.26 44.68,35 43.05,35 L2.95,35 C1.32,35 0,33.259 0,31.137 L0,13 L11.16,13 C12.393,13 13.387,14.323 13.387,15.928 L13.387,15.95 C13.387,17.555 14.392,18.851 15.624,18.851 L30.376,18.851 C31.608,18.851 32.613,17.543 32.613,15.938 L32.613,15.931 L32.613,15.931 Z" id="路径" fill="#FAFAFA" fill-rule="nonzero"></path>
                </g>
            </g>
            <path d="M8.956,59.716 L8.956,58.638 C9.67,58.568 10.356,58.498 11.014,58.442 L11.014,57.616 C10.37,57.672 9.684,57.728 8.956,57.784 L8.956,56.678 L11.14,56.678 L11.14,55.852 L8.956,55.852 L8.956,54.928 L8.032,54.928 L8.032,55.852 L6.408,55.852 C6.758,55.39 7.094,54.858 7.402,54.27 L11.238,54.27 L11.238,53.374 L7.822,53.374 C7.934,53.122 8.032,52.87 8.13,52.618 L7.122,52.45 C7.01,52.758 6.884,53.066 6.758,53.374 L4.812,53.374 L4.812,54.27 L6.31,54.27 C5.974,54.9 5.596,55.432 5.204,55.88 L5.428,56.678 L8.032,56.678 L8.032,57.84 C7.08,57.896 6.058,57.938 4.994,57.994 L5.12,58.89 C6.128,58.834 7.108,58.764 8.032,58.708 L8.032,59.716 L8.956,59.716 Z M11.84,59.758 C12.442,58.89 12.82,57.868 12.974,56.692 L14.794,56.692 L14.794,59.73 L15.76,59.73 L15.76,56.692 L17.244,56.692 L17.244,55.81 L13.044,55.81 L13.044,54.354 C14.556,54.186 15.816,53.864 16.852,53.416 L16.208,52.66 C15.228,53.108 13.856,53.416 12.12,53.584 L12.12,55.782 C12.092,57.042 11.756,58.12 11.14,59.03 L11.84,59.758 Z M7.528,65.4 L7.528,64.854 L14.64,64.854 L14.64,65.4 L15.676,65.4 L15.676,60.136 L6.492,60.136 L6.492,65.4 L7.528,65.4 Z M14.64,62.082 L7.528,62.082 L7.528,60.99 L14.64,60.99 L14.64,62.082 Z M14.64,63.986 L7.528,63.986 L7.528,62.894 L14.64,62.894 L14.64,63.986 Z M19.302,65.358 C21.248,64.518 22.648,63.328 23.516,61.816 C23.992,60.92 24.342,59.87 24.566,58.652 L25.7,58.652 L25.7,63.748 C25.7,64.7 26.148,65.176 27.072,65.176 L29.34,65.176 C29.928,65.176 30.348,65.05 30.614,64.798 C30.922,64.49 31.132,63.664 31.244,62.292 L30.292,61.984 C30.222,63.076 30.096,63.72 29.9,63.944 C29.746,64.126 29.494,64.224 29.158,64.224 L27.38,64.224 C26.932,64.224 26.708,63.986 26.708,63.538 L26.708,58.652 L31.048,58.652 L31.048,57.686 L24.72,57.686 C24.818,56.93 24.874,56.104 24.902,55.236 L24.902,54.298 L29.914,54.298 L29.914,53.318 L19.862,53.318 L19.862,54.298 L23.88,54.298 L23.88,55.236 C23.866,56.104 23.81,56.93 23.698,57.686 L18.924,57.686 L18.924,58.652 L23.53,58.652 C23.348,59.534 23.096,60.332 22.76,61.032 C22.004,62.46 20.674,63.594 18.742,64.462 L19.302,65.358 Z M44.964,65.4 L45.51,64.574 C44.502,63.888 43.648,62.922 42.92,61.662 C43.704,60.01 44.138,58.008 44.208,55.67 L45.118,55.67 L45.118,54.704 L41.422,54.704 C41.534,54.088 41.646,53.416 41.73,52.702 L40.75,52.534 C40.47,55.194 39.91,57.308 39.084,58.876 L39.714,59.646 C40.008,59.142 40.288,58.568 40.54,57.924 C40.918,59.324 41.38,60.556 41.926,61.634 C41.282,62.824 40.428,63.79 39.336,64.546 L39.854,65.386 C40.904,64.63 41.772,63.692 42.444,62.572 C43.144,63.748 43.984,64.7 44.964,65.4 Z M33.162,59.044 C34.366,58.232 35.206,57.28 35.668,56.174 L35.668,58.834 L36.606,58.834 L36.606,57.014 C37.11,57.35 37.712,57.798 38.412,58.358 L38.93,57.574 C38.146,57.098 37.362,56.664 36.606,56.286 L36.606,56.132 L39.154,56.132 L39.154,55.25 L36.606,55.25 L36.606,52.576 L35.668,52.576 L35.668,55.25 L32.938,55.25 L32.938,56.132 L34.926,56.132 C34.506,56.902 33.75,57.602 32.672,58.232 L33.162,59.044 Z M37.922,54.928 C38.37,54.34 38.72,53.738 39,53.122 L38.272,52.786 C38.02,53.374 37.656,53.962 37.208,54.564 L37.922,54.928 Z M34.156,54.914 L34.884,54.578 C34.632,53.962 34.352,53.374 34.016,52.828 L33.218,53.094 C33.554,53.626 33.862,54.228 34.156,54.914 Z M42.388,60.626 C41.828,59.45 41.38,58.036 41.03,56.398 L41.212,55.67 L43.284,55.67 C43.228,57.56 42.934,59.212 42.388,60.626 Z M33.064,65.358 C34.464,64.966 35.626,64.448 36.55,63.804 C37.376,64.168 38.09,64.546 38.706,64.91 L39.252,64.126 C38.636,63.79 37.992,63.482 37.32,63.174 C38.048,62.502 38.566,61.704 38.874,60.78 L38.874,59.954 L35.948,59.954 C36.032,59.702 36.13,59.45 36.228,59.184 L35.29,59.072 C35.192,59.352 35.08,59.646 34.954,59.954 L32.91,59.954 L32.91,60.836 L34.562,60.836 C34.282,61.396 33.96,61.97 33.596,62.586 C34.282,62.838 34.926,63.104 35.542,63.37 C34.73,63.832 33.736,64.21 32.588,64.518 L33.064,65.358 Z M36.396,62.782 C35.892,62.572 35.36,62.376 34.8,62.18 C35.08,61.76 35.332,61.312 35.556,60.836 L37.964,60.836 C37.628,61.564 37.096,62.222 36.396,62.782 Z M48.296,65.274 C49.08,65.274 49.472,64.854 49.472,64.042 L49.472,59.954 C49.906,59.758 50.34,59.562 50.774,59.338 L50.774,58.344 C50.354,58.568 49.92,58.778 49.472,58.974 L49.472,56.216 L50.816,56.216 L50.816,55.25 L49.472,55.25 L49.472,52.604 L48.492,52.604 L48.492,55.25 L46.812,55.25 L46.812,56.216 L48.492,56.216 L48.492,59.38 C47.876,59.604 47.232,59.8 46.588,59.954 L46.84,60.934 C47.386,60.766 47.932,60.57 48.492,60.36 L48.492,63.79 C48.492,64.182 48.31,64.392 47.96,64.392 C47.624,64.392 47.26,64.364 46.896,64.322 L47.106,65.274 L48.296,65.274 Z M53.938,65.4 L53.938,64.714 L57.732,64.714 L57.732,65.4 L58.67,65.4 L58.67,60.808 L56.318,60.808 L56.318,59.086 L59.314,59.086 L59.314,58.176 L56.318,58.176 L56.318,56.524 L58.95,56.524 L58.95,53.122 L51.572,53.122 L51.572,57.504 C51.558,60.444 51.054,62.852 50.06,64.7 L50.844,65.4 C51.768,63.58 52.314,61.48 52.482,59.086 L55.338,59.086 L55.338,60.808 L53,60.808 L53,65.4 L53.938,65.4 Z M57.97,55.614 L52.552,55.614 L52.552,54.06 L57.97,54.06 L57.97,55.614 Z M55.338,58.176 L52.538,58.176 L52.552,57.504 L52.552,57.504 L52.552,56.524 L55.338,56.524 L55.338,58.176 Z M57.732,63.818 L53.938,63.818 L53.938,61.704 L57.732,61.704 L57.732,63.818 Z" id="暂无数据" fill="#BFBFBF" fill-rule="nonzero"></path>
        </g>
    </g>
</svg>