<?xml version="1.0" encoding="utf-8"?>
<!-- Generator: Adobe Illustrator 16.0.0, SVG Export Plug-In . SVG Version: 6.00 Build 0)  -->
<!DOCTYPE svg PUBLIC "-//W3C//DTD SVG 1.1//EN" "http://www.w3.org/Graphics/SVG/1.1/DTD/svg11.dtd">
<svg version="1.1" id="图层_1" xmlns="http://www.w3.org/2000/svg" xmlns:xlink="http://www.w3.org/1999/xlink" x="0px" y="0px"
	 width="452px" height="187px" viewBox="0 0 452 187" enable-background="new 0 0 452 187" xml:space="preserve">
<title>故障报警</title>
<g id="门户">
	<g id="编组-8_1_" transform="translate(12.000000, 10.000000)">
		<g id="Pagination_x2F_Default_x2F_Large_x2F_Normal备份-2" transform="translate(99.000000, 124.000000)">
			<g id="编组" transform="translate(26.000000, 1.000000)">
				<path id="Rectangle-3-Copy-35" fill="#1F7BFC" d="M20.997-0.5H1.002C0.166-0.5-0.5,0.17-0.5,1.002v19.996
					c0,0.836,0.67,1.502,1.502,1.502h19.995c0.837,0,1.503-0.67,1.503-1.502V1.002C22.5,0.166,21.83-0.5,20.997-0.5z M1.002,0.5
					h19.995c0.281,0,0.503,0.22,0.503,0.502v19.996c0,0.281-0.22,0.502-0.503,0.502H1.002c-0.281,0-0.502-0.22-0.502-0.502V1.002
					C0.5,0.721,0.72,0.5,1.002,0.5z"/>
				<text transform="matrix(1 0 0 1 8.9998 15)" fill="#3081F2" font-family="'ArialMT'" font-size="12">1</text>
			</g>
			<g id="编组-2" transform="translate(52.000000, 1.000000)">
				<path id="Rectangle-3-Copy-35备份" fill="none" d="M0,1.991C0,0.892,0.89,0,1.991,0h18.018C21.109,0,22,0.89,22,1.991v18.018
					c0,1.1-0.89,1.991-1.991,1.991H1.991C0.892,22,0,21.11,0,20.009V1.991z"/>
				<path id="_x32_" fill-opacity="0.85" d="M13.456,15v-0.876h-4.5c0.155-0.576,0.779-1.235,1.872-1.968
					c0.888-0.6,1.476-1.068,1.775-1.381c0.552-0.6,0.84-1.271,0.84-2.016s-0.264-1.355-0.768-1.812
					c-0.516-0.456-1.164-0.685-1.956-0.685c-0.864,0-1.572,0.288-2.1,0.864C8.092,7.691,7.816,8.46,7.816,9.42H8.8
					c0.012-0.756,0.192-1.332,0.528-1.716c0.312-0.408,0.768-0.601,1.355-0.601c0.552,0,0.996,0.145,1.309,0.433
					c0.312,0.288,0.468,0.684,0.468,1.212c0,0.552-0.229,1.068-0.66,1.536c-0.229,0.239-0.672,0.588-1.344,1.067
					c-0.912,0.625-1.524,1.141-1.86,1.524C8.02,13.512,7.744,14.22,7.744,15H13.456z"/>
			</g>
			<g id="编组-4" transform="translate(78.000000, 1.000000)">
				<path id="Rectangle-3-Copy-35备份-2" fill="none" d="M0,1.991C0,0.892,0.89,0,1.991,0h18.018C21.109,0,22,0.89,22,1.991
					v18.018c0,1.1-0.89,1.991-1.991,1.991H1.991C0.892,22,0,21.11,0,20.009V1.991z"/>
				<path id="_x33_" fill-opacity="0.85" d="M10.624,15.168c0.888,0,1.607-0.252,2.16-0.756c0.54-0.492,0.815-1.128,0.815-1.908
					c0-0.504-0.144-0.924-0.432-1.26c-0.265-0.336-0.648-0.576-1.152-0.732c0.937-0.312,1.404-0.96,1.404-1.92
					c0-0.72-0.252-1.283-0.744-1.703c-0.504-0.421-1.176-0.625-1.992-0.625c-0.815,0-1.476,0.229-1.979,0.696
					C8.176,7.428,7.864,8.076,7.792,8.904h0.972c0.061-0.576,0.252-1.021,0.588-1.332c0.324-0.313,0.769-0.456,1.344-0.456
					c0.553,0,0.996,0.132,1.309,0.42c0.288,0.264,0.443,0.636,0.443,1.116c0,0.479-0.155,0.852-0.455,1.115
					c-0.301,0.252-0.732,0.385-1.309,0.385h-0.66v0.768h0.696c0.6,0,1.056,0.132,1.392,0.42s0.505,0.684,0.505,1.2
					c0,0.504-0.181,0.924-0.517,1.26c-0.372,0.349-0.864,0.528-1.476,0.528c-0.54,0-0.984-0.156-1.345-0.444
					c-0.42-0.348-0.647-0.864-0.672-1.536H7.612c0.072,0.961,0.408,1.692,1.021,2.196C9.148,14.952,9.808,15.168,10.624,15.168z"/>
			</g>
			<g id="编组-5" transform="translate(104.000000, 1.000000)">
				<path id="Rectangle-3-Copy-35备份-3" fill="none" d="M0,1.991C0,0.892,0.89,0,1.991,0h18.018C21.109,0,22,0.89,22,1.991
					v18.018c0,1.1-0.89,1.991-1.991,1.991H1.991C0.892,22,0,21.11,0,20.009V1.991z"/>
				<path id="_x34_" fill-opacity="0.85" d="M12.532,15v-1.943h1.392v-0.805h-1.392v-5.82h-0.925L7.288,12.12v0.937h4.308V15H12.532
					z M11.596,12.252H8.116l3.443-4.536h0.036V12.252z"/>
			</g>
			<g id="编组-7" transform="translate(130.000000, 1.000000)">
				<path id="Rectangle-3-Copy-35备份-4" fill="none" d="M0,1.991C0,0.892,0.89,0,1.991,0h18.018C21.109,0,22,0.89,22,1.991
					v18.018c0,1.1-0.89,1.991-1.991,1.991H1.991C0.892,22,0,21.11,0,20.009V1.991z"/>
				<path id="_x35_" fill-opacity="0.85" d="M10.528,15.168c0.841,0,1.561-0.264,2.137-0.779c0.611-0.553,0.924-1.261,0.924-2.125
					c0-0.924-0.264-1.644-0.769-2.172c-0.504-0.516-1.164-0.768-1.979-0.768c-0.396,0-0.756,0.06-1.092,0.203
					c-0.372,0.145-0.685,0.361-0.924,0.648H8.776l0.288-2.867h4.176V6.432H8.26L7.804,11.16H8.74c0.169-0.336,0.433-0.6,0.769-0.768
					c0.324-0.181,0.684-0.265,1.092-0.265c0.624,0,1.116,0.181,1.464,0.563c0.36,0.373,0.553,0.9,0.553,1.584
					c0,0.601-0.204,1.093-0.589,1.477c-0.396,0.384-0.888,0.576-1.487,0.576c-0.528,0-0.973-0.133-1.309-0.385
					c-0.384-0.287-0.6-0.707-0.647-1.248H7.612c0.061,0.781,0.385,1.404,0.984,1.861C9.124,14.964,9.772,15.168,10.528,15.168z"/>
			</g>
			<g id="编组-8" transform="translate(156.000000, 0.000000)">
				<path id="Rectangle-3-Copy-35备份-5" fill="none" d="M0,3.991C0,2.892,0.89,2,1.991,2h18.018C21.109,2,22,2.89,22,3.991
					v18.018c0,1.1-0.89,1.991-1.991,1.991H1.991C0.892,24,0,23.11,0,22.009V3.991z"/>
				<g id="_x2026_-copy-2" transform="translate(5.000000, 0.000000)">
					<path id="_x2026_" fill-opacity="0.85" d="M1.992,13c0.203,0,0.384-0.072,0.527-0.204c0.132-0.132,0.204-0.3,0.204-0.516
						c0-0.204-0.072-0.372-0.204-0.505c-0.144-0.144-0.312-0.203-0.527-0.203c-0.204,0-0.372,0.06-0.505,0.203
						c-0.144,0.133-0.216,0.301-0.216,0.505s0.072,0.372,0.216,0.516C1.62,12.928,1.788,13,1.992,13z M6,13
						c0.204,0,0.384-0.072,0.527-0.204c0.133-0.132,0.204-0.3,0.204-0.516c0-0.204-0.071-0.372-0.204-0.505
						C6.384,11.632,6.204,11.572,6,11.572s-0.372,0.06-0.517,0.203C5.34,11.908,5.28,12.076,5.28,12.28s0.061,0.372,0.204,0.516
						C5.628,12.928,5.796,13,6,13z M9.996,13c0.204,0,0.372-0.072,0.516-0.204s0.216-0.3,0.216-0.516
						c0-0.204-0.072-0.372-0.216-0.505c-0.144-0.144-0.312-0.203-0.516-0.203s-0.372,0.06-0.517,0.203
						c-0.144,0.133-0.204,0.301-0.204,0.505s0.061,0.372,0.204,0.516C9.624,12.928,9.792,13,9.996,13z"/>
				</g>
			</g>
			<g id="编组-9" transform="translate(182.000000, 1.000000)">
				<path id="Rectangle-3-Copy-35备份-6" fill="none" d="M0,1.991C0,0.892,0.89,0,1.991,0h18.018C21.109,0,22,0.89,22,1.991
					v18.018C22,21.108,21.11,22,20.009,22H1.991C0.892,22,0,21.11,0,20.009V1.991z"/>
				<path id="_x39_" fill-opacity="0.85" d="M10.491,15.168c0.96,0,1.729-0.456,2.305-1.344c0.527-0.864,0.804-1.969,0.804-3.336
					c0-1.32-0.252-2.353-0.756-3.072c-0.528-0.768-1.309-1.152-2.34-1.152c-0.841,0-1.536,0.276-2.076,0.84
					C7.876,7.656,7.612,8.352,7.612,9.204c0,0.828,0.24,1.5,0.732,2.016c0.504,0.54,1.164,0.816,1.992,0.816
					c0.504,0,0.947-0.132,1.332-0.372c0.396-0.252,0.708-0.6,0.924-1.032h0.048c0,0.144,0.012,0.252,0.012,0.312
					c0,0.961-0.191,1.765-0.563,2.4c-0.396,0.66-0.925,0.996-1.584,0.996c-1.009,0-1.597-0.492-1.776-1.464H7.756
					C7.984,14.4,8.896,15.168,10.491,15.168z M10.528,11.22c-0.6,0-1.067-0.192-1.416-0.563c-0.359-0.36-0.527-0.852-0.527-1.452
					c0-0.624,0.168-1.128,0.527-1.524c0.36-0.396,0.828-0.588,1.416-0.588s1.068,0.204,1.428,0.612
					c0.349,0.384,0.528,0.876,0.528,1.476c0,0.588-0.192,1.08-0.552,1.465C11.548,11.027,11.079,11.22,10.528,11.22z"/>
			</g>
			<g id="编组-10" transform="translate(0.000000, 1.000000)">
				<path id="Rectangle-3-Copy-35备份-7" fill="none" d="M0,1.991C0,0.892,0.89,0,1.991,0h18.018C21.109,0,22,0.89,22,1.991
					v18.018c0,1.1-0.89,1.991-1.991,1.991H1.991C0.892,22,0,21.11,0,20.009V1.991z"/>
				<g id="Group-Copy-22" transform="translate(7.000000, 7.000000)">
					<rect id="Rectangle" x="0" fill="none" width="8" height="8"/>
					<path id="down" fill="#595959" d="M1.75,3.998c0-0.092,0.035-0.177,0.104-0.238l0,0l3.375-3.039
						C5.357,0.605,5.554,0.615,5.67,0.744C5.785,0.872,5.775,1.07,5.647,1.186l0,0l-3.13,2.818l3.13,2.818
						C5.775,6.938,5.785,7.135,5.67,7.264C5.554,7.392,5.357,7.402,5.229,7.287L1.854,4.248C1.785,4.187,1.75,4.102,1.75,4.017
						c0.001-0.002,0-0.005,0-0.007V3.998L1.75,3.998z"/>
				</g>
			</g>
			
				<g id="编组-10备份" transform="translate(219.000000, 12.000000) scale(-1, 1) translate(-219.000000, -12.000000) translate(208.000000, 1.000000)">
				<path id="Rectangle-3-Copy-35备份-7_1_" fill="none" d="M0,1.991C0,0.892,0.89,0,1.991,0H20.01C21.109,0,22,0.89,22,1.991
					v18.018c0,1.1-0.89,1.991-1.99,1.991H1.991C0.891,22,0,21.11,0,20.009V1.991z"/>
				<g id="Group-Copy-22_1_" transform="translate(7.000000, 7.000000)">
					<rect id="Rectangle_1_" x="0" y="8" fill="none" width="8" height="-8"/>
					<path id="down_1_" fill="#595959" d="M1.751,3.998c0-0.092,0.034-0.177,0.103-0.238l0,0l3.375-3.039
						C5.357,0.605,5.554,0.615,5.67,0.744C5.786,0.872,5.775,1.07,5.647,1.186l0,0l-3.13,2.818l3.13,2.818
						C5.775,6.938,5.786,7.135,5.67,7.264C5.554,7.392,5.357,7.402,5.228,7.287L1.853,4.248C1.786,4.187,1.751,4.102,1.75,4.017
						C1.751,4.015,1.751,4.012,1.751,4.01V3.998L1.751,3.998z"/>
				</g>
			</g>
		</g>
		<path id="故障报警" fill-opacity="0.85" d="M14.544,18.696l0.864-1.264c-1.248-0.672-2.32-1.6-3.232-2.784
			c1.12-1.824,1.728-4.064,1.84-6.688h1.12V6.488h-4.912c0.225-0.736,0.4-1.536,0.561-2.368L9.376,3.864
			C8.912,6.552,8.032,8.68,6.736,10.28l0.929,1.168c0.304-0.352,0.607-0.752,0.896-1.184c0.512,1.632,1.168,3.072,1.937,4.336
			c-0.849,1.12-1.937,2.048-3.28,2.768l0.8,1.264c1.313-0.768,2.416-1.696,3.328-2.8C12.24,17.016,13.312,17.976,14.544,18.696z
			 M2.912,18.408v-1.072h4.352v-5.792H5.072V8.552h2.593V7.08H5.072V4.088H3.616V7.08H0.848v1.472h2.769v2.992h-2.16v6.864H2.912z
			 M11.28,13.336c-0.768-1.312-1.392-2.848-1.871-4.624c0.096-0.24,0.208-0.496,0.319-0.752h2.864
			C12.496,10.024,12.064,11.816,11.28,13.336z M5.792,15.96h-2.88v-3.056h2.88V15.96z M31.152,8.84V7.56h-2.176
			c0.176-0.4,0.32-0.816,0.433-1.248h1.407V5.016h-3.6c-0.128-0.448-0.24-0.848-0.368-1.2l-1.536,0.256
			c0.128,0.288,0.256,0.592,0.368,0.944h-3.248v1.296h1.376c0.145,0.384,0.272,0.8,0.4,1.248h-2.433v1.28H31.152z M18.64,18.664
			V5.832h1.888c-0.352,1.296-0.863,2.752-1.504,4.368c0.96,1.344,1.456,2.544,1.456,3.632c0,0.272-0.063,0.464-0.16,0.592
			c-0.128,0.096-0.367,0.16-0.72,0.192c-0.224,0-0.512-0.032-0.832-0.08l0.496,1.536c1.072-0.016,1.824-0.224,2.256-0.624
			c0.288-0.336,0.448-0.88,0.448-1.616c-0.08-1.104-0.576-2.384-1.472-3.856c0.592-1.536,1.104-2.992,1.52-4.368v-1.2h-4.864v14.256
			H18.64z M27.504,7.56h-1.792c-0.128-0.448-0.24-0.864-0.368-1.248h2.608C27.824,6.728,27.68,7.144,27.504,7.56z M27.344,18.648
			v-1.824h3.936v-1.28h-3.936v-0.848h3.04V9.624h-7.712v5.072h3.136v0.848h-4.016v1.28h4.016v1.824H27.344z M28.96,11.624h-4.816
			v-0.8h4.816V11.624z M28.96,13.48h-4.816v-0.736h4.816V13.48z M34.992,18.6c1.023,0,1.535-0.544,1.535-1.6v-4.576
			c0.576-0.24,1.137-0.496,1.713-0.784v-1.504c-0.561,0.288-1.137,0.56-1.713,0.816v-2.8h1.664V6.696h-1.664V3.928H35.04v2.768
			h-2.192v1.456h2.192v3.376c-0.816,0.288-1.648,0.512-2.496,0.704l0.384,1.504c0.704-0.224,1.408-0.464,2.112-0.72v3.616
			c0,0.4-0.208,0.608-0.592,0.608c-0.416,0-0.849-0.032-1.313-0.096l0.352,1.456H34.992z M41.328,18.696
			c1.023-0.496,1.92-1.136,2.655-1.92c0.688,0.672,1.504,1.296,2.464,1.904l1.024-1.184c-1.024-0.544-1.888-1.152-2.624-1.824
			c0.769-1.152,1.28-2.56,1.536-4.208v-1.312h-6.048V5.816h4.479c-0.031,0.848-0.096,1.392-0.208,1.632
			c-0.096,0.16-0.239,0.271-0.399,0.32c-0.192,0.032-0.48,0.048-0.849,0.048c-0.384,0-0.688-0.016-0.928-0.016l0.416,1.312h1.2
			c1.072,0,1.712-0.304,1.92-0.912c0.192-0.624,0.304-1.872,0.304-3.76h-7.376v14.208h1.44v-7.104h0.704
			c0.256,1.472,0.88,2.832,1.903,4.096c-0.64,0.704-1.424,1.28-2.352,1.728L41.328,18.696z M43.792,14.536
			c-0.721-0.912-1.185-1.904-1.393-2.992h2.561C44.704,12.664,44.32,13.672,43.792,14.536z M62.944,12.12v-1.072h-6.128
			c-0.128-0.352-0.271-0.656-0.416-0.928l-0.72,0.096c0.064-0.064,0.145-0.144,0.208-0.24c0.224-0.352,0.353-1.248,0.4-2.656
			l0.735,0.928c0.32-0.288,0.608-0.592,0.88-0.944c0.208,0.416,0.513,0.832,0.896,1.232c-0.608,0.384-1.376,0.656-2.272,0.848
			l0.561,1.216c1.072-0.256,1.983-0.656,2.752-1.216c0.704,0.48,1.584,0.896,2.64,1.248l0.688-1.216
			c-0.912-0.272-1.696-0.592-2.368-0.96c0.544-0.672,0.928-1.504,1.152-2.496h0.863V4.728H59.2c0.063-0.24,0.128-0.48,0.191-0.736
			l-1.376-0.224c-0.304,1.376-0.88,2.48-1.728,3.344V6.44h-5.024l0.08-0.272h0.864V5.56h1.456v0.608h1.248V5.56h1.823V4.472h-1.823
			v-0.64h-1.248v0.64h-1.456v-0.64H50.96v0.64h-1.809V5.56h1.809v0.448L50.128,5.88c-0.256,0.96-0.72,1.712-1.424,2.288l0.8,0.992
			c0.304-0.256,0.592-0.56,0.864-0.896v1.968h3.359l0.112,0.384h0.656c0.191,0,0.384-0.032,0.56-0.08
			c0.096,0.16,0.208,0.32,0.304,0.512h-6.288v1.072H62.944z M59.76,7.736c-0.544-0.464-0.912-0.992-1.136-1.584L58.72,5.96h1.936
			C60.496,6.632,60.192,7.224,59.76,7.736z M54.224,9.656h-0.336V7.944h-3.312c0.096-0.16,0.191-0.32,0.287-0.496h4.032
			c-0.016,0.928-0.063,1.536-0.128,1.792C54.688,9.496,54.512,9.624,54.224,9.656z M52.752,9.464h-1.265V8.728h1.265V9.464z
			 M61.136,13.56v-0.88H51.008v0.88H61.136z M61.136,15v-0.88H51.008V15H61.136z M51.936,18.776v-0.432h8.305v0.432h1.472v-3.152
			H50.464v3.152H51.936z M60.24,17.352h-8.305V16.6h8.305V17.352z"/>
		<path id="_x5B_一号锅炉_x5D_一号缸温大于50时S00的累加值" display="none" fill="#262626" d="M3.468,52.284V51.48
			H1.416v-9.6h2.052v-0.804h-2.94v11.208H3.468z M15.384,47.028v-0.864H4.596v0.864H15.384z M25.512,44.868v-3.24H18.48v3.24H25.512
			z M24.624,44.088h-5.256v-1.68h5.256V44.088z M23.472,52.116c0.816,0,1.368-0.18,1.656-0.54c0.288-0.372,0.479-1.524,0.552-3.444
			h-5.868l0.408-1.404h7.164V45.9H16.596v0.828h2.748l-0.564,2.184h6.024c-0.072,1.08-0.18,1.752-0.324,2.016
			c-0.155,0.264-0.552,0.396-1.2,0.396c-0.491,0-1.056-0.024-1.691-0.072l0.288,0.792C22.344,52.092,22.872,52.116,23.472,52.116z
			 M29.22,45.636c0.372-0.672,0.696-1.428,0.984-2.256h2.399v-0.816h-2.136c0.096-0.372,0.192-0.756,0.288-1.164l-0.816-0.168
			c-0.3,1.44-0.768,2.76-1.416,3.96L29.22,45.636z M33.876,52.164V46.8h1.668c-0.036,0.24-0.072,0.48-0.12,0.696
			c-0.252,0.972-0.756,1.776-1.5,2.424l0.54,0.66c0.72-0.624,1.236-1.38,1.548-2.292c0.648,0.696,1.176,1.356,1.572,2.004
			l0.624-0.624c-0.54-0.732-1.2-1.476-1.98-2.22c0.036-0.204,0.072-0.42,0.108-0.648h1.908v3.996c0,0.36-0.181,0.552-0.54,0.552
			L36.564,51.3l0.216,0.816h1.2c0.721,0,1.08-0.384,1.08-1.14v-4.968h-2.64c0.023-0.384,0.048-0.78,0.06-1.212h2.017V41.7H33.54
			v3.096h2.16c-0.013,0.42-0.036,0.828-0.061,1.212h-2.58v6.156H33.876z M37.68,44.04h-3.312v-1.572h3.312V44.04z M30.372,51.912
			c0.888-0.264,1.68-0.612,2.363-1.02l-0.132-0.768c-0.468,0.3-0.936,0.54-1.392,0.72v-2.82h1.344V47.22h-1.344v-1.56h1.032v-0.792
			h-2.521v0.792h0.648v1.56h-1.561v0.804h1.561v2.76c0,0.168-0.132,0.3-0.372,0.384L30.372,51.912z M44.76,52.2
			c1.008-1.56,1.536-3.42,1.572-5.604h4.812V42.66H48.84c-0.192-0.564-0.396-1.068-0.612-1.512l-0.876,0.144
			c0.229,0.408,0.444,0.864,0.636,1.368h-2.52v3.828c-0.012,2.1-0.456,3.816-1.344,5.136L44.76,52.2z M41.232,52.104
			c0.853-0.888,1.44-2.1,1.752-3.66c0.336,0.408,0.732,0.972,1.212,1.692l0.469-0.72c-0.517-0.672-1.032-1.272-1.548-1.812
			c0.071-0.612,0.119-1.272,0.132-1.968v-0.348c0.744-0.576,1.344-1.176,1.8-1.788l-0.504-0.66c-0.36,0.528-0.792,1.044-1.296,1.524
			V41.34H42.42v4.296c-0.024,2.712-0.624,4.692-1.824,5.916L41.232,52.104z M50.304,45.768h-3.972v-2.28h3.972V45.768z M41.244,47.1
			c0.288-1.08,0.443-2.232,0.479-3.444l-0.744-0.048c-0.023,1.164-0.18,2.268-0.456,3.3L41.244,47.1z M55.464,52.284V41.076h-2.94
			v0.804h2.053v9.6h-2.053v0.804H55.464z M67.38,47.028v-0.864H56.592v0.864H67.38z M77.508,44.868v-3.24h-7.032v3.24H77.508z
			 M76.62,44.088h-5.257v-1.68h5.257V44.088z M75.468,52.116c0.816,0,1.368-0.18,1.656-0.54c0.288-0.372,0.479-1.524,0.552-3.444
			h-5.868l0.408-1.404h7.164V45.9H68.592v0.828h2.748l-0.564,2.184H76.8c-0.072,1.08-0.18,1.752-0.324,2.016
			c-0.156,0.264-0.552,0.396-1.2,0.396c-0.491,0-1.056-0.024-1.691-0.072l0.288,0.792C74.34,52.092,74.868,52.116,75.468,52.116z
			 M85.512,52.008V47.4h-0.768v3.168l-1.044,0.12v-4.332h2.136v-0.804H83.7v-2.088h1.787v-0.792H82.2
			c0.119-0.42,0.239-0.864,0.348-1.344l-0.828-0.18c-0.24,1.2-0.624,2.28-1.164,3.264l0.732,0.468
			c0.228-0.432,0.443-0.912,0.636-1.416h0.972v2.088h-2.22v0.804h2.22v4.416l-1.092,0.12v-3.504h-0.768v4.344l3.708-0.384v0.66
			H85.512z M91.512,51.828v-0.84h-2.364v-8.1H91.2V42.06h-4.896v0.828h1.992v8.1h-2.269v0.84H91.512z M94.992,43.536l0.611-0.612
			c-0.527-0.516-1.164-1.032-1.932-1.548l-0.612,0.588C93.876,42.516,94.524,43.044,94.992,43.536z M102.204,46.284v-4.608h-5.616
			v4.608H102.204z M101.376,43.62h-3.948v-1.164h3.948V43.62z M94.644,46.584l0.612-0.612c-0.528-0.576-1.188-1.152-1.968-1.728
			l-0.612,0.588C93.516,45.456,94.164,46.032,94.644,46.584z M101.376,45.516h-3.948v-1.14h3.948V45.516z M103.452,51.912v-0.816
			h-0.673V47.28h-6.695v3.816h-0.792v0.816H103.452z M93.636,52.032c0.6-1.296,1.152-2.688,1.632-4.152l-0.756-0.288
			c-0.468,1.392-1.02,2.748-1.668,4.092L93.636,52.032z M98.088,51.096h-1.164v-3.012h1.164V51.096z M99.984,51.096h-1.115v-3.012
			h1.115V51.096z M101.952,51.096h-1.188v-3.012h1.188V51.096z M105.024,52.236c2.557-1.332,4.212-3.456,4.956-6.372
			c0.9,2.712,2.557,4.8,4.968,6.288l0.54-0.696c-2.46-1.464-4.115-3.552-4.955-6.264h4.728v-0.84h-4.98
			c0.097-0.744,0.156-1.524,0.156-2.364v-0.78h-0.888v0.972c-0.012,0.756-0.061,1.476-0.156,2.172h-4.668v0.84h4.524
			c-0.624,2.952-2.208,5.064-4.765,6.324L105.024,52.236z M121.32,52.068c0.805,0,1.213-0.396,1.213-1.176v-4.26h4.764v-0.864
			h-4.764v-3.264h3.924v-0.84h-9.013v0.84h4.212v3.264h-4.968v0.864h4.968v4.044c0,0.408-0.216,0.612-0.636,0.612
			c-0.552,0-1.14-0.024-1.752-0.048l0.18,0.828H121.32z M131.52,51.168c0.84,0,1.561-0.264,2.136-0.78
			c0.612-0.552,0.925-1.26,0.925-2.124c0-0.924-0.265-1.644-0.769-2.172c-0.504-0.516-1.164-0.768-1.979-0.768
			c-0.396,0-0.756,0.06-1.092,0.204c-0.372,0.144-0.685,0.36-0.925,0.648h-0.048l0.288-2.868h4.176v-0.876h-4.979l-0.456,4.728
			h0.936c0.168-0.336,0.433-0.6,0.769-0.768c0.324-0.18,0.684-0.264,1.092-0.264c0.624,0,1.116,0.18,1.464,0.564
			c0.36,0.372,0.552,0.9,0.552,1.584c0,0.6-0.204,1.092-0.588,1.476c-0.396,0.384-0.888,0.576-1.487,0.576
			c-0.528,0-0.973-0.132-1.309-0.384c-0.384-0.288-0.6-0.708-0.647-1.248h-0.973c0.061,0.78,0.384,1.404,0.984,1.86
			C130.116,50.964,130.764,51.168,131.52,51.168z M138.792,51.168c1.02,0,1.788-0.456,2.315-1.356
			c0.456-0.768,0.685-1.8,0.685-3.096c0-1.296-0.229-2.328-0.685-3.096c-0.527-0.912-1.296-1.356-2.315-1.356
			c-1.032,0-1.8,0.444-2.316,1.356c-0.456,0.768-0.684,1.8-0.684,3.096c0,1.296,0.228,2.328,0.684,3.096
			C136.992,50.712,137.76,51.168,138.792,51.168z M138.792,50.328c-0.769,0-1.32-0.42-1.656-1.236c-0.24-0.588-0.36-1.38-0.36-2.376
			c0-1.008,0.12-1.8,0.36-2.376c0.336-0.828,0.888-1.236,1.656-1.236c0.768,0,1.319,0.408,1.655,1.236
			c0.24,0.576,0.372,1.368,0.372,2.376c0,0.996-0.132,1.788-0.372,2.376C140.112,49.908,139.56,50.328,138.792,50.328z
			 M151.296,52.08c0.744,0,1.116-0.384,1.116-1.14v-6.708h1.476v-0.828h-1.476v-2.112h-0.876v2.112h-4.152v0.828h4.152v6.492
			c0,0.372-0.181,0.564-0.528,0.564c-0.636,0-1.296-0.024-1.992-0.048l0.18,0.84H151.296z M144.216,51.228v-1.092h1.776v0.804h0.84
			v-8.844h-3.456v9.132H144.216z M145.992,45.636h-1.776v-2.748h1.776V45.636z M149.556,49.128l0.72-0.504
			c-0.396-0.84-0.972-1.824-1.716-2.952l-0.708,0.444C148.572,47.22,149.136,48.228,149.556,49.128z M145.992,49.332h-1.776V46.44
			h1.776V49.332z M158.268,51.168c1.021,0,1.824-0.216,2.424-0.636c0.601-0.432,0.9-1.032,0.9-1.776c0-0.78-0.36-1.38-1.068-1.812
			c-0.359-0.216-1.104-0.492-2.231-0.828c-0.828-0.24-1.356-0.42-1.572-0.54c-0.492-0.264-0.732-0.612-0.732-1.044
			c0-0.492,0.204-0.852,0.612-1.092c0.36-0.216,0.853-0.312,1.488-0.312c0.696,0,1.236,0.144,1.62,0.456
			c0.372,0.3,0.611,0.756,0.72,1.38h0.972c-0.084-0.9-0.407-1.584-0.983-2.04c-0.553-0.444-1.32-0.66-2.28-0.66
			c-0.888,0-1.62,0.192-2.184,0.576c-0.637,0.408-0.948,0.996-0.948,1.74c0,0.72,0.324,1.272,0.983,1.656
			c0.276,0.144,0.937,0.384,1.969,0.696c0.96,0.276,1.571,0.48,1.812,0.624c0.564,0.3,0.853,0.72,0.853,1.26
			c0,0.456-0.217,0.816-0.648,1.08s-1.008,0.396-1.704,0.396c-0.768,0-1.344-0.168-1.74-0.48c-0.432-0.348-0.695-0.9-0.779-1.644
			h-0.973c0.072,1.056,0.444,1.836,1.116,2.352C156.468,50.952,157.26,51.168,158.268,51.168z M165.576,51.168
			c1.02,0,1.787-0.456,2.315-1.356c0.456-0.768,0.685-1.8,0.685-3.096c0-1.296-0.229-2.328-0.685-3.096
			c-0.528-0.912-1.296-1.356-2.315-1.356c-1.032,0-1.801,0.444-2.316,1.356c-0.456,0.768-0.684,1.8-0.684,3.096
			c0,1.296,0.228,2.328,0.684,3.096C163.776,50.712,164.544,51.168,165.576,51.168z M165.576,50.328c-0.769,0-1.32-0.42-1.656-1.236
			c-0.24-0.588-0.36-1.38-0.36-2.376c0-1.008,0.12-1.8,0.36-2.376c0.336-0.828,0.888-1.236,1.656-1.236
			c0.768,0,1.319,0.408,1.655,1.236c0.24,0.576,0.372,1.368,0.372,2.376c0,0.996-0.132,1.788-0.372,2.376
			C166.896,49.908,166.344,50.328,165.576,50.328z M172.776,51.168c1.021,0,1.788-0.456,2.316-1.356
			c0.456-0.768,0.684-1.8,0.684-3.096c0-1.296-0.228-2.328-0.684-3.096c-0.528-0.912-1.296-1.356-2.316-1.356
			c-1.031,0-1.8,0.444-2.315,1.356c-0.456,0.768-0.685,1.8-0.685,3.096c0,1.296,0.229,2.328,0.685,3.096
			C170.976,50.712,171.744,51.168,172.776,51.168z M172.776,50.328c-0.768,0-1.319-0.42-1.655-1.236
			c-0.24-0.588-0.36-1.38-0.36-2.376c0-1.008,0.12-1.8,0.36-2.376c0.336-0.828,0.888-1.236,1.655-1.236
			c0.769,0,1.32,0.408,1.656,1.236c0.24,0.576,0.372,1.368,0.372,2.376c0,0.996-0.132,1.788-0.372,2.376
			C174.096,49.908,173.544,50.328,172.776,50.328z M185.568,52.056c1.009,0,1.561-0.468,1.681-1.38
			c0.111-0.871,0.171-3.074,0.179-6.589l0.001-0.803l0,0H183.6c0.216-0.624,0.384-1.296,0.528-2.004l-0.853-0.108
			c-0.312,1.704-0.876,3.144-1.716,4.32l0.517,0.684c0.468-0.612,0.863-1.296,1.199-2.052h3.301
			c-0.022,3.209-0.065,5.229-0.129,6.039l-0.016,0.166l0,0c-0.096,0.612-0.42,0.924-0.984,0.924c-0.371,0-0.804-0.012-1.308-0.036
			l0.204,0.792C184.92,52.032,185.328,52.056,185.568,52.056z M178.2,51.804v-1.032h2.184v0.684h0.84v-8.184h-1.932
			c0.24-0.6,0.42-1.26,0.563-1.968l-0.863-0.12c-0.108,0.72-0.276,1.416-0.517,2.088h-1.116v8.532H178.2z M180.384,46.56H178.2
			v-2.472h2.184V46.56z M184.596,49.152l0.684-0.48c-0.455-0.744-1.104-1.62-1.968-2.616l-0.695,0.432
			C183.444,47.472,184.104,48.36,184.596,49.152z M180.384,49.968H178.2V47.34h2.184V49.968z M193.884,52.164
			c0.648,0,0.984-0.336,0.984-0.996V49.32c1.02-0.06,2.1-0.132,3.239-0.204c0.217,0.24,0.433,0.492,0.624,0.756l0.685-0.492
			c-0.469-0.588-1.141-1.284-2.028-2.088l-0.66,0.42c0.288,0.264,0.576,0.54,0.84,0.816c-1.775,0.12-3.563,0.216-5.34,0.264
			c1.836-0.516,3.552-1.26,5.136-2.232l-0.72-0.468c-0.443,0.264-0.888,0.516-1.332,0.756l-3.071,0.18
			c0.72-0.384,1.428-0.828,2.1-1.356h4.176V41.64h-8.28v4.032h2.929c-0.637,0.456-1.248,0.828-1.836,1.14
			c-0.168,0.048-0.433,0.084-0.805,0.084l0.168,0.744c1.116-0.072,2.256-0.144,3.433-0.192c-1.261,0.588-2.484,1.02-3.66,1.284
			c-0.252,0-0.504-0.012-0.769-0.024l0.181,0.804c1.248-0.024,2.616-0.072,4.104-0.144v1.596c0,0.288-0.132,0.444-0.396,0.444
			c-0.313,0-0.637-0.024-0.984-0.06l0.18,0.816H193.884z M197.688,43.308h-2.88v-0.972h2.88V43.308z M193.944,43.308h-2.88v-0.972
			h2.88V43.308z M197.688,44.976h-2.88v-0.972h2.88V44.976z M193.944,44.976h-2.88v-0.972h2.88V44.976z M199.092,52.008l0.456-0.732
			c-1.032-0.564-2.172-1.044-3.42-1.452l-0.42,0.648C196.86,50.844,197.988,51.36,199.092,52.008z M189.456,51.984
			c1.38-0.42,2.531-0.936,3.443-1.56l-0.516-0.588c-0.864,0.552-1.968,1.008-3.313,1.368L189.456,51.984z M201.456,52.248
			c1.536-1.632,2.328-4.212,2.376-7.752h1.596c-0.024,3.216-0.072,5.148-0.144,5.772c-0.097,0.684-0.456,1.032-1.068,1.032
			c-0.288,0-0.624-0.024-1.008-0.048l0.216,0.792c0.432,0.024,0.731,0.048,0.912,0.048c1.056,0,1.644-0.504,1.764-1.488
			c0.111-0.825,0.171-2.88,0.18-6.167v-0.78l0,0h-2.447v-2.424h-0.864v2.424h-1.92v0.84h1.92c-0.036,3.288-0.756,5.688-2.148,7.188
			L201.456,52.248z M208.212,52.02v-0.804h2.256v0.804h0.84v-9.036h-3.924v9.036H208.212z M210.468,50.388h-2.256v-6.576h2.256
			V50.388z M223.86,51.84v-0.792h-1.14V44.16h-2.436c0.048-0.336,0.107-0.684,0.155-1.044h3.072v-0.792h-2.976
			c0.023-0.336,0.06-0.696,0.084-1.056l-0.853-0.12c-0.023,0.384-0.06,0.78-0.096,1.176h-3.156v0.792h3.072
			c-0.048,0.348-0.108,0.696-0.156,1.044h-2.196v6.888H216v0.792H223.86z M215.364,52.2v-8.448c0.349-0.708,0.648-1.452,0.889-2.232
			l-0.78-0.36c-0.528,1.848-1.392,3.492-2.58,4.92l0.288,0.912c0.492-0.552,0.937-1.14,1.344-1.764V52.2H215.364z M221.892,45.912
			h-3.828V44.94h3.828V45.912z M221.892,47.592h-3.828v-0.984h3.828V47.592z M221.892,49.296h-3.828v-1.008h3.828V49.296z
			 M221.892,51.048h-3.828v-1.056h3.828V51.048z"/>
		<rect id="矩形" x="0" y="66" fill="#E5E5E5" width="428" height="1"/>
		<rect id="矩形备份-13" x="0" y="105" fill="#E5E5E5" width="428" height="1"/>
		<path id="_x5B_二号锅炉_x5D_一号缸温大于50" display="none" fill="#262626" d="M3.468,92.284V91.48H1.416V81.88h2.052
			v-0.804h-2.94v11.208H3.468z M14.256,83.38v-0.852H5.736v0.852H14.256z M15.348,90.952v-0.876H4.632v0.876H15.348z M25.512,84.868
			v-3.24H18.48v3.24H25.512z M24.624,84.088h-5.256v-1.68h5.256V84.088z M23.472,92.116c0.816,0,1.368-0.181,1.656-0.54
			c0.288-0.372,0.479-1.524,0.552-3.444h-5.868l0.408-1.403h7.164V85.9H16.596v0.828h2.748l-0.564,2.184h6.024
			c-0.072,1.08-0.18,1.752-0.324,2.016c-0.155,0.264-0.552,0.396-1.2,0.396c-0.491,0-1.056-0.024-1.691-0.072l0.288,0.792
			C22.344,92.092,22.872,92.116,23.472,92.116z M29.22,85.636c0.372-0.672,0.696-1.428,0.984-2.256h2.399v-0.816h-2.136
			c0.096-0.372,0.192-0.756,0.288-1.164l-0.816-0.168c-0.3,1.44-0.768,2.76-1.416,3.959L29.22,85.636z M33.876,92.164V86.8h1.668
			c-0.036,0.24-0.072,0.48-0.12,0.696c-0.252,0.972-0.756,1.775-1.5,2.424l0.54,0.66c0.72-0.624,1.236-1.38,1.548-2.292
			c0.648,0.696,1.176,1.356,1.572,2.004l0.624-0.624c-0.54-0.732-1.2-1.477-1.98-2.22c0.036-0.204,0.072-0.421,0.108-0.648h1.908
			v3.996c0,0.36-0.181,0.552-0.54,0.552L36.564,91.3l0.216,0.816h1.2c0.721,0,1.08-0.384,1.08-1.14v-4.969h-2.64
			c0.023-0.384,0.048-0.779,0.06-1.212h2.017V81.7H33.54v3.096h2.16c-0.013,0.42-0.036,0.828-0.061,1.212h-2.58v6.156H33.876z
			 M37.68,84.04h-3.312v-1.572h3.312V84.04z M30.372,91.912c0.888-0.264,1.68-0.612,2.363-1.02l-0.132-0.769
			c-0.468,0.3-0.936,0.54-1.392,0.72v-2.82h1.344V87.22h-1.344v-1.56h1.032v-0.792h-2.521v0.792h0.648v1.56h-1.561v0.804h1.561
			v2.761c0,0.168-0.132,0.3-0.372,0.384L30.372,91.912z M44.76,92.2c1.008-1.56,1.536-3.42,1.572-5.604h4.812V82.66H48.84
			c-0.192-0.564-0.396-1.068-0.612-1.512l-0.876,0.144c0.229,0.408,0.444,0.864,0.636,1.368h-2.52v3.828
			c-0.012,2.1-0.456,3.816-1.344,5.136L44.76,92.2z M41.232,92.104c0.853-0.888,1.44-2.1,1.752-3.66
			c0.336,0.408,0.732,0.973,1.212,1.692l0.469-0.72c-0.517-0.672-1.032-1.271-1.548-1.813c0.071-0.611,0.119-1.271,0.132-1.968
			v-0.348c0.744-0.576,1.344-1.177,1.8-1.788l-0.504-0.66c-0.36,0.528-0.792,1.044-1.296,1.524V81.34H42.42v4.296
			c-0.024,2.712-0.624,4.692-1.824,5.916L41.232,92.104z M50.304,85.768h-3.972v-2.28h3.972V85.768z M41.244,87.1
			c0.288-1.08,0.443-2.231,0.479-3.443l-0.744-0.048c-0.023,1.164-0.18,2.268-0.456,3.3L41.244,87.1z M55.464,92.284V81.076h-2.94
			v0.804h2.053v9.601h-2.053v0.804H55.464z M67.38,87.027v-0.863H56.592v0.863H67.38z M77.508,84.868v-3.24h-7.032v3.24H77.508z
			 M76.62,84.088h-5.257v-1.68h5.257V84.088z M75.468,92.116c0.816,0,1.368-0.181,1.656-0.54c0.288-0.372,0.479-1.524,0.552-3.444
			h-5.868l0.408-1.403h7.164V85.9H68.592v0.828h2.748l-0.564,2.184H76.8c-0.072,1.08-0.18,1.752-0.324,2.016
			c-0.156,0.264-0.552,0.396-1.2,0.396c-0.491,0-1.056-0.024-1.691-0.072l0.288,0.792C74.34,92.092,74.868,92.116,75.468,92.116z
			 M85.512,92.008V87.4h-0.768v3.168L83.7,90.688v-4.332h2.136v-0.804H83.7v-2.088h1.787v-0.792H82.2
			c0.119-0.42,0.239-0.864,0.348-1.344l-0.828-0.18c-0.24,1.2-0.624,2.28-1.164,3.264l0.732,0.468
			c0.228-0.432,0.443-0.912,0.636-1.416h0.972v2.088h-2.22v0.804h2.22v4.416l-1.092,0.121v-3.504h-0.768v4.344l3.708-0.385v0.66
			H85.512z M91.512,91.828v-0.84h-2.364v-8.1H91.2V82.06h-4.896v0.828h1.992v8.1h-2.269v0.84H91.512z M94.992,83.536l0.611-0.612
			c-0.527-0.516-1.164-1.032-1.932-1.548l-0.612,0.588C93.876,82.516,94.524,83.044,94.992,83.536z M102.204,86.284v-4.608h-5.616
			v4.608H102.204z M101.376,83.62h-3.948v-1.164h3.948V83.62z M94.644,86.584l0.612-0.611c-0.528-0.576-1.188-1.152-1.968-1.729
			l-0.612,0.588C93.516,85.456,94.164,86.032,94.644,86.584z M101.376,85.516h-3.948v-1.14h3.948V85.516z M103.452,91.912v-0.816
			h-0.673V87.28h-6.695v3.815h-0.792v0.816H103.452z M93.636,92.032c0.6-1.296,1.152-2.688,1.632-4.152l-0.756-0.288
			c-0.468,1.393-1.02,2.748-1.668,4.092L93.636,92.032z M98.088,91.096h-1.164v-3.012h1.164V91.096z M99.984,91.096h-1.115v-3.012
			h1.115V91.096z M101.952,91.096h-1.188v-3.012h1.188V91.096z M105.024,92.236c2.557-1.332,4.212-3.456,4.956-6.372
			c0.9,2.712,2.557,4.8,4.968,6.288l0.54-0.696c-2.46-1.464-4.115-3.552-4.955-6.265h4.728v-0.84h-4.98
			c0.097-0.744,0.156-1.523,0.156-2.364v-0.78h-0.888v0.972c-0.012,0.756-0.061,1.476-0.156,2.171h-4.668v0.84h4.524
			c-0.624,2.953-2.208,5.064-4.765,6.324L105.024,92.236z M121.32,92.068c0.805,0,1.213-0.396,1.213-1.176v-4.261h4.764v-0.864
			h-4.764v-3.264h3.924v-0.84h-9.013v0.84h4.212v3.264h-4.968v0.864h4.968v4.044c0,0.408-0.216,0.612-0.636,0.612
			c-0.552,0-1.14-0.024-1.752-0.048l0.18,0.828H121.32z M131.52,91.168c0.84,0,1.561-0.264,2.136-0.779
			c0.612-0.553,0.925-1.261,0.925-2.125c0-0.924-0.265-1.644-0.769-2.172c-0.504-0.516-1.164-0.768-1.979-0.768
			c-0.396,0-0.756,0.06-1.092,0.203c-0.372,0.145-0.685,0.361-0.925,0.648h-0.048l0.288-2.868h4.176v-0.876h-4.979l-0.456,4.728
			h0.936c0.168-0.336,0.433-0.6,0.769-0.768c0.324-0.181,0.684-0.265,1.092-0.265c0.624,0,1.116,0.181,1.464,0.563
			c0.36,0.373,0.552,0.9,0.552,1.584c0,0.601-0.204,1.093-0.588,1.477c-0.396,0.384-0.888,0.576-1.487,0.576
			c-0.528,0-0.973-0.133-1.309-0.385c-0.384-0.287-0.6-0.707-0.647-1.248h-0.973c0.061,0.781,0.384,1.404,0.984,1.861
			C130.116,90.964,130.764,91.168,131.52,91.168z M138.792,91.168c1.02,0,1.788-0.456,2.315-1.355
			c0.456-0.769,0.685-1.801,0.685-3.097s-0.229-2.327-0.685-3.096c-0.527-0.912-1.296-1.356-2.315-1.356
			c-1.032,0-1.8,0.444-2.316,1.356c-0.456,0.769-0.684,1.8-0.684,3.096s0.228,2.328,0.684,3.097
			C136.992,90.712,137.76,91.168,138.792,91.168z M138.792,90.328c-0.769,0-1.32-0.42-1.656-1.236c-0.24-0.588-0.36-1.38-0.36-2.376
			c0-1.008,0.12-1.8,0.36-2.376c0.336-0.828,0.888-1.236,1.656-1.236c0.768,0,1.319,0.408,1.655,1.236
			c0.24,0.576,0.372,1.368,0.372,2.376c0,0.996-0.132,1.788-0.372,2.376C140.112,89.908,139.56,90.328,138.792,90.328z"/>
	</g>
</g>
<text transform="matrix(1 0 0 1 11.5002 61)" font-family="'AdobeSongStd-Light-GBpc-EUC-H'" font-size="12">[一号锅炉]一号锅炉高温报警</text>
<text transform="matrix(1 0 0 1 11.5002 101)" font-family="'AdobeSongStd-Light-GBpc-EUC-H'" font-size="12">[二号锅炉]二号缸温大于50</text>
</svg>
