<?xml version="1.0" encoding="UTF-8"?>
<svg width="452px" height="187px" viewBox="0 0 452 187" version="1.1" xmlns="http://www.w3.org/2000/svg" xmlns:xlink="http://www.w3.org/1999/xlink">
    <title>设备状态统计</title>
    <g id="门户" stroke="none" stroke-width="1" fill="none" fill-rule="evenodd">
        <g id="编组-8" transform="translate(12.000000, 10.000000)">
            <g id="编组-2" transform="translate(221.000000, 54.000000)" fill-rule="nonzero">
                <path d="M11.93,62.614 L12.644,61.9 C11.986,61.172 11.174,60.444 10.222,59.702 L9.522,60.36 C10.544,61.172 11.342,61.914 11.93,62.614 Z M20.638,61.284 L20.638,60.36 L14.212,60.36 L14.212,61.284 L20.638,61.284 Z M20.554,70.132 L21.45,69.894 C20.862,68.242 20.19,66.772 19.434,65.484 L18.608,65.75 C19.014,66.478 19.392,67.234 19.728,68.018 C18.538,68.298 17.04,68.55 15.22,68.746 C15.836,67.906 16.522,66.492 17.292,64.504 L21.66,64.504 L21.66,63.538 L13.358,63.538 L13.358,64.504 L16.298,64.504 C15.206,67.262 14.38,68.732 13.792,68.9 L14.044,69.782 C16.536,69.544 18.552,69.25 20.092,68.886 C20.26,69.278 20.414,69.698 20.554,70.132 Z M10.11,72.428 C10.894,71.14 11.454,70.496 11.79,70.496 C11.958,70.496 12.14,70.608 12.322,70.846 C12.756,71.35 13.246,71.7 13.778,71.868 C14.338,72.022 15.066,72.106 15.948,72.12 C16.83,72.134 17.642,72.148 18.398,72.148 L21.646,72.148 L21.898,71.14 C21.52,71.168 20.988,71.182 20.316,71.196 C19.616,71.21 18.93,71.224 18.258,71.224 C17.18,71.224 16.284,71.21 15.556,71.196 C14.744,71.168 14.114,71.056 13.694,70.86 C13.302,70.678 12.952,70.384 12.616,69.978 C12.504,69.852 12.406,69.754 12.294,69.67 L12.294,64.42 L9.354,64.42 L9.354,65.344 L11.356,65.344 L11.356,69.6 C10.768,69.852 10.11,70.566 9.354,71.742 L10.11,72.428 Z M23.368,64.224 C25.104,63.034 26.364,61.662 27.148,60.108 L26.238,59.688 C25.58,61.004 24.53,62.18 23.074,63.216 L23.368,64.224 Z M35.156,61.452 L35.156,60.458 L28.45,60.458 L28.45,61.452 L35.156,61.452 Z M26.28,72.4 L26.28,65.54 C26.896,64.84 27.4,64.084 27.806,63.3 L26.896,62.88 C26.112,64.434 24.866,65.806 23.158,67.01 L23.452,68.018 C24.124,67.556 24.726,67.066 25.286,66.562 L25.286,72.4 L26.28,72.4 Z M32.146,72.344 C33.042,72.344 33.504,71.938 33.504,71.126 L33.504,65.008 L35.772,65.008 L35.772,64.014 L28.072,64.014 L28.072,65.008 L32.482,65.008 L32.482,70.874 C32.482,71.238 32.244,71.42 31.796,71.42 C31.18,71.42 30.55,71.392 29.878,71.35 L30.088,72.344 L32.146,72.344 Z" id="运行" fill-opacity="0.65" fill="#000000"></path>
                <path d="M104.636,72.4 L104.636,62.88 C105.098,61.956 105.49,60.962 105.812,59.926 L104.874,59.492 C104.272,61.648 103.306,63.58 101.99,65.26 L102.326,66.324 C102.788,65.792 103.222,65.218 103.614,64.63 L103.614,72.4 L104.636,72.4 Z M114.478,61.592 L114.478,60.696 L110.488,60.696 C110.348,60.248 110.222,59.842 110.082,59.492 L109.06,59.66 C109.214,59.982 109.354,60.332 109.48,60.696 L105.812,60.696 L105.812,61.592 L114.478,61.592 Z M113.4,65.05 L113.4,62.404 L106.736,62.404 L106.736,65.05 L113.4,65.05 Z M112.42,64.28 L107.716,64.28 L107.716,63.174 L112.42,63.174 L112.42,64.28 Z M109.494,72.302 C110.306,72.302 110.726,71.91 110.726,71.154 L110.726,68.886 L113.75,68.886 L113.75,68.256 L114.506,68.256 L114.506,65.862 L105.686,65.862 L105.686,68.256 L106.624,68.256 L106.624,68.886 L109.69,68.886 L109.69,70.902 C109.69,71.21 109.508,71.378 109.144,71.378 C108.682,71.378 108.206,71.35 107.702,71.322 L107.912,72.302 L109.494,72.302 Z M113.54,68.018 L106.666,68.018 L106.666,66.744 L113.54,66.744 L113.54,68.018 Z M128.716,71.798 L128.716,70.818 L123.634,70.818 L123.634,65.162 L127.946,65.162 L127.946,64.182 L123.634,64.182 L123.634,59.632 L122.598,59.632 L122.598,70.818 L119.672,70.818 L119.672,62.082 L118.664,62.082 L118.664,70.818 L116.284,70.818 L116.284,71.798 L128.716,71.798 Z" id="停止" fill-opacity="0.65" fill="#000000"></path>
                <path d="M11.308,38.504 C14.044,38.504 16.312,37.712 18.04,36.2 C19.66,34.688 20.488,32.744 20.488,30.368 C20.488,28.856 20.056,27.596 19.192,26.624 C18.4,25.688 17.248,24.968 15.736,24.5 C18.544,23.564 19.984,21.656 19.984,18.848 C19.984,16.652 19.192,14.924 17.68,13.664 C16.096,12.404 14.044,11.792 11.452,11.792 C8.932,11.792 6.88,12.476 5.296,13.916 C3.604,15.356 2.668,17.336 2.452,19.892 L6.304,19.892 C6.448,18.308 6.988,17.12 7.852,16.328 C8.716,15.536 9.94,15.14 11.488,15.14 C13,15.14 14.188,15.464 14.98,16.184 C15.7,16.868 16.096,17.84 16.096,19.136 C16.096,20.432 15.664,21.44 14.872,22.124 C14.08,22.808 12.892,23.168 11.308,23.168 L9.472,23.168 L9.472,26.12 L11.344,26.12 C13.036,26.12 14.332,26.48 15.196,27.2 C16.132,27.92 16.6,29.036 16.6,30.548 C16.6,31.844 16.132,32.888 15.268,33.752 C14.26,34.688 12.928,35.192 11.272,35.192 C9.76,35.192 8.536,34.76 7.6,33.896 C6.52,32.96 5.98,31.628 5.908,29.9 L1.948,29.9 C2.164,32.78 3.172,34.976 4.972,36.488 C6.556,37.82 8.68,38.504 11.308,38.504 Z M32.8,38.504 C35.824,38.504 38.164,37.208 39.82,34.688 C41.332,32.312 42.088,29.108 42.088,25.148 C42.088,21.152 41.332,17.984 39.82,15.608 C38.164,13.052 35.824,11.792 32.8,11.792 C29.776,11.792 27.436,13.052 25.78,15.608 C24.268,17.948 23.512,21.116 23.512,25.148 C23.512,29.144 24.268,32.312 25.78,34.688 C27.436,37.208 29.776,38.504 32.8,38.504 Z M32.8,35.192 C30.676,35.192 29.2,34.004 28.336,31.7 C27.688,30.08 27.4,27.884 27.4,25.148 C27.4,22.376 27.688,20.18 28.336,18.596 C29.2,16.256 30.676,15.104 32.8,15.104 C34.888,15.104 36.4,16.256 37.264,18.596 C37.876,20.18 38.2,22.376 38.2,25.148 C38.2,27.884 37.876,30.08 37.264,31.7 C36.4,34.004 34.888,35.192 32.8,35.192 Z" id="30" fill="#3E5FE8"></path>
                <path d="M123.856,38 L123.856,34.544 L111.004,34.544 C111.544,33.14 113.2,31.52 115.972,29.684 C118.528,27.956 120.292,26.588 121.3,25.544 C122.956,23.708 123.82,21.692 123.82,19.46 C123.82,17.192 123.028,15.356 121.48,13.916 C119.896,12.476 117.844,11.792 115.396,11.792 C112.66,11.792 110.428,12.692 108.772,14.564 C107.152,16.292 106.324,18.596 106.288,21.476 L110.212,21.476 C110.284,19.388 110.716,17.84 111.58,16.76 C112.408,15.644 113.632,15.104 115.252,15.104 C116.764,15.104 117.952,15.464 118.744,16.184 C119.536,16.904 119.932,17.984 119.932,19.424 C119.932,20.936 119.32,22.34 118.168,23.636 C117.448,24.392 116.224,25.364 114.496,26.588 C111.58,28.604 109.636,30.152 108.7,31.268 C106.972,33.212 106.144,35.444 106.144,38 L123.856,38 Z" id="2" fill="#FDCD61"></path>
            </g>
            <g id="Variable-segments-circle" transform="translate(76.000000, 52.000000)">
                <path d="M40.0016654,0 C54.2899594,0 67.4938541,7.62215834 74.6402232,19.9998324 C81.7865923,32.3775064 81.7865923,47.6218231 74.6402232,59.9994971 C67.4938541,72.3771712 54.2899594,79.9993295 40.0016654,79.9993295 C25.7133715,79.9993295 12.5094768,72.3771712 5.36310769,59.9994971 C-1.78326142,47.6218231 -1.78326142,32.3775064 5.36310769,19.9998324 C12.5094768,7.62215834 25.7133715,0 40.0016654,0 L40.0016654,10.6665773 C29.5221018,10.6665773 19.8380605,16.2576415 14.5982787,25.333121 C9.35849689,34.4086005 9.35849689,45.590729 14.5982787,54.6662085 C19.8380605,63.741688 29.5221018,69.3327523 40.0016654,69.3327523 C50.4812291,69.3327523 60.1652703,63.741688 65.4050521,54.6662085 C70.644834,45.590729 70.644834,34.4086005 65.4050521,25.333121 C60.1652703,16.2576415 50.4812291,10.6665773 40.0016654,10.6665773 L40.0016654,0 Z" id="Base-plate" fill-opacity="0.002" fill="#455A64"></path>
                <path d="M40.0016654,0 C54.2899594,0 67.4938541,7.62215834 74.6402232,19.9998324 C81.7865923,32.3775064 81.7865923,47.6218231 74.6402232,59.9994971 C71.8358955,64.8527898 68.0449422,69.0660878 63.5117976,72.3593936 L57.2409476,63.7327992 C65.7205946,57.5728508 70.2670719,47.3551587 69.1737841,36.9330238 C68.0804963,26.5108889 61.5029924,17.4665203 51.9300576,13.2043338 C48.1746585,11.5332367 44.1126054,10.6665773 40.0016654,10.6665773 L40.0016654,0 Z" id="Segment-40" fill="#1F7BFC"></path>
                <path d="M63.5117976,72.3593936 C51.9522789,80.7593232 36.7840216,82.3548653 23.7312318,76.5415807 C13.3761074,71.9327305 5.4608814,63.141693 1.95880499,52.3595612 L12.1050492,49.0662554 C15.3449143,59.0350608 23.6556794,66.5149981 33.9041415,68.6927576 C42.0371362,70.421632 50.5167832,68.6172027 57.2409476,63.7327992 L63.5117976,72.3593936 Z" id="Segment-30" fill="#1F7BFC"></path>
                <path d="M1.95880499,52.3595612 C-2.45878885,38.768564 0.71441236,23.8575778 10.2784586,13.2354446 C12.1494918,11.1599065 14.2294052,9.28436663 16.4915332,7.63993597 L22.7623832,16.2665303 C14.2827363,22.4264787 9.73625894,32.6441709 10.8295467,43.0663057 C11.0428712,45.1062886 11.4695201,47.1151607 12.1050492,49.0662554 L1.95880499,52.3595612 Z" id="Segment-20" fill="#FDCD61"></path>
                <path d="M16.4915332,7.63993597 C23.3268042,2.67553313 31.5531283,0 40.0016654,0 L40.0016654,10.6665773 C33.8063678,10.6665773 27.7755078,12.6265608 22.7623832,16.2665303 L16.4915332,7.63993597 Z" id="Segment-10" fill="#FDCD61"></path>
            </g>
            <path d="M4.24,7.496 L5.28,6.44 C4.576,5.672 3.728,4.888 2.704,4.12 L1.664,5.112 C2.768,5.944 3.632,6.744 4.24,7.496 Z M6.464,10.184 C8.144,9.272 8.992,7.976 8.992,6.312 L8.992,5.832 L11.648,5.832 L11.648,8.104 C11.648,9.16 12.208,9.704 13.344,9.704 L15.152,9.704 L15.152,8.312 L13.744,8.312 C13.344,8.312 13.152,8.12 13.152,7.768 L13.152,4.408 L7.488,4.408 L7.488,6.472 C7.488,7.56 6.8,8.408 5.456,9.016 L6.464,10.184 Z M2.944,18.184 C4.112,17.432 5.216,16.568 6.256,15.608 L5.84,14.008 C5.264,14.552 4.736,15.032 4.24,15.448 L4.24,8.68 L0.656,8.68 L0.656,10.136 L2.768,10.136 L2.768,15.96 C2.768,16.296 2.624,16.584 2.368,16.808 L2.944,18.184 Z M14.72,18.744 L15.536,17.432 C14.096,16.92 12.848,16.312 11.824,15.64 C12.896,14.616 13.664,13.4 14.128,11.976 L14.128,10.584 L6.368,10.584 L6.368,12.056 L7.28,12.056 C7.664,13.336 8.416,14.504 9.504,15.56 C8.352,16.328 6.928,16.952 5.232,17.448 L6.08,18.728 C7.904,18.184 9.456,17.464 10.704,16.568 C11.792,17.368 13.12,18.104 14.72,18.744 Z M10.592,14.712 C9.696,13.912 9.072,13.032 8.704,12.056 L12.592,12.056 C12.128,13.048 11.456,13.928 10.592,14.712 Z M20.272,18.648 L20.272,18.04 L27.76,18.04 L27.76,18.648 L29.2,18.648 L29.2,11.496 L19.12,11.496 C20.96,11.08 22.608,10.504 24.064,9.8 C25.92,10.696 28.128,11.352 30.704,11.736 L31.36,10.392 C29.136,10.104 27.184,9.624 25.52,8.984 C26.816,8.152 27.936,7.176 28.864,6.056 L28.864,4.904 L22.576,4.904 C22.768,4.616 22.976,4.328 23.184,4.024 L21.68,3.688 C20.464,5.4 19.008,6.728 17.328,7.688 L18.304,8.872 C19.056,8.392 19.76,7.864 20.432,7.256 C21.056,7.88 21.776,8.456 22.608,8.984 C20.88,9.704 18.896,10.216 16.64,10.52 L17.296,11.848 C17.808,11.768 18.32,11.672 18.832,11.56 L18.832,18.648 L20.272,18.648 Z M24.032,8.312 C22.992,7.768 22.096,7.128 21.328,6.392 L21.488,6.232 L26.944,6.232 C26.112,7.016 25.136,7.704 24.032,8.312 Z M23.28,14.136 L20.272,14.136 L20.272,12.76 L23.28,12.76 L23.28,14.136 Z M27.76,14.136 L24.72,14.136 L24.72,12.76 L27.76,12.76 L27.76,14.136 Z M23.28,16.76 L20.272,16.76 L20.272,15.352 L23.28,15.352 L23.28,16.76 Z M27.76,16.76 L24.72,16.76 L24.72,15.352 L27.76,15.352 L27.76,16.76 Z M38.976,18.632 C40.64,16.84 41.84,14.6 42.56,11.896 C43.248,14.536 44.544,16.76 46.432,18.584 L47.472,17.432 C45.36,15.544 43.952,12.904 43.248,9.512 L46.896,9.512 L46.896,8.056 L43.12,8.056 C43.152,6.424 43.168,5.048 43.168,3.928 L41.68,3.928 C41.68,4.888 41.648,6.264 41.6,8.056 L38.448,8.056 L38.448,9.512 L41.504,9.512 C41.168,12.504 39.984,15.16 37.952,17.496 L38.976,18.632 Z M37.616,18.6 L37.616,3.976 L36.128,3.976 L36.128,11.576 C35.072,12.664 33.888,13.64 32.592,14.504 L33.072,16.088 C34.192,15.24 35.2,14.328 36.128,13.352 L36.128,18.6 L37.616,18.6 Z M45.648,7.464 L46.848,6.632 C46.4,5.928 45.776,5.128 44.944,4.2 L43.76,4.92 C44.56,5.848 45.184,6.696 45.648,7.464 Z M34.352,10.216 L35.68,9.608 C35.248,8.168 34.752,6.824 34.176,5.56 L32.736,6.04 C33.328,7.24 33.872,8.632 34.352,10.216 Z M55.744,12.104 L56.8,11.048 C55.984,10.328 55.248,9.736 54.592,9.256 L54.64,9.208 C55.2,8.536 55.664,7.768 56.016,6.888 L56.08,6.888 C56.864,9.016 59.008,10.712 62.528,11.992 L63.328,10.68 C60.288,9.752 58.384,8.488 57.616,6.888 L62.496,6.888 L62.496,5.432 L56.464,5.432 C56.576,4.952 56.672,4.44 56.736,3.88 L55.216,3.72 C55.152,4.328 55.04,4.888 54.896,5.432 L49.36,5.432 L49.36,6.888 L54.336,6.888 C54.08,7.384 53.76,7.832 53.392,8.232 C52.4,9.272 50.8,10.072 48.56,10.632 L49.152,12.04 C51.04,11.544 52.512,10.904 53.6,10.136 C54.352,10.744 55.072,11.4 55.744,12.104 Z M56.592,15.832 L57.984,15.208 C57.568,14.264 57.088,13.384 56.528,12.584 L55.2,13.016 C55.696,13.816 56.16,14.76 56.592,15.832 Z M61.92,17.368 L63.312,16.744 C62.752,15.384 62.096,14.12 61.344,12.936 L59.888,13.4 C60.624,14.552 61.312,15.864 61.92,17.368 Z M58.256,18.312 C58.88,18.312 59.344,18.168 59.648,17.896 C60,17.608 60.224,16.744 60.352,15.272 L58.912,14.808 C58.848,15.8 58.736,16.376 58.576,16.552 C58.448,16.744 58.256,16.84 57.968,16.84 L54.64,16.84 C54.192,16.84 53.984,16.616 53.984,16.184 L53.984,13.144 L52.448,13.144 L52.448,16.488 C52.448,17.704 53.008,18.312 54.16,18.312 L58.256,18.312 Z M50.016,17.848 C50.688,16.632 51.216,15.192 51.6,13.528 L50.112,13.192 C49.824,14.568 49.36,15.848 48.704,17.032 L50.016,17.848 Z M77.696,11.464 L78.88,10.648 C78.304,9.624 77.488,8.424 76.432,7.064 L75.28,7.784 C75.6,8.216 75.92,8.648 76.24,9.096 C74.96,9.288 73.664,9.448 72.368,9.576 C72.848,8.936 73.392,8.056 74,6.904 L78.864,6.904 L78.864,5.448 L75.36,5.448 C75.168,4.824 74.96,4.264 74.752,3.752 L73.2,4.008 C73.424,4.456 73.632,4.936 73.824,5.448 L69.936,5.448 L69.936,6.904 L72.416,6.904 C71.664,8.344 71.04,9.256 70.56,9.608 C70.496,9.64 70.384,9.688 70.256,9.72 L70.592,11.064 C72.912,10.888 75.072,10.648 77.056,10.344 C77.28,10.728 77.504,11.096 77.696,11.464 Z M65.184,14.792 C66.736,14.536 68.384,14.056 70.112,13.336 L70.112,11.944 C69.088,12.392 68.08,12.744 67.088,13.016 C67.968,11.864 69.04,10.072 70.32,7.64 L68.96,7.128 C68.672,7.72 68.384,8.28 68.112,8.792 C67.568,8.888 67.024,8.968 66.48,9.032 C67.248,7.848 68.016,6.296 68.784,4.392 L67.328,3.816 C66.752,5.56 66.08,7.144 65.312,8.568 C65.12,8.856 64.896,9.064 64.656,9.16 L65.04,10.552 C65.84,10.44 66.608,10.328 67.344,10.2 C66.592,11.496 65.968,12.408 65.472,12.936 C65.28,13.112 65.056,13.256 64.784,13.384 L65.184,14.792 Z M77.632,18.36 C78.368,18.296 78.864,18.12 79.088,17.8 C79.312,17.448 79.44,16.52 79.44,14.984 L78.128,14.52 C78.128,15.32 78.096,15.944 78.048,16.376 C78.016,16.76 77.84,16.968 77.552,17 L76.656,17 C76.464,16.968 76.368,16.808 76.368,16.552 L76.368,11.384 L74.912,11.384 L74.912,16.84 C74.912,17.848 75.472,18.36 76.608,18.36 L77.632,18.36 Z M70.176,18.616 C71.264,17.88 72.032,17.016 72.496,16.024 C72.912,15.08 73.168,13.592 73.248,11.56 L71.776,11.56 C71.712,13.32 71.504,14.584 71.136,15.352 C70.752,16.152 70.112,16.84 69.216,17.416 L70.176,18.616 Z M65.136,17.992 C66.992,17.544 68.656,16.936 70.112,16.2 L70.112,14.744 C68.64,15.464 66.912,16.04 64.96,16.472 L65.136,17.992 Z M91.44,18.68 L91.44,10.056 L95.408,10.056 L95.408,8.552 L91.44,8.552 L91.44,3.864 L89.872,3.864 L89.872,8.552 L85.68,8.552 L85.68,10.056 L89.872,10.056 L89.872,18.68 L91.44,18.68 Z M84.368,7.432 L85.408,6.376 C84.688,5.576 83.808,4.792 82.768,4.008 L81.712,5.048 C82.848,5.88 83.728,6.68 84.368,7.432 Z M83.056,18.168 C84.224,17.416 85.328,16.552 86.352,15.592 L85.952,14.04 C85.392,14.568 84.864,15.048 84.352,15.464 L84.352,8.648 L80.656,8.648 L80.656,10.104 L82.896,10.104 L82.896,15.992 C82.896,16.312 82.752,16.584 82.48,16.808 L83.056,18.168 Z" id="设备状态统计" fill-opacity="0.85" fill="#000000" fill-rule="nonzero"></path>
        </g>
    </g>
</svg>