<?xml version="1.0" encoding="UTF-8"?>
<svg width="452px" height="187px" viewBox="0 0 452 187" version="1.1" xmlns="http://www.w3.org/2000/svg" xmlns:xlink="http://www.w3.org/1999/xlink">
    <title>维保任务</title>
    <g id="门户" stroke="none" stroke-width="1" fill="none" fill-rule="evenodd">
        <g id="编组-8" transform="translate(12.000000, 10.000000)">
            <g id="Pagination/Default/Large/Normal备份-2" transform="translate(99.000000, 124.000000)">
                <g id="编组" transform="translate(26.000000, 1.000000)">
                    <path d="M0,1.00246167 C0,0.448817378 0.43945834,0 1.00246167,0 L20.9975383,0 C21.5511826,0 22,0.43945834 22,1.00246167 L22,20.9975383 C22,21.5511826 21.5605417,22 20.9975383,22 L1.00246167,22 C0.448817378,22 0,21.5605417 0,20.9975383 L0,1.00246167 Z" id="Rectangle-3-Copy-35" stroke="#1F7BFC"></path>
                    <path d="M12.768,15 L12.768,6.432 L11.784,6.432 C11.496,6.744 11.136,7.02 10.704,7.284 C10.272,7.524 9.876,7.692 9.492,7.788 L9.492,9.084 C10.284,8.856 10.944,8.496 11.46,8.004 L11.46,15 L12.768,15 Z" id="1" fill="#3081F2" fill-rule="nonzero"></path>
                </g>
                <g id="编组-2" transform="translate(52.000000, 1.000000)">
                    <path d="M0,1.991155 C0,0.891470458 0.889673948,0 1.991155,0 L20.008845,0 C21.1085295,0 22,0.889673948 22,1.991155 L22,20.008845 C22,21.1085295 21.1103261,22 20.008845,22 L1.991155,22 C0.891470458,22 0,21.1103261 0,20.008845 L0,1.991155 Z" id="Rectangle-3-Copy-35备份"></path>
                    <path d="M13.456,15 L13.456,14.124 L8.956,14.124 C9.112,13.548 9.736,12.888 10.828,12.156 C11.716,11.556 12.304,11.088 12.604,10.776 C13.156,10.176 13.444,9.504 13.444,8.76 C13.444,8.016 13.18,7.404 12.676,6.948 C12.16,6.492 11.512,6.264 10.72,6.264 C9.856,6.264 9.148,6.552 8.62,7.128 C8.092,7.692 7.816,8.46 7.816,9.42 L8.8,9.42 C8.812,8.664 8.992,8.088 9.328,7.704 C9.64,7.296 10.096,7.104 10.684,7.104 C11.236,7.104 11.68,7.248 11.992,7.536 C12.304,7.824 12.46,8.22 12.46,8.748 C12.46,9.3 12.232,9.816 11.8,10.284 C11.572,10.524 11.128,10.872 10.456,11.352 C9.544,11.976 8.932,12.492 8.596,12.876 C8.02,13.512 7.744,14.22 7.744,15 L13.456,15 Z" id="2" fill-opacity="0.85" fill="#000000" fill-rule="nonzero"></path>
                </g>
                <g id="编组-4" transform="translate(78.000000, 1.000000)">
                    <path d="M0,1.991155 C0,0.891470458 0.889673948,0 1.991155,0 L20.008845,0 C21.1085295,0 22,0.889673948 22,1.991155 L22,20.008845 C22,21.1085295 21.1103261,22 20.008845,22 L1.991155,22 C0.891470458,22 0,21.1103261 0,20.008845 L0,1.991155 Z" id="Rectangle-3-Copy-35备份-2"></path>
                    <path d="M10.624,15.168 C11.512,15.168 12.232,14.916 12.784,14.412 C13.324,13.92 13.6,13.284 13.6,12.504 C13.6,12 13.456,11.58 13.168,11.244 C12.904,10.908 12.52,10.668 12.016,10.512 C12.952,10.2 13.42,9.552 13.42,8.592 C13.42,7.872 13.168,7.308 12.676,6.888 C12.172,6.468 11.5,6.264 10.684,6.264 C9.868,6.264 9.208,6.492 8.704,6.96 C8.176,7.428 7.864,8.076 7.792,8.904 L8.764,8.904 C8.824,8.328 9.016,7.884 9.352,7.572 C9.676,7.26 10.12,7.116 10.696,7.116 C11.248,7.116 11.692,7.248 12.004,7.536 C12.292,7.8 12.448,8.172 12.448,8.652 C12.448,9.132 12.292,9.504 11.992,9.768 C11.692,10.02 11.26,10.152 10.684,10.152 L10.024,10.152 L10.024,10.92 L10.72,10.92 C11.32,10.92 11.776,11.052 12.112,11.34 C12.448,11.628 12.616,12.024 12.616,12.54 C12.616,13.044 12.436,13.464 12.1,13.8 C11.728,14.148 11.236,14.328 10.624,14.328 C10.084,14.328 9.64,14.172 9.28,13.884 C8.86,13.536 8.632,13.02 8.608,12.348 L7.612,12.348 C7.684,13.308 8.02,14.04 8.632,14.544 C9.148,14.952 9.808,15.168 10.624,15.168 Z" id="3" fill-opacity="0.85" fill="#000000" fill-rule="nonzero"></path>
                </g>
                <g id="编组-5" transform="translate(104.000000, 1.000000)">
                    <path d="M0,1.991155 C0,0.891470458 0.889673948,0 1.991155,0 L20.008845,0 C21.1085295,0 22,0.889673948 22,1.991155 L22,20.008845 C22,21.1085295 21.1103261,22 20.008845,22 L1.991155,22 C0.891470458,22 0,21.1103261 0,20.008845 L0,1.991155 Z" id="Rectangle-3-Copy-35备份-3"></path>
                    <path d="M12.532,15 L12.532,13.056 L13.924,13.056 L13.924,12.252 L12.532,12.252 L12.532,6.432 L11.608,6.432 L7.288,12.12 L7.288,13.056 L11.596,13.056 L11.596,15 L12.532,15 Z M11.596,12.252 L8.116,12.252 L11.56,7.716 L11.596,7.716 L11.596,12.252 Z" id="4" fill-opacity="0.85" fill="#000000" fill-rule="nonzero"></path>
                </g>
                <g id="编组-7" transform="translate(130.000000, 1.000000)">
                    <path d="M0,1.991155 C0,0.891470458 0.889673948,0 1.991155,0 L20.008845,0 C21.1085295,0 22,0.889673948 22,1.991155 L22,20.008845 C22,21.1085295 21.1103261,22 20.008845,22 L1.991155,22 C0.891470458,22 0,21.1103261 0,20.008845 L0,1.991155 Z" id="Rectangle-3-Copy-35备份-4"></path>
                    <path d="M10.528,15.168 C11.368,15.168 12.088,14.904 12.664,14.388 C13.276,13.836 13.588,13.128 13.588,12.264 C13.588,11.34 13.324,10.62 12.82,10.092 C12.316,9.576 11.656,9.324 10.84,9.324 C10.444,9.324 10.084,9.384 9.748,9.528 C9.376,9.672 9.064,9.888 8.824,10.176 L8.776,10.176 L9.064,7.308 L13.24,7.308 L13.24,6.432 L8.26,6.432 L7.804,11.16 L8.74,11.16 C8.908,10.824 9.172,10.56 9.508,10.392 C9.832,10.212 10.192,10.128 10.6,10.128 C11.224,10.128 11.716,10.308 12.064,10.692 C12.424,11.064 12.616,11.592 12.616,12.276 C12.616,12.876 12.412,13.368 12.028,13.752 C11.632,14.136 11.14,14.328 10.54,14.328 C10.012,14.328 9.568,14.196 9.232,13.944 C8.848,13.656 8.632,13.236 8.584,12.696 L7.612,12.696 C7.672,13.476 7.996,14.1 8.596,14.556 C9.124,14.964 9.772,15.168 10.528,15.168 Z" id="5" fill-opacity="0.85" fill="#000000" fill-rule="nonzero"></path>
                </g>
                <g id="编组-8" transform="translate(156.000000, 0.000000)">
                    <path d="M0,3.991155 C0,2.89147046 0.889673948,2 1.991155,2 L20.008845,2 C21.1085295,2 22,2.88967395 22,3.991155 L22,22.008845 C22,23.1085295 21.1103261,24 20.008845,24 L1.991155,24 C0.891470458,24 0,23.1103261 0,22.008845 L0,3.991155 Z" id="Rectangle-3-Copy-35备份-5"></path>
                    <g id="…-copy-2" transform="translate(5.000000, 0.000000)" fill="#000000" fill-opacity="0.85" fill-rule="nonzero">
                        <path d="M1.992,13 C2.196,13 2.376,12.928 2.52,12.796 C2.652,12.664 2.724,12.496 2.724,12.28 C2.724,12.076 2.652,11.908 2.52,11.776 C2.376,11.632 2.208,11.572 1.992,11.572 C1.788,11.572 1.62,11.632 1.488,11.776 C1.344,11.908 1.272,12.076 1.272,12.28 C1.272,12.484 1.344,12.652 1.488,12.796 C1.62,12.928 1.788,13 1.992,13 Z M6,13 C6.204,13 6.384,12.928 6.528,12.796 C6.66,12.664 6.732,12.496 6.732,12.28 C6.732,12.076 6.66,11.908 6.528,11.776 C6.384,11.632 6.204,11.572 6,11.572 C5.796,11.572 5.628,11.632 5.484,11.776 C5.34,11.908 5.28,12.076 5.28,12.28 C5.28,12.484 5.34,12.652 5.484,12.796 C5.628,12.928 5.796,13 6,13 Z M9.996,13 C10.2,13 10.368,12.928 10.512,12.796 C10.656,12.664 10.728,12.496 10.728,12.28 C10.728,12.076 10.656,11.908 10.512,11.776 C10.368,11.632 10.2,11.572 9.996,11.572 C9.792,11.572 9.624,11.632 9.48,11.776 C9.336,11.908 9.276,12.076 9.276,12.28 C9.276,12.484 9.336,12.652 9.48,12.796 C9.624,12.928 9.792,13 9.996,13 Z" id="…"></path>
                    </g>
                </g>
                <g id="编组-9" transform="translate(182.000000, 1.000000)">
                    <path d="M0,1.991155 C0,0.891470458 0.889673948,0 1.991155,0 L20.008845,0 C21.1085295,0 22,0.889673948 22,1.991155 L22,20.008845 C22,21.1085295 21.1103261,22 20.008845,22 L1.991155,22 C0.891470458,22 0,21.1103261 0,20.008845 L0,1.991155 Z" id="Rectangle-3-Copy-35备份-6"></path>
                    <path d="M10.492,15.168 C11.452,15.168 12.22,14.712 12.796,13.824 C13.324,12.96 13.6,11.856 13.6,10.488 C13.6,9.168 13.348,8.136 12.844,7.416 C12.316,6.648 11.536,6.264 10.504,6.264 C9.664,6.264 8.968,6.54 8.428,7.104 C7.876,7.656 7.612,8.352 7.612,9.204 C7.612,10.032 7.852,10.704 8.344,11.22 C8.848,11.76 9.508,12.036 10.336,12.036 C10.84,12.036 11.284,11.904 11.668,11.664 C12.064,11.412 12.376,11.064 12.592,10.632 L12.64,10.632 C12.64,10.776 12.652,10.884 12.652,10.944 C12.652,11.904 12.46,12.708 12.088,13.344 C11.692,14.004 11.164,14.34 10.504,14.34 C9.496,14.34 8.908,13.848 8.728,12.876 L7.756,12.876 C7.984,14.4 8.896,15.168 10.492,15.168 Z M10.528,11.22 C9.928,11.22 9.46,11.028 9.112,10.656 C8.752,10.296 8.584,9.804 8.584,9.204 C8.584,8.58 8.752,8.076 9.112,7.68 C9.472,7.284 9.94,7.092 10.528,7.092 C11.116,7.092 11.596,7.296 11.956,7.704 C12.304,8.088 12.484,8.58 12.484,9.18 C12.484,9.768 12.292,10.26 11.932,10.644 C11.548,11.028 11.08,11.22 10.528,11.22 Z" id="9" fill-opacity="0.85" fill="#000000" fill-rule="nonzero"></path>
                </g>
                <g id="编组-10" transform="translate(0.000000, 1.000000)">
                    <path d="M0,1.991155 C0,0.891470458 0.889673948,0 1.991155,0 L20.008845,0 C21.1085295,0 22,0.889673948 22,1.991155 L22,20.008845 C22,21.1085295 21.1103261,22 20.008845,22 L1.991155,22 C0.891470458,22 0,21.1103261 0,20.008845 L0,1.991155 Z" id="Rectangle-3-Copy-35备份-7"></path>
                    <g id="Group-Copy-22" transform="translate(7.000000, 7.000000)">
                        <rect id="Rectangle" x="0" y="0" width="8" height="8"></rect>
                        <path d="M3.74390307,6.00327154 C3.6520597,6.00348723 3.5673648,5.96862283 3.50591649,5.90037756 L3.50591649,5.90037756 L0.467086235,2.52541465 C0.351601664,2.39715604 0.361957068,2.19956315 0.490215679,2.08407858 C0.61847429,1.96859401 0.81606718,1.97894941 0.931551751,2.10720802 L0.931551751,2.10720802 L3.74981633,5.23680867 L6.56841649,2.10720802 C6.68390106,1.97894941 6.88149395,1.96859401 7.00975256,2.08407858 C7.13801118,2.19956315 7.14836658,2.39715604 7.03288201,2.52541465 L3.99405175,5.90037756 C3.93267025,5.96854863 3.84809268,6.00341138 3.76305895,6.00377406 C3.76076633,6.00297801 3.75841623,6.00313802 3.75606517,6.00327154 L3.74390307,6.00327154 L3.74390307,6.00327154 Z" id="down" fill="#595959" transform="translate(3.749984, 4.003793) rotate(90.000000) translate(-3.749984, -4.003793) "></path>
                    </g>
                </g>
                <g id="编组-10备份" transform="translate(219.000000, 12.000000) scale(-1, 1) translate(-219.000000, -12.000000) translate(208.000000, 1.000000)">
                    <path d="M0,1.991155 C0,0.891470458 0.889673948,0 1.991155,0 L20.008845,0 C21.1085295,0 22,0.889673948 22,1.991155 L22,20.008845 C22,21.1085295 21.1103261,22 20.008845,22 L1.991155,22 C0.891470458,22 0,21.1103261 0,20.008845 L0,1.991155 Z" id="Rectangle-3-Copy-35备份-7"></path>
                    <g id="Group-Copy-22" transform="translate(7.000000, 7.000000)">
                        <rect id="Rectangle" x="0" y="0" width="8" height="8"></rect>
                        <path d="M3.74390307,6.00327154 C3.6520597,6.00348723 3.5673648,5.96862283 3.50591649,5.90037756 L3.50591649,5.90037756 L0.467086235,2.52541465 C0.351601664,2.39715604 0.361957068,2.19956315 0.490215679,2.08407858 C0.61847429,1.96859401 0.81606718,1.97894941 0.931551751,2.10720802 L0.931551751,2.10720802 L3.74981633,5.23680867 L6.56841649,2.10720802 C6.68390106,1.97894941 6.88149395,1.96859401 7.00975256,2.08407858 C7.13801118,2.19956315 7.14836658,2.39715604 7.03288201,2.52541465 L3.99405175,5.90037756 C3.93267025,5.96854863 3.84809268,6.00341138 3.76305895,6.00377406 C3.76076633,6.00297801 3.75841623,6.00313802 3.75606517,6.00327154 L3.74390307,6.00327154 L3.74390307,6.00327154 Z" id="down" fill="#595959" transform="translate(3.749984, 4.003793) rotate(90.000000) translate(-3.749984, -4.003793) "></path>
                    </g>
                </g>
            </g>
            <path d="M1.376,14.776 C2.816,14.536 4.352,14.088 5.952,13.432 L5.952,12.04 C4.992,12.456 4.064,12.792 3.152,13.048 C3.984,11.864 4.992,9.992 6.208,7.448 L4.88,6.952 C4.576,7.608 4.288,8.232 4.032,8.808 C3.52,8.904 3.008,8.968 2.496,9.032 C3.232,7.832 3.936,6.28 4.64,4.376 L3.184,3.8 C2.656,5.56 2.048,7.16 1.36,8.6 C1.168,8.872 0.96,9.064 0.72,9.16 L1.104,10.552 C1.888,10.424 2.64,10.312 3.36,10.2 C2.688,11.512 2.112,12.424 1.664,12.968 C1.472,13.144 1.248,13.288 0.976,13.4 L1.376,14.776 Z M8.768,18.616 L8.768,17.784 L15.424,17.784 L15.424,16.376 L12.72,16.376 L12.72,14.328 L14.832,14.328 L14.832,12.936 L12.72,12.936 L12.72,11.144 L14.832,11.144 L14.832,9.752 L12.72,9.752 L12.72,7.928 L15.104,7.928 L15.104,6.488 L12.8,6.488 C12.608,5.688 12.32,4.808 11.968,3.832 L10.496,4.232 C10.816,4.952 11.104,5.704 11.36,6.488 L8.88,6.488 C9.168,5.752 9.408,5 9.6,4.216 L8.16,3.928 C7.664,6.088 6.816,8.088 5.616,9.912 L6.08,11.448 C6.528,10.872 6.928,10.28 7.312,9.672 L7.312,18.616 L8.768,18.616 Z M11.264,9.752 L8.768,9.752 L8.768,7.928 L11.264,7.928 L11.264,9.752 Z M11.264,12.936 L8.768,12.936 L8.768,11.144 L11.264,11.144 L11.264,12.936 Z M11.264,16.376 L8.768,16.376 L8.768,14.328 L11.264,14.328 L11.264,16.376 Z M0.928,18.12 C2.944,17.752 4.736,17.272 6.304,16.68 L6.304,15.224 C4.72,15.8 2.864,16.264 0.736,16.6 L0.928,18.12 Z M19.984,18.68 L19.984,7.736 C20.56,6.68 21.024,5.576 21.392,4.408 L19.952,3.752 C19.2,6.216 18.032,8.376 16.464,10.232 L16.96,11.848 C17.488,11.288 17.984,10.712 18.448,10.104 L18.448,18.68 L19.984,18.68 Z M26.672,18.648 L26.672,12.728 L26.8,12.728 C27.776,14.776 28.992,16.472 30.464,17.848 L31.456,16.52 C30,15.432 28.864,14.168 28.032,12.728 L31.152,12.728 L31.152,11.256 L26.672,11.256 L26.672,9.848 L29.808,9.848 L29.808,4.536 L22.064,4.536 L22.064,9.848 L25.168,9.848 L25.168,11.256 L20.848,11.256 L20.848,12.728 L23.808,12.728 C22.912,14.28 21.792,15.528 20.416,16.488 L21.28,17.864 C22.768,16.632 24.016,14.92 25.024,12.728 L25.168,12.728 L25.168,18.648 L26.672,18.648 Z M28.304,8.392 L23.568,8.392 L23.568,5.992 L28.304,5.992 L28.304,8.392 Z M35.968,18.68 L35.968,8.024 C36.624,6.92 37.152,5.752 37.568,4.536 L36.144,3.88 C35.36,6.28 34.144,8.392 32.48,10.2 L32.976,11.816 C33.504,11.272 34,10.728 34.464,10.168 L34.464,18.68 L35.968,18.68 Z M46.512,18.104 L46.512,16.616 L42.784,16.616 L42.784,12.04 L47.312,12.04 L47.312,10.552 L42.784,10.552 L42.784,6.472 C44.256,6.28 45.568,6.008 46.688,5.624 L45.936,4.344 C43.696,4.984 40.944,5.304 37.664,5.304 L38.144,6.728 C39.232,6.728 40.272,6.68 41.264,6.616 L41.264,10.552 L36.752,10.552 L36.752,12.04 L41.264,12.04 L41.264,16.616 L37.552,16.616 L37.552,18.104 L46.512,18.104 Z M49.328,11.944 C51.856,11.56 54.096,10.936 56.016,10.072 C58,11.016 60.24,11.624 62.72,11.912 L63.408,10.488 C61.296,10.296 59.392,9.864 57.68,9.224 C59.04,8.424 60.208,7.464 61.168,6.36 L61.168,5.128 L54.32,5.128 C54.512,4.792 54.688,4.424 54.848,4.04 L53.296,3.816 C52.64,5.368 51.376,6.68 49.504,7.752 L50.432,8.968 C51.088,8.568 51.68,8.136 52.224,7.672 C52.88,8.216 53.584,8.728 54.352,9.176 C52.688,9.8 50.768,10.248 48.624,10.52 L49.328,11.944 Z M56,8.472 C54.992,7.96 54.064,7.352 53.232,6.664 C53.248,6.632 53.28,6.6 53.328,6.552 L58.944,6.552 C58.08,7.288 57.104,7.928 56,8.472 Z M49.76,18.696 C52.72,17.752 54.592,16.568 55.392,15.128 C55.584,14.792 55.744,14.424 55.888,14.04 L60.224,14.04 C60.176,15.448 60.048,16.328 59.84,16.664 C59.632,16.984 59.12,17.16 58.304,17.176 C57.792,17.144 57.12,17.112 56.288,17.08 L56.672,18.456 C57.44,18.504 58.112,18.536 58.656,18.536 C59.776,18.536 60.576,18.248 61.024,17.704 C61.472,17.16 61.712,15.48 61.744,12.68 L56.224,12.68 C56.304,12.168 56.352,11.624 56.352,11.048 L54.848,11.048 C54.848,11.624 54.784,12.168 54.688,12.68 L49.728,12.68 L49.728,14.04 L54.224,14.04 C54.128,14.248 54,14.456 53.872,14.664 C53.072,15.768 51.36,16.696 48.752,17.464 L49.76,18.696 Z" id="维保任务" fill-opacity="0.85" fill="#000000" fill-rule="nonzero"></path>
            <path d="M3.468,52.284 L3.468,51.48 L1.416,51.48 L1.416,41.88 L3.468,41.88 L3.468,41.076 L0.528,41.076 L0.528,52.284 L3.468,52.284 Z M8.592,51.168 C9.876,51.168 10.896,50.736 11.64,49.884 C12.336,49.068 12.696,48.024 12.696,46.728 C12.696,45.42 12.336,44.364 11.64,43.548 C10.896,42.684 9.876,42.264 8.604,42.264 C7.308,42.264 6.3,42.696 5.556,43.56 C4.848,44.376 4.5,45.432 4.5,46.728 C4.5,48.012 4.848,49.068 5.556,49.884 C6.3,50.736 7.308,51.168 8.592,51.168 Z M8.592,50.292 C7.608,50.292 6.828,49.956 6.276,49.284 C5.748,48.636 5.484,47.784 5.484,46.728 C5.484,45.66 5.748,44.808 6.276,44.16 C6.84,43.476 7.62,43.14 8.604,43.14 C9.588,43.14 10.356,43.464 10.908,44.124 C11.436,44.772 11.712,45.636 11.712,46.728 C11.712,47.808 11.436,48.66 10.908,49.308 C10.356,49.956 9.576,50.292 8.592,50.292 Z M17.868,51 C18.744,51 19.44,50.82 19.944,50.484 C20.532,50.076 20.832,49.452 20.832,48.612 C20.832,48.036 20.664,47.58 20.352,47.22 C20.04,46.86 19.608,46.62 19.044,46.524 C19.476,46.38 19.824,46.152 20.088,45.84 C20.34,45.492 20.472,45.072 20.472,44.592 C20.472,43.92 20.244,43.392 19.788,43.008 C19.32,42.624 18.684,42.432 17.892,42.432 L14.064,42.432 L14.064,51 L17.868,51 Z M17.652,46.176 L15.048,46.176 L15.048,43.26 L17.664,43.26 C18.264,43.26 18.72,43.368 19.032,43.608 C19.344,43.848 19.5,44.208 19.5,44.688 C19.5,45.18 19.332,45.552 19.02,45.804 C18.708,46.044 18.252,46.176 17.652,46.176 Z M17.784,50.172 L15.048,50.172 L15.048,46.992 L17.784,46.992 C18.444,46.992 18.948,47.112 19.296,47.376 C19.656,47.64 19.848,48.048 19.848,48.6 C19.848,49.152 19.632,49.572 19.212,49.836 C18.852,50.052 18.384,50.172 17.784,50.172 Z M24.024,51.168 C24.972,51.168 25.668,50.904 26.1,50.376 C26.484,49.896 26.676,49.2 26.676,48.264 L26.676,42.432 L25.692,42.432 L25.692,48.228 C25.692,48.936 25.56,49.452 25.308,49.776 C25.044,50.112 24.624,50.292 24.048,50.292 C23.004,50.292 22.488,49.704 22.488,48.552 L22.488,48.264 L21.504,48.264 L21.504,48.564 C21.504,49.404 21.72,50.052 22.176,50.508 C22.608,50.94 23.22,51.168 24.024,51.168 Z M31.056,51 L31.056,42.432 L30.288,42.432 C30,42.756 29.664,43.044 29.256,43.308 C28.848,43.548 28.44,43.716 28.056,43.824 L28.056,44.808 C28.86,44.568 29.532,44.184 30.072,43.632 L30.072,51 L31.056,51 Z M35.94,51.168 C36.96,51.168 37.728,50.712 38.256,49.812 C38.712,49.044 38.94,48.012 38.94,46.716 C38.94,45.42 38.712,44.388 38.256,43.62 C37.728,42.708 36.96,42.264 35.94,42.264 C34.908,42.264 34.14,42.708 33.624,43.62 C33.168,44.388 32.94,45.42 32.94,46.716 C32.94,48.012 33.168,49.044 33.624,49.812 C34.14,50.712 34.908,51.168 35.94,51.168 Z M35.94,50.328 C35.172,50.328 34.62,49.908 34.284,49.092 C34.044,48.504 33.924,47.712 33.924,46.716 C33.924,45.708 34.044,44.916 34.284,44.34 C34.62,43.512 35.172,43.104 35.94,43.104 C36.708,43.104 37.26,43.512 37.596,44.34 C37.836,44.916 37.968,45.708 37.968,46.716 C37.968,47.712 37.836,48.504 37.596,49.092 C37.26,49.908 36.708,50.328 35.94,50.328 Z M43.14,51.168 C44.16,51.168 44.928,50.712 45.456,49.812 C45.912,49.044 46.14,48.012 46.14,46.716 C46.14,45.42 45.912,44.388 45.456,43.62 C44.928,42.708 44.16,42.264 43.14,42.264 C42.108,42.264 41.34,42.708 40.824,43.62 C40.368,44.388 40.14,45.42 40.14,46.716 C40.14,48.012 40.368,49.044 40.824,49.812 C41.34,50.712 42.108,51.168 43.14,51.168 Z M43.14,50.328 C42.372,50.328 41.82,49.908 41.484,49.092 C41.244,48.504 41.124,47.712 41.124,46.716 C41.124,45.708 41.244,44.916 41.484,44.34 C41.82,43.512 42.372,43.104 43.14,43.104 C43.908,43.104 44.46,43.512 44.796,44.34 C45.036,44.916 45.168,45.708 45.168,46.716 C45.168,47.712 45.036,48.504 44.796,49.092 C44.46,49.908 43.908,50.328 43.14,50.328 Z M50.268,51 L50.268,42.432 L49.5,42.432 C49.212,42.756 48.876,43.044 48.468,43.308 C48.06,43.548 47.652,43.716 47.268,43.824 L47.268,44.808 C48.072,44.568 48.744,44.184 49.284,43.632 L49.284,51 L50.268,51 Z M54.804,43.8 L55.392,43.2 C54.876,42.612 54.24,42.024 53.484,41.424 L52.884,41.988 C53.7,42.624 54.336,43.224 54.804,43.8 Z M56.28,45.852 C57.504,45.156 58.128,44.172 58.128,42.9 L58.128,42.48 L60.456,42.48 L60.456,44.436 C60.456,45.144 60.816,45.504 61.56,45.504 L62.88,45.504 L62.88,44.712 L61.776,44.712 C61.464,44.712 61.308,44.556 61.308,44.256 L61.308,41.664 L57.276,41.664 L57.276,42.996 C57.276,43.944 56.748,44.676 55.704,45.192 L56.28,45.852 Z M53.832,51.78 C54.672,51.228 55.476,50.604 56.232,49.896 L55.992,48.984 C55.5,49.452 55.032,49.86 54.6,50.22 L54.6,44.892 L52.092,44.892 L52.092,45.72 L53.76,45.72 L53.76,50.472 C53.76,50.664 53.664,50.844 53.496,51.012 L53.832,51.78 Z M62.7,52.236 L63.168,51.492 C61.992,51.06 60.996,50.568 60.18,50.004 C61.056,49.188 61.68,48.216 62.064,47.088 L62.064,46.296 L56.352,46.296 L56.352,47.136 L57.012,47.136 C57.348,48.18 57.96,49.116 58.872,49.956 C57.972,50.592 56.856,51.108 55.524,51.504 L56.004,52.236 C57.408,51.804 58.596,51.24 59.556,50.52 C60.396,51.168 61.452,51.732 62.7,52.236 Z M59.484,49.464 C58.692,48.78 58.14,48 57.828,47.136 L61.212,47.136 C60.828,48.024 60.252,48.792 59.484,49.464 Z M64.44,47.076 C66.42,46.752 68.148,46.224 69.612,45.492 C71.004,46.188 72.684,46.68 74.652,46.98 L75.024,46.212 C73.248,45.972 71.724,45.588 70.428,45.036 C71.484,44.388 72.384,43.62 73.128,42.708 L73.128,42.048 L68.244,42.048 C68.436,41.796 68.628,41.532 68.808,41.244 L67.956,41.052 C67.08,42.336 65.964,43.368 64.62,44.148 L65.172,44.82 C65.772,44.436 66.336,44.016 66.864,43.536 C67.416,44.1 68.052,44.604 68.772,45.036 C67.428,45.636 65.868,46.068 64.068,46.32 L64.44,47.076 Z M69.576,44.64 C68.712,44.184 67.98,43.656 67.38,43.044 L67.62,42.804 L72.06,42.804 C71.364,43.5 70.536,44.112 69.576,44.64 Z M66.612,52.2 L66.612,51.672 L72.516,51.672 L72.516,52.2 L73.344,52.2 L73.344,46.968 L65.784,46.968 L65.784,52.2 L66.612,52.2 Z M69.144,48.96 L66.612,48.96 L66.612,47.688 L69.144,47.688 L69.144,48.96 Z M72.516,48.96 L69.96,48.96 L69.96,47.688 L72.516,47.688 L72.516,48.96 Z M69.144,50.928 L66.612,50.928 L66.612,49.656 L69.144,49.656 L69.144,50.928 Z M72.516,50.928 L69.96,50.928 L69.96,49.656 L72.516,49.656 L72.516,50.928 Z M79.02,52.284 L79.02,41.076 L76.08,41.076 L76.08,41.88 L78.132,41.88 L78.132,51.48 L76.08,51.48 L76.08,52.284 L79.02,52.284 Z M80.712,45.444 C81.456,44.772 82.104,43.968 82.668,43.056 L90.528,43.056 L90.528,42.228 L83.136,42.228 C83.28,41.94 83.424,41.628 83.568,41.316 L82.692,41.112 C82.032,42.624 81.192,43.836 80.16,44.772 L80.712,45.444 Z M85.956,52.2 C86.484,52.2 86.964,52.188 87.372,52.188 C87.948,52.188 88.392,52.104 88.68,51.936 C88.992,51.744 89.196,51.468 89.304,51.096 C89.328,51 89.364,50.796 89.388,50.484 L90.768,50.484 L90.768,49.68 L89.448,49.68 C89.472,49.152 89.508,48.468 89.544,47.628 L91.092,47.628 L91.092,46.812 L89.58,46.812 L89.664,44.052 L82.212,44.052 C82.188,44.976 82.14,45.9 82.056,46.812 L80.028,46.812 L80.028,47.628 L81.972,47.628 C81.864,48.588 81.72,49.548 81.54,50.484 L88.548,50.484 C88.524,50.652 88.512,50.772 88.488,50.82 C88.38,51.084 88.212,51.264 87.996,51.348 C87.78,51.408 87.528,51.444 87.24,51.444 C86.784,51.444 86.268,51.42 85.692,51.396 L85.956,52.2 Z M86.652,46.812 L82.92,46.812 C82.968,46.2 83.004,45.552 83.028,44.856 L88.8,44.856 C88.776,45.564 88.764,46.212 88.74,46.812 L86.7,46.812 L87.096,46.212 C86.376,45.768 85.572,45.396 84.696,45.084 L84.3,45.66 C85.092,45.948 85.884,46.332 86.652,46.812 Z M88.62,49.68 L82.536,49.68 C82.656,49.056 82.752,48.372 82.836,47.628 L88.716,47.628 C88.68,48.468 88.644,49.152 88.62,49.68 Z M86.616,49.62 L87.024,48.996 C86.292,48.552 85.488,48.18 84.6,47.868 L84.204,48.432 C85.02,48.72 85.824,49.116 86.616,49.62 Z M92.856,52.188 C93.648,50.724 94.056,48.804 94.08,46.452 L94.08,42.48 L101.352,42.48 L101.352,50.856 C101.352,51.168 101.184,51.336 100.848,51.336 C100.38,51.336 99.876,51.324 99.336,51.3 L99.564,52.116 L101.112,52.116 C101.832,52.116 102.204,51.792 102.204,51.156 L102.204,41.676 L93.216,41.676 L93.216,46.524 C93.192,48.576 92.856,50.268 92.208,51.6 L92.856,52.188 Z M100.656,46.512 L100.656,45.756 L98.1,45.756 L98.1,44.568 L100.26,44.568 L100.26,43.848 L98.1,43.848 L98.1,42.852 L97.26,42.852 L97.26,43.848 L95.076,43.848 L95.076,44.568 L97.26,44.568 L97.26,45.756 L94.716,45.756 L94.716,46.512 L100.656,46.512 Z M100.056,50.412 L100.056,47.424 L95.208,47.424 L95.208,50.412 L100.056,50.412 Z M99.228,49.656 L96.048,49.656 L96.048,48.156 L99.228,48.156 L99.228,49.656 Z M105.48,45.036 L105.48,43.212 L113.616,43.212 L113.616,44.976 L114.456,44.976 L114.456,42.42 L110.1,42.42 C109.932,41.928 109.74,41.484 109.548,41.088 L108.624,41.232 C108.84,41.592 109.044,41.988 109.224,42.42 L104.64,42.42 L104.64,45.036 L105.48,45.036 Z M104.604,52.176 C105.288,51.48 105.864,50.616 106.332,49.584 C106.824,50.364 107.472,50.94 108.264,51.312 C109.32,51.756 111.048,51.984 113.472,51.984 L114.816,51.984 L114.972,51.12 C114.324,51.168 113.7,51.192 113.088,51.192 C111.888,51.18 110.88,51.108 110.04,50.988 L110.04,48.504 L113.616,48.504 L113.616,47.688 L110.04,47.688 L110.04,45.576 L113.088,45.576 L113.088,44.76 L106.032,44.76 L106.032,45.576 L109.176,45.576 L109.176,50.808 C109.056,50.784 108.936,50.748 108.828,50.712 C107.964,50.436 107.244,49.788 106.668,48.756 C106.884,48.132 107.076,47.448 107.22,46.704 L106.38,46.56 C105.972,48.624 105.204,50.268 104.052,51.492 L104.604,52.176 Z M124.452,52.08 C125.196,52.08 125.568,51.696 125.568,50.94 L125.568,44.232 L127.044,44.232 L127.044,43.404 L125.568,43.404 L125.568,41.292 L124.692,41.292 L124.692,43.404 L120.54,43.404 L120.54,44.232 L124.692,44.232 L124.692,50.724 C124.692,51.096 124.512,51.288 124.164,51.288 C123.528,51.288 122.868,51.264 122.172,51.24 L122.352,52.08 L124.452,52.08 Z M117.372,51.228 L117.372,50.136 L119.148,50.136 L119.148,50.94 L119.988,50.94 L119.988,42.096 L116.532,42.096 L116.532,51.228 L117.372,51.228 Z M119.148,45.636 L117.372,45.636 L117.372,42.888 L119.148,42.888 L119.148,45.636 Z M122.712,49.128 L123.432,48.624 C123.036,47.784 122.46,46.8 121.716,45.672 L121.008,46.116 C121.728,47.22 122.292,48.228 122.712,49.128 Z M119.148,49.332 L117.372,49.332 L117.372,46.44 L119.148,46.44 L119.148,49.332 Z M128.628,49.2 C129.708,49.02 130.836,48.684 132.012,48.204 L132.012,47.412 C131.22,47.76 130.44,48.024 129.648,48.216 C130.308,47.328 131.136,45.852 132.144,43.788 L131.388,43.5 C131.16,43.992 130.944,44.46 130.728,44.916 C130.224,45.024 129.72,45.108 129.228,45.18 C129.804,44.256 130.38,43.02 130.944,41.484 L130.116,41.16 C129.672,42.576 129.156,43.836 128.556,44.94 C128.448,45.096 128.328,45.204 128.196,45.264 L128.412,46.056 C129.06,45.948 129.696,45.828 130.32,45.708 C129.72,46.86 129.204,47.688 128.784,48.168 C128.676,48.264 128.544,48.348 128.388,48.408 L128.628,49.2 Z M133.968,52.176 L133.968,51.552 L139.08,51.552 L139.08,50.748 L136.932,50.748 L136.932,48.924 L138.636,48.924 L138.636,48.132 L136.932,48.132 L136.932,46.5 L138.636,46.5 L138.636,45.696 L136.932,45.696 L136.932,44.064 L138.84,44.064 L138.84,43.248 L136.668,43.248 L136.992,43.128 C136.836,42.528 136.62,41.88 136.356,41.16 L135.516,41.388 C135.78,41.988 136.008,42.612 136.2,43.248 L134.016,43.248 C134.256,42.648 134.448,42.036 134.616,41.388 L133.788,41.22 C133.392,42.9 132.72,44.436 131.772,45.852 L132.036,46.728 C132.432,46.2 132.792,45.66 133.128,45.084 L133.128,52.176 L133.968,52.176 Z M136.092,45.696 L133.968,45.696 L133.968,44.064 L136.092,44.064 L136.092,45.696 Z M136.092,48.132 L133.968,48.132 L133.968,46.5 L136.092,46.5 L136.092,48.132 Z M136.092,50.748 L133.968,50.748 L133.968,48.924 L136.092,48.924 L136.092,50.748 Z M128.232,51.744 C129.744,51.456 131.1,51.084 132.288,50.628 L132.288,49.8 C131.1,50.256 129.708,50.616 128.124,50.88 L128.232,51.744 Z M142.392,52.224 L142.392,44.004 C142.812,43.212 143.172,42.384 143.46,41.496 L142.644,41.124 C142.08,42.996 141.168,44.664 139.92,46.104 L140.208,47.028 C140.676,46.524 141.108,45.984 141.516,45.42 L141.516,52.224 L142.392,52.224 Z M147.42,52.2 L147.42,47.664 L147.564,47.664 C148.344,49.212 149.328,50.508 150.528,51.552 L151.08,50.796 C149.892,49.908 148.956,48.864 148.272,47.664 L150.876,47.664 L150.876,46.824 L147.42,46.824 L147.42,45.516 L149.832,45.516 L149.832,41.736 L144.168,41.736 L144.168,45.516 L146.556,45.516 L146.556,46.824 L143.22,46.824 L143.22,47.664 L145.704,47.664 C144.984,48.96 144.048,49.992 142.896,50.784 L143.388,51.564 C144.6,50.628 145.608,49.332 146.412,47.664 L146.556,47.664 L146.556,52.2 L147.42,52.2 Z M148.98,44.688 L145.02,44.688 L145.02,42.564 L148.98,42.564 L148.98,44.688 Z M154.848,52.284 C154.356,51.48 153.972,50.652 153.708,49.8 C153.348,48.744 153.18,47.7 153.18,46.68 C153.18,45.648 153.348,44.616 153.708,43.56 C153.972,42.696 154.356,41.868 154.848,41.076 L154.008,41.076 C153.48,41.844 153.072,42.672 152.772,43.548 C152.412,44.58 152.244,45.624 152.244,46.692 C152.244,47.736 152.412,48.78 152.772,49.812 C153.072,50.676 153.48,51.504 154.008,52.284 L154.848,52.284 Z M156.696,52.176 C156.984,51.468 157.2,50.712 157.368,49.896 C157.872,50.652 158.46,51.18 159.108,51.48 C159.82224,51.80256 161.576045,51.9813504 164.358798,51.9951375 L166.848,51.996 L166.992,51.132 C166.452,51.156 165.624,51.168 164.52,51.18 C161.976,51.18 160.344,51.048 159.636,50.808 C159.576,50.784 159.516,50.76 159.444,50.724 L159.444,48.636 L160.992,48.636 L160.992,47.844 L159.444,47.844 L159.444,46.152 L160.98,46.152 L160.98,45.36 L159.204,45.36 L159.204,43.584 L161.004,43.584 L161.004,42.816 L159.204,42.816 L159.204,41.184 L158.376,41.184 L158.376,42.816 L156.552,42.816 L156.552,43.584 L158.376,43.584 L158.376,45.36 L156.408,45.36 L156.408,46.152 L158.628,46.152 L158.628,50.208 C158.22,49.86 157.86,49.392 157.548,48.804 C157.62,48.228 157.668,47.628 157.692,47.004 L156.948,46.92 C156.9,48.648 156.6,50.22 156.072,51.612 L156.696,52.176 Z M161.772,46.176 C162.42,45.72 162.912,45.192 163.248,44.604 C163.512,44.1 163.716,43.428 163.872,42.576 L165.672,42.576 C165.66,43.812 165.6,44.568 165.504,44.856 C165.408,45.156 165.18,45.312 164.808,45.324 L163.932,45.264 L164.148,46.02 C164.484,46.044 164.76,46.068 165,46.068 C165.552,46.068 165.936,45.864 166.152,45.456 C166.38,45.048 166.5,43.824 166.5,41.784 L161.412,41.784 L161.412,42.576 L163.068,42.576 C162.948,43.248 162.756,43.788 162.504,44.208 C162.216,44.664 161.784,45.084 161.208,45.468 L161.772,46.176 Z M166.332,50.436 L166.332,46.704 L161.724,46.704 L161.724,50.436 L166.332,50.436 Z M165.54,49.68 L162.492,49.68 L162.492,47.472 L165.54,47.472 L165.54,49.68 Z M176.448,52.08 C177.192,52.08 177.564,51.696 177.564,50.94 L177.564,44.232 L179.04,44.232 L179.04,43.404 L177.564,43.404 L177.564,41.292 L176.688,41.292 L176.688,43.404 L172.536,43.404 L172.536,44.232 L176.688,44.232 L176.688,50.724 C176.688,51.096 176.508,51.288 176.16,51.288 C175.524,51.288 174.864,51.264 174.168,51.24 L174.348,52.08 L176.448,52.08 Z M169.368,51.228 L169.368,50.136 L171.144,50.136 L171.144,50.94 L171.984,50.94 L171.984,42.096 L168.528,42.096 L168.528,51.228 L169.368,51.228 Z M171.144,45.636 L169.368,45.636 L169.368,42.888 L171.144,42.888 L171.144,45.636 Z M174.708,49.128 L175.428,48.624 C175.032,47.784 174.456,46.8 173.712,45.672 L173.004,46.116 C173.724,47.22 174.288,48.228 174.708,49.128 Z M171.144,49.332 L169.368,49.332 L169.368,46.44 L171.144,46.44 L171.144,49.332 Z M186,51 L186,50.124 L181.5,50.124 C181.656,49.548 182.28,48.888 183.372,48.156 C184.26,47.556 184.848,47.088 185.148,46.776 C185.7,46.176 185.988,45.504 185.988,44.76 C185.988,44.016 185.724,43.404 185.22,42.948 C184.704,42.492 184.056,42.264 183.264,42.264 C182.4,42.264 181.692,42.552 181.164,43.128 C180.636,43.692 180.36,44.46 180.36,45.42 L181.344,45.42 C181.356,44.664 181.536,44.088 181.872,43.704 C182.184,43.296 182.64,43.104 183.228,43.104 C183.78,43.104 184.224,43.248 184.536,43.536 C184.848,43.824 185.004,44.22 185.004,44.748 C185.004,45.3 184.776,45.816 184.344,46.284 C184.116,46.524 183.672,46.872 183,47.352 C182.088,47.976 181.476,48.492 181.14,48.876 C180.564,49.512 180.288,50.22 180.288,51 L186,51 Z M189.624,51 L192.78,43.236 L192.78,42.432 L187.152,42.432 L187.152,43.332 L191.772,43.332 L188.58,51 L189.624,51 Z M198.732,52.068 C199.548,52.068 199.968,51.636 199.968,50.796 L199.968,41.376 L199.08,41.376 L199.08,50.568 C199.08,51.012 198.852,51.24 198.408,51.24 C197.868,51.24 197.292,51.216 196.692,51.168 L196.896,52.068 L198.732,52.068 Z M204.096,50.028 L204.864,49.488 C204.36,47.892 203.628,46.02 202.68,43.872 L201.9,44.364 C202.824,46.44 203.556,48.324 204.096,50.028 Z M194.46,49.968 C195.396,48.72 196.152,46.896 196.728,44.496 L195.864,44.16 C195.384,46.32 194.676,48.036 193.716,49.308 L194.46,49.968 Z M214.212,52.08 C214.956,52.08 215.328,51.696 215.328,50.94 L215.328,44.232 L216.804,44.232 L216.804,43.404 L215.328,43.404 L215.328,41.292 L214.452,41.292 L214.452,43.404 L210.3,43.404 L210.3,44.232 L214.452,44.232 L214.452,50.724 C214.452,51.096 214.272,51.288 213.924,51.288 C213.288,51.288 212.628,51.264 211.932,51.24 L212.112,52.08 L214.212,52.08 Z M207.132,51.228 L207.132,50.136 L208.908,50.136 L208.908,50.94 L209.748,50.94 L209.748,42.096 L206.292,42.096 L206.292,51.228 L207.132,51.228 Z M208.908,45.636 L207.132,45.636 L207.132,42.888 L208.908,42.888 L208.908,45.636 Z M212.472,49.128 L213.192,48.624 C212.796,47.784 212.22,46.8 211.476,45.672 L210.768,46.116 C211.488,47.22 212.052,48.228 212.472,49.128 Z M208.908,49.332 L207.132,49.332 L207.132,46.44 L208.908,46.44 L208.908,49.332 Z M220.932,51.168 C221.82,51.168 222.54,50.916 223.092,50.412 C223.632,49.92 223.908,49.284 223.908,48.504 C223.908,48 223.764,47.58 223.476,47.244 C223.212,46.908 222.828,46.668 222.324,46.512 C223.26,46.2 223.728,45.552 223.728,44.592 C223.728,43.872 223.476,43.308 222.984,42.888 C222.48,42.468 221.808,42.264 220.992,42.264 C220.176,42.264 219.516,42.492 219.012,42.96 C218.484,43.428 218.172,44.076 218.1,44.904 L219.072,44.904 C219.132,44.328 219.324,43.884 219.66,43.572 C219.984,43.26 220.428,43.116 221.004,43.116 C221.556,43.116 222,43.248 222.312,43.536 C222.6,43.8 222.756,44.172 222.756,44.652 C222.756,45.132 222.6,45.504 222.3,45.768 C222,46.02 221.568,46.152 220.992,46.152 L220.332,46.152 L220.332,46.92 L221.028,46.92 C221.628,46.92 222.084,47.052 222.42,47.34 C222.756,47.628 222.924,48.024 222.924,48.54 C222.924,49.044 222.744,49.464 222.408,49.8 C222.036,50.148 221.544,50.328 220.932,50.328 C220.392,50.328 219.948,50.172 219.588,49.884 C219.168,49.536 218.94,49.02 218.916,48.348 L217.92,48.348 C217.992,49.308 218.328,50.04 218.94,50.544 C219.456,50.952 220.116,51.168 220.932,51.168 Z M228.036,51 L228.036,42.432 L227.268,42.432 C226.98,42.756 226.644,43.044 226.236,43.308 C225.828,43.548 225.42,43.716 225.036,43.824 L225.036,44.808 C225.84,44.568 226.512,44.184 227.052,43.632 L227.052,51 L228.036,51 Z M240.18,46.356 L240.756,45.672 C238.968,44.604 237.732,43.14 237.036,41.292 L236.292,41.712 C237.024,43.608 238.32,45.156 240.18,46.356 Z M230.316,46.404 C231.312,45.732 232.116,45.048 232.716,44.352 C233.28,43.716 233.844,42.9 234.408,41.904 L233.652,41.448 C233.172,42.36 232.644,43.14 232.068,43.812 C231.408,44.568 230.664,45.18 229.848,45.648 L230.316,46.404 Z M230.964,52.236 C232.188,51.552 233.112,50.784 233.724,49.92 C234.24,49.152 234.636,48.108 234.924,46.8 L237.912,46.8 C237.852,48.672 237.72,49.884 237.504,50.46 C237.3,51.012 236.88,51.288 236.232,51.288 C235.608,51.288 234.948,51.276 234.252,51.252 L234.492,52.104 L236.676,52.104 C237.276,52.068 237.708,51.876 237.972,51.528 C238.248,51.168 238.44,50.52 238.56,49.608 C238.68,48.684 238.752,47.472 238.788,45.972 L231.624,45.972 L231.624,46.8 L234.048,46.8 C233.796,47.928 233.424,48.84 232.92,49.536 C232.356,50.256 231.516,50.916 230.412,51.516 L230.964,52.236 Z M244.848,51 L244.848,42.432 L244.08,42.432 C243.792,42.756 243.456,43.044 243.048,43.308 C242.64,43.548 242.232,43.716 241.848,43.824 L241.848,44.808 C242.652,44.568 243.324,44.184 243.864,43.632 L243.864,51 L244.848,51 Z M249.756,51.168 C250.644,51.168 251.364,50.916 251.916,50.412 C252.456,49.92 252.732,49.284 252.732,48.504 C252.732,48 252.588,47.58 252.3,47.244 C252.036,46.908 251.652,46.668 251.148,46.512 C252.084,46.2 252.552,45.552 252.552,44.592 C252.552,43.872 252.3,43.308 251.808,42.888 C251.304,42.468 250.632,42.264 249.816,42.264 C249,42.264 248.34,42.492 247.836,42.96 C247.308,43.428 246.996,44.076 246.924,44.904 L247.896,44.904 C247.956,44.328 248.148,43.884 248.484,43.572 C248.808,43.26 249.252,43.116 249.828,43.116 C250.38,43.116 250.824,43.248 251.136,43.536 C251.424,43.8 251.58,44.172 251.58,44.652 C251.58,45.132 251.424,45.504 251.124,45.768 C250.824,46.02 250.392,46.152 249.816,46.152 L249.156,46.152 L249.156,46.92 L249.852,46.92 C250.452,46.92 250.908,47.052 251.244,47.34 C251.58,47.628 251.748,48.024 251.748,48.54 C251.748,49.044 251.568,49.464 251.232,49.8 C250.86,50.148 250.368,50.328 249.756,50.328 C249.216,50.328 248.772,50.172 248.412,49.884 C247.992,49.536 247.764,49.02 247.74,48.348 L246.744,48.348 C246.816,49.308 247.152,50.04 247.764,50.544 C248.28,50.952 248.94,51.168 249.756,51.168 Z M261.696,48.036 L261.696,41.22 L260.808,41.22 L260.808,48.036 L261.696,48.036 Z M256.608,52.152 L256.608,46.824 C256.992,47.28 257.46,47.916 258.012,48.72 L258.48,47.988 C257.844,47.268 257.22,46.632 256.608,46.08 L256.608,45.204 L258.096,45.204 L258.096,44.364 L256.608,44.364 L256.608,42.612 C257.208,42.48 257.76,42.336 258.276,42.168 L257.976,41.364 C256.848,41.76 255.54,42.024 254.076,42.168 L254.244,42.984 C254.772,42.924 255.276,42.852 255.78,42.768 L255.78,44.364 L254.04,44.364 L254.04,45.204 L255.744,45.204 C255.336,46.536 254.676,47.724 253.752,48.78 L254.124,49.74 C254.796,48.852 255.348,47.856 255.78,46.776 L255.78,52.152 L256.608,52.152 Z M264.12,46.308 L264.9,45.96 C264.372,44.808 263.748,43.716 263.028,42.708 L262.272,42.96 C262.944,43.92 263.556,45.036 264.12,46.308 Z M258.672,47.244 C259.26,46.092 259.716,44.736 260.04,43.164 L259.212,42.984 C258.948,44.376 258.516,45.636 257.928,46.776 L258.672,47.244 Z M257.928,52.164 C261.036,51.372 263.124,49.608 264.18,46.896 L263.448,46.464 C262.464,49.008 260.472,50.652 257.472,51.396 L257.928,52.164 Z M266.868,52.284 C267.384,51.504 267.792,50.676 268.104,49.812 C268.452,48.78 268.632,47.736 268.632,46.692 C268.632,45.624 268.452,44.58 268.104,43.548 C267.792,42.672 267.384,41.844 266.868,41.076 L266.028,41.076 C266.508,41.868 266.892,42.696 267.168,43.56 C267.516,44.616 267.696,45.648 267.696,46.68 C267.696,47.7 267.516,48.744 267.168,49.8 C266.892,50.652 266.508,51.48 266.028,52.284 L266.868,52.284 Z" id="[OBJ1001设备]每周定时维保(超时27小时31分13秒)" fill="#262626" fill-rule="nonzero"></path>
            <rect id="矩形" fill="#E5E5E5" x="0" y="66" width="428" height="1"></rect>
            <rect id="矩形备份-13" fill="#E5E5E5" x="0" y="105" width="428" height="1"></rect>
            <path d="M3.468,92.284 L3.468,91.48 L1.416,91.48 L1.416,81.88 L3.468,81.88 L3.468,81.076 L0.528,81.076 L0.528,92.284 L3.468,92.284 Z M8.592,91.168 C9.876,91.168 10.896,90.736 11.64,89.884 C12.336,89.068 12.696,88.024 12.696,86.728 C12.696,85.42 12.336,84.364 11.64,83.548 C10.896,82.684 9.876,82.264 8.604,82.264 C7.308,82.264 6.3,82.696 5.556,83.56 C4.848,84.376 4.5,85.432 4.5,86.728 C4.5,88.012 4.848,89.068 5.556,89.884 C6.3,90.736 7.308,91.168 8.592,91.168 Z M8.592,90.292 C7.608,90.292 6.828,89.956 6.276,89.284 C5.748,88.636 5.484,87.784 5.484,86.728 C5.484,85.66 5.748,84.808 6.276,84.16 C6.84,83.476 7.62,83.14 8.604,83.14 C9.588,83.14 10.356,83.464 10.908,84.124 C11.436,84.772 11.712,85.636 11.712,86.728 C11.712,87.808 11.436,88.66 10.908,89.308 C10.356,89.956 9.576,90.292 8.592,90.292 Z M17.868,91 C18.744,91 19.44,90.82 19.944,90.484 C20.532,90.076 20.832,89.452 20.832,88.612 C20.832,88.036 20.664,87.58 20.352,87.22 C20.04,86.86 19.608,86.62 19.044,86.524 C19.476,86.38 19.824,86.152 20.088,85.84 C20.34,85.492 20.472,85.072 20.472,84.592 C20.472,83.92 20.244,83.392 19.788,83.008 C19.32,82.624 18.684,82.432 17.892,82.432 L14.064,82.432 L14.064,91 L17.868,91 Z M17.652,86.176 L15.048,86.176 L15.048,83.26 L17.664,83.26 C18.264,83.26 18.72,83.368 19.032,83.608 C19.344,83.848 19.5,84.208 19.5,84.688 C19.5,85.18 19.332,85.552 19.02,85.804 C18.708,86.044 18.252,86.176 17.652,86.176 Z M17.784,90.172 L15.048,90.172 L15.048,86.992 L17.784,86.992 C18.444,86.992 18.948,87.112 19.296,87.376 C19.656,87.64 19.848,88.048 19.848,88.6 C19.848,89.152 19.632,89.572 19.212,89.836 C18.852,90.052 18.384,90.172 17.784,90.172 Z M24.024,91.168 C24.972,91.168 25.668,90.904 26.1,90.376 C26.484,89.896 26.676,89.2 26.676,88.264 L26.676,82.432 L25.692,82.432 L25.692,88.228 C25.692,88.936 25.56,89.452 25.308,89.776 C25.044,90.112 24.624,90.292 24.048,90.292 C23.004,90.292 22.488,89.704 22.488,88.552 L22.488,88.264 L21.504,88.264 L21.504,88.564 C21.504,89.404 21.72,90.052 22.176,90.508 C22.608,90.94 23.22,91.168 24.024,91.168 Z M31.056,91 L31.056,82.432 L30.288,82.432 C30,82.756 29.664,83.044 29.256,83.308 C28.848,83.548 28.44,83.716 28.056,83.824 L28.056,84.808 C28.86,84.568 29.532,84.184 30.072,83.632 L30.072,91 L31.056,91 Z M35.94,91.168 C36.96,91.168 37.728,90.712 38.256,89.812 C38.712,89.044 38.94,88.012 38.94,86.716 C38.94,85.42 38.712,84.388 38.256,83.62 C37.728,82.708 36.96,82.264 35.94,82.264 C34.908,82.264 34.14,82.708 33.624,83.62 C33.168,84.388 32.94,85.42 32.94,86.716 C32.94,88.012 33.168,89.044 33.624,89.812 C34.14,90.712 34.908,91.168 35.94,91.168 Z M35.94,90.328 C35.172,90.328 34.62,89.908 34.284,89.092 C34.044,88.504 33.924,87.712 33.924,86.716 C33.924,85.708 34.044,84.916 34.284,84.34 C34.62,83.512 35.172,83.104 35.94,83.104 C36.708,83.104 37.26,83.512 37.596,84.34 C37.836,84.916 37.968,85.708 37.968,86.716 C37.968,87.712 37.836,88.504 37.596,89.092 C37.26,89.908 36.708,90.328 35.94,90.328 Z M43.14,91.168 C44.16,91.168 44.928,90.712 45.456,89.812 C45.912,89.044 46.14,88.012 46.14,86.716 C46.14,85.42 45.912,84.388 45.456,83.62 C44.928,82.708 44.16,82.264 43.14,82.264 C42.108,82.264 41.34,82.708 40.824,83.62 C40.368,84.388 40.14,85.42 40.14,86.716 C40.14,88.012 40.368,89.044 40.824,89.812 C41.34,90.712 42.108,91.168 43.14,91.168 Z M43.14,90.328 C42.372,90.328 41.82,89.908 41.484,89.092 C41.244,88.504 41.124,87.712 41.124,86.716 C41.124,85.708 41.244,84.916 41.484,84.34 C41.82,83.512 42.372,83.104 43.14,83.104 C43.908,83.104 44.46,83.512 44.796,84.34 C45.036,84.916 45.168,85.708 45.168,86.716 C45.168,87.712 45.036,88.504 44.796,89.092 C44.46,89.908 43.908,90.328 43.14,90.328 Z M53.196,91 L53.196,90.124 L48.696,90.124 C48.852,89.548 49.476,88.888 50.568,88.156 C51.456,87.556 52.044,87.088 52.344,86.776 C52.896,86.176 53.184,85.504 53.184,84.76 C53.184,84.016 52.92,83.404 52.416,82.948 C51.9,82.492 51.252,82.264 50.46,82.264 C49.596,82.264 48.888,82.552 48.36,83.128 C47.832,83.692 47.556,84.46 47.556,85.42 L48.54,85.42 C48.552,84.664 48.732,84.088 49.068,83.704 C49.38,83.296 49.836,83.104 50.424,83.104 C50.976,83.104 51.42,83.248 51.732,83.536 C52.044,83.824 52.2,84.22 52.2,84.748 C52.2,85.3 51.972,85.816 51.54,86.284 C51.312,86.524 50.868,86.872 50.196,87.352 C49.284,87.976 48.672,88.492 48.336,88.876 C47.76,89.512 47.484,90.22 47.484,91 L53.196,91 Z M57.192,83.8 L57.78,83.2 C57.264,82.612 56.628,82.024 55.872,81.424 L55.272,81.988 C56.088,82.624 56.724,83.224 57.192,83.8 Z M58.668,85.852 C59.892,85.156 60.516,84.172 60.516,82.9 L60.516,82.48 L62.844,82.48 L62.844,84.436 C62.844,85.144 63.204,85.504 63.948,85.504 L65.268,85.504 L65.268,84.712 L64.164,84.712 C63.852,84.712 63.696,84.556 63.696,84.256 L63.696,81.664 L59.664,81.664 L59.664,82.996 C59.664,83.944 59.136,84.676 58.092,85.192 L58.668,85.852 Z M56.22,91.78 C57.06,91.228 57.864,90.604 58.62,89.896 L58.38,88.984 C57.888,89.452 57.42,89.86 56.988,90.22 L56.988,84.892 L54.48,84.892 L54.48,85.72 L56.148,85.72 L56.148,90.472 C56.148,90.664 56.052,90.844 55.884,91.012 L56.22,91.78 Z M65.088,92.236 L65.556,91.492 C64.38,91.06 63.384,90.568 62.568,90.004 C63.444,89.188 64.068,88.216 64.452,87.088 L64.452,86.296 L58.74,86.296 L58.74,87.136 L59.4,87.136 C59.736,88.18 60.348,89.116 61.26,89.956 C60.36,90.592 59.244,91.108 57.912,91.504 L58.392,92.236 C59.796,91.804 60.984,91.24 61.944,90.52 C62.784,91.168 63.84,91.732 65.088,92.236 Z M61.872,89.464 C61.08,88.78 60.528,88 60.216,87.136 L63.6,87.136 C63.216,88.024 62.64,88.792 61.872,89.464 Z M66.828,87.076 C68.808,86.752 70.536,86.224 72,85.492 C73.392,86.188 75.072,86.68 77.04,86.98 L77.412,86.212 C75.636,85.972 74.112,85.588 72.816,85.036 C73.872,84.388 74.772,83.62 75.516,82.708 L75.516,82.048 L70.632,82.048 C70.824,81.796 71.016,81.532 71.196,81.244 L70.344,81.052 C69.468,82.336 68.352,83.368 67.008,84.148 L67.56,84.82 C68.16,84.436 68.724,84.016 69.252,83.536 C69.804,84.1 70.44,84.604 71.16,85.036 C69.816,85.636 68.256,86.068 66.456,86.32 L66.828,87.076 Z M71.964,84.64 C71.1,84.184 70.368,83.656 69.768,83.044 L70.008,82.804 L74.448,82.804 C73.752,83.5 72.924,84.112 71.964,84.64 Z M69,92.2 L69,91.672 L74.904,91.672 L74.904,92.2 L75.732,92.2 L75.732,86.968 L68.172,86.968 L68.172,92.2 L69,92.2 Z M71.532,88.96 L69,88.96 L69,87.688 L71.532,87.688 L71.532,88.96 Z M74.904,88.96 L72.348,88.96 L72.348,87.688 L74.904,87.688 L74.904,88.96 Z M71.532,90.928 L69,90.928 L69,89.656 L71.532,89.656 L71.532,90.928 Z M74.904,90.928 L72.348,90.928 L72.348,89.656 L74.904,89.656 L74.904,90.928 Z M81.408,92.284 L81.408,81.076 L78.468,81.076 L78.468,81.88 L80.52,81.88 L80.52,91.48 L78.468,91.48 L78.468,92.284 L81.408,92.284 Z M89.064,92.236 L89.064,89.56 L93.216,89.56 L93.216,88.72 L89.064,88.72 L89.064,86.128 L92.412,86.128 L92.412,85.3 L89.064,85.3 L89.064,83.38 L92.832,83.38 L92.832,82.54 L85.38,82.54 C85.548,82.132 85.704,81.712 85.836,81.256 L84.936,81.088 C84.516,82.648 83.7,83.884 82.488,84.796 L83.064,85.516 C83.832,84.94 84.456,84.232 84.96,83.38 L88.188,83.38 L88.188,85.3 L84.624,85.3 L84.624,88.72 L82.644,88.72 L82.644,89.56 L88.188,89.56 L88.188,92.236 L89.064,92.236 Z M88.188,88.72 L85.488,88.72 L85.488,86.128 L88.188,86.128 L88.188,88.72 Z M95.076,92.164 C95.892,90.628 96.324,88.588 96.372,86.044 L96.372,85.108 L98.388,85.108 L98.388,86.98 L103.248,86.98 L103.248,85.108 L105.096,85.108 L105.096,84.316 L103.248,84.316 L103.248,83.332 L102.408,83.332 L102.408,84.316 L99.228,84.316 L99.228,83.344 L98.388,83.344 L98.388,84.316 L96.372,84.316 L96.372,82.948 L105.12,82.948 L105.12,82.132 L101.004,82.132 C100.872,81.772 100.728,81.436 100.584,81.136 L99.672,81.28 C99.84,81.544 99.984,81.82 100.128,82.132 L95.508,82.132 L95.508,86.044 C95.484,88.408 95.124,90.256 94.428,91.588 L95.076,92.164 Z M102.408,86.248 L99.228,86.248 L99.228,85.108 L102.408,85.108 L102.408,86.248 Z M105.024,92.248 L105.396,91.504 C103.968,91.312 102.72,90.988 101.64,90.532 C102.612,89.956 103.428,89.248 104.1,88.432 L104.1,87.796 L97.068,87.796 L97.068,88.54 L97.8,88.54 C98.352,89.296 99.084,89.956 99.972,90.508 C98.892,90.964 97.644,91.288 96.252,91.492 L96.624,92.248 C98.208,91.984 99.612,91.552 100.824,90.976 C101.964,91.552 103.368,91.972 105.024,92.248 Z M100.776,90.124 C99.948,89.692 99.264,89.164 98.712,88.54 L102.972,88.54 C102.348,89.152 101.616,89.68 100.776,90.124 Z M109.188,83.8 L109.776,83.2 C109.26,82.612 108.624,82.024 107.868,81.424 L107.268,81.988 C108.084,82.624 108.72,83.224 109.188,83.8 Z M110.664,85.852 C111.888,85.156 112.512,84.172 112.512,82.9 L112.512,82.48 L114.84,82.48 L114.84,84.436 C114.84,85.144 115.2,85.504 115.944,85.504 L117.264,85.504 L117.264,84.712 L116.16,84.712 C115.848,84.712 115.692,84.556 115.692,84.256 L115.692,81.664 L111.66,81.664 L111.66,82.996 C111.66,83.944 111.132,84.676 110.088,85.192 L110.664,85.852 Z M108.216,91.78 C109.056,91.228 109.86,90.604 110.616,89.896 L110.376,88.984 C109.884,89.452 109.416,89.86 108.984,90.22 L108.984,84.892 L106.476,84.892 L106.476,85.72 L108.144,85.72 L108.144,90.472 C108.144,90.664 108.048,90.844 107.88,91.012 L108.216,91.78 Z M117.084,92.236 L117.552,91.492 C116.376,91.06 115.38,90.568 114.564,90.004 C115.44,89.188 116.064,88.216 116.448,87.088 L116.448,86.296 L110.736,86.296 L110.736,87.136 L111.396,87.136 C111.732,88.18 112.344,89.116 113.256,89.956 C112.356,90.592 111.24,91.108 109.908,91.504 L110.388,92.236 C111.792,91.804 112.98,91.24 113.94,90.52 C114.78,91.168 115.836,91.732 117.084,92.236 Z M113.868,89.464 C113.076,88.78 112.524,88 112.212,87.136 L115.596,87.136 C115.212,88.024 114.636,88.792 113.868,89.464 Z M118.824,87.076 C120.804,86.752 122.532,86.224 123.996,85.492 C125.388,86.188 127.068,86.68 129.036,86.98 L129.408,86.212 C127.632,85.972 126.108,85.588 124.812,85.036 C125.868,84.388 126.768,83.62 127.512,82.708 L127.512,82.048 L122.628,82.048 C122.82,81.796 123.012,81.532 123.192,81.244 L122.34,81.052 C121.464,82.336 120.348,83.368 119.004,84.148 L119.556,84.82 C120.156,84.436 120.72,84.016 121.248,83.536 C121.8,84.1 122.436,84.604 123.156,85.036 C121.812,85.636 120.252,86.068 118.452,86.32 L118.824,87.076 Z M123.96,84.64 C123.096,84.184 122.364,83.656 121.764,83.044 L122.004,82.804 L126.444,82.804 C125.748,83.5 124.92,84.112 123.96,84.64 Z M120.996,92.2 L120.996,91.672 L126.9,91.672 L126.9,92.2 L127.728,92.2 L127.728,86.968 L120.168,86.968 L120.168,92.2 L120.996,92.2 Z M123.528,88.96 L120.996,88.96 L120.996,87.688 L123.528,87.688 L123.528,88.96 Z M126.9,88.96 L124.344,88.96 L124.344,87.688 L126.9,87.688 L126.9,88.96 Z M123.528,90.928 L120.996,90.928 L120.996,89.656 L123.528,89.656 L123.528,90.928 Z M126.9,90.928 L124.344,90.928 L124.344,89.656 L126.9,89.656 L126.9,90.928 Z M133.008,92.14 L133.008,85.84 C133.284,86.272 133.608,86.836 133.992,87.52 L134.484,86.788 C133.98,86.116 133.488,85.516 133.008,84.988 L133.008,84.376 L134.244,84.376 L134.244,83.548 L133.008,83.548 L133.008,81.208 L132.156,81.208 L132.156,83.548 L130.656,83.548 L130.656,84.376 L132.132,84.376 C131.772,85.948 131.16,87.34 130.32,88.564 L130.692,89.512 C131.292,88.528 131.772,87.448 132.156,86.248 L132.156,92.14 L133.008,92.14 Z M134.58,85.948 C135.084,85.588 135.552,85.18 136.008,84.7 L136.008,85.468 L139.656,85.468 L139.656,84.736 C140.064,85.156 140.532,85.552 141.048,85.924 L141.516,85.192 C139.944,84.052 138.84,82.732 138.192,81.22 L137.4,81.22 C136.632,82.864 135.528,84.196 134.112,85.216 L134.58,85.948 Z M139.596,84.676 L136.032,84.676 C136.68,83.956 137.268,83.092 137.796,82.072 C138.24,83.032 138.84,83.896 139.596,84.676 Z M137.616,89.716 L138.408,89.512 C138.168,88.252 137.892,87.136 137.58,86.164 L136.836,86.404 C137.148,87.46 137.412,88.564 137.616,89.716 Z M141.264,91.84 L141.264,91 L139.392,91 C139.896,89.68 140.328,88.18 140.664,86.488 L139.836,86.272 C139.464,88.144 139.032,89.716 138.54,91 L134.388,91 L134.388,91.84 L141.264,91.84 Z M135.852,90.292 L136.608,90.088 C136.356,88.768 136.068,87.604 135.732,86.596 L134.988,86.848 C135.324,87.952 135.612,89.092 135.852,90.292 Z M147.144,86.596 C148.308,86.308 149.304,85.936 150.144,85.48 C150.924,85.912 151.896,86.272 153.06,86.56 L153.396,85.756 C152.472,85.54 151.668,85.276 150.972,84.964 C151.776,84.388 152.376,83.704 152.772,82.912 L152.772,82.168 L149.34,82.168 C149.484,81.88 149.616,81.58 149.724,81.268 L148.884,81.16 C148.524,82.168 147.852,83.02 146.868,83.716 L147.36,84.364 C147.648,84.148 147.912,83.932 148.164,83.692 C148.452,84.148 148.86,84.58 149.364,84.964 C148.644,85.3 147.792,85.588 146.82,85.816 L147.144,86.596 Z M144.672,92.212 L144.672,84.088 C145.092,83.296 145.44,82.444 145.728,81.544 L144.96,81.184 C144.42,83.044 143.556,84.688 142.368,86.128 L142.62,86.992 C143.064,86.512 143.472,85.996 143.844,85.456 L143.844,92.212 L144.672,92.212 Z M150.156,84.532 C149.52,84.124 149.04,83.656 148.704,83.116 C148.74,83.068 148.776,83.008 148.824,82.96 L151.836,82.96 C151.428,83.56 150.876,84.076 150.156,84.532 Z M146.52,90.1 L146.52,83.308 L145.74,83.308 L145.74,90.1 L146.52,90.1 Z M147.804,88.396 C148.62,88.132 149.28,87.868 149.784,87.604 C150.252,87.352 150.708,87.04 151.164,86.656 L150.54,86.26 C150.132,86.572 149.7,86.848 149.22,87.088 C148.668,87.34 148.056,87.544 147.384,87.712 L147.804,88.396 Z M148.032,90.172 C149.892,89.644 151.296,88.792 152.256,87.592 L151.68,87.148 C150.792,88.204 149.46,88.972 147.684,89.44 L148.032,90.172 Z M147.552,92.284 C148.704,91.972 149.82,91.504 150.9,90.904 C151.98,90.28 152.784,89.548 153.312,88.72 L152.7,88.264 C152.1,89.056 151.368,89.704 150.516,90.196 C149.664,90.7 148.56,91.132 147.192,91.492 L147.552,92.284 Z M157.236,92.284 C156.744,91.48 156.36,90.652 156.096,89.8 C155.736,88.744 155.568,87.7 155.568,86.68 C155.568,85.648 155.736,84.616 156.096,83.56 C156.36,82.696 156.744,81.868 157.236,81.076 L156.396,81.076 C155.868,81.844 155.46,82.672 155.16,83.548 C154.8,84.58 154.632,85.624 154.632,86.692 C154.632,87.736 154.8,88.78 155.16,89.812 C155.46,90.676 155.868,91.504 156.396,92.284 L157.236,92.284 Z M159.084,92.176 C159.372,91.468 159.588,90.712 159.756,89.896 C160.26,90.652 160.848,91.18 161.496,91.48 C162.21024,91.80256 163.964045,91.9813504 166.746798,91.9951375 L169.236,91.996 L169.38,91.132 C168.84,91.156 168.012,91.168 166.908,91.18 C164.364,91.18 162.732,91.048 162.024,90.808 C161.964,90.784 161.904,90.76 161.832,90.724 L161.832,88.636 L163.38,88.636 L163.38,87.844 L161.832,87.844 L161.832,86.152 L163.368,86.152 L163.368,85.36 L161.592,85.36 L161.592,83.584 L163.392,83.584 L163.392,82.816 L161.592,82.816 L161.592,81.184 L160.764,81.184 L160.764,82.816 L158.94,82.816 L158.94,83.584 L160.764,83.584 L160.764,85.36 L158.796,85.36 L158.796,86.152 L161.016,86.152 L161.016,90.208 C160.608,89.86 160.248,89.392 159.936,88.804 C160.008,88.228 160.056,87.628 160.08,87.004 L159.336,86.92 C159.288,88.648 158.988,90.22 158.46,91.612 L159.084,92.176 Z M164.16,86.176 C164.808,85.72 165.3,85.192 165.636,84.604 C165.9,84.1 166.104,83.428 166.26,82.576 L168.06,82.576 C168.048,83.812 167.988,84.568 167.892,84.856 C167.796,85.156 167.568,85.312 167.196,85.324 L166.32,85.264 L166.536,86.02 C166.872,86.044 167.148,86.068 167.388,86.068 C167.94,86.068 168.324,85.864 168.54,85.456 C168.768,85.048 168.888,83.824 168.888,81.784 L163.8,81.784 L163.8,82.576 L165.456,82.576 C165.336,83.248 165.144,83.788 164.892,84.208 C164.604,84.664 164.172,85.084 163.596,85.468 L164.16,86.176 Z M168.72,90.436 L168.72,86.704 L164.112,86.704 L164.112,90.436 L168.72,90.436 Z M167.928,89.68 L164.88,89.68 L164.88,87.472 L167.928,87.472 L167.928,89.68 Z M178.836,92.08 C179.58,92.08 179.952,91.696 179.952,90.94 L179.952,84.232 L181.428,84.232 L181.428,83.404 L179.952,83.404 L179.952,81.292 L179.076,81.292 L179.076,83.404 L174.924,83.404 L174.924,84.232 L179.076,84.232 L179.076,90.724 C179.076,91.096 178.896,91.288 178.548,91.288 C177.912,91.288 177.252,91.264 176.556,91.24 L176.736,92.08 L178.836,92.08 Z M171.756,91.228 L171.756,90.136 L173.532,90.136 L173.532,90.94 L174.372,90.94 L174.372,82.096 L170.916,82.096 L170.916,91.228 L171.756,91.228 Z M173.532,85.636 L171.756,85.636 L171.756,82.888 L173.532,82.888 L173.532,85.636 Z M177.096,89.128 L177.816,88.624 C177.42,87.784 176.844,86.8 176.1,85.672 L175.392,86.116 C176.112,87.22 176.676,88.228 177.096,89.128 Z M173.532,89.332 L171.756,89.332 L171.756,86.44 L173.532,86.44 L173.532,89.332 Z M185.64,91.168 C186.48,91.168 187.164,90.88 187.716,90.328 C188.256,89.776 188.532,89.068 188.532,88.228 C188.532,87.388 188.28,86.716 187.788,86.188 C187.284,85.66 186.624,85.396 185.808,85.396 C185.304,85.396 184.86,85.516 184.476,85.768 C184.068,86.008 183.768,86.356 183.552,86.8 L183.504,86.8 C183.4968,86.7064 183.49392,86.63008 183.492768,86.573632 L183.492,86.488 L183.492,86.488 C183.492,85.516 183.672,84.712 184.056,84.088 C184.44,83.416 184.968,83.092 185.64,83.092 C186.636,83.092 187.224,83.572 187.416,84.556 L188.388,84.556 C188.148,83.02 187.236,82.264 185.652,82.264 C184.68,82.264 183.912,82.708 183.348,83.608 C182.808,84.46 182.544,85.576 182.544,86.944 C182.544,88.252 182.784,89.272 183.288,90.004 C183.816,90.772 184.596,91.168 185.64,91.168 Z M185.616,90.34 C185.016,90.34 184.548,90.136 184.188,89.728 C183.828,89.344 183.66,88.852 183.66,88.252 C183.66,87.652 183.84,87.172 184.212,86.788 C184.584,86.404 185.052,86.212 185.616,86.212 C186.204,86.212 186.672,86.392 187.032,86.776 C187.38,87.136 187.56,87.616 187.56,88.228 C187.56,88.84 187.38,89.344 187.02,89.752 C186.66,90.136 186.192,90.34 185.616,90.34 Z M194.664,91 L194.664,89.056 L196.056,89.056 L196.056,88.252 L194.664,88.252 L194.664,82.432 L193.74,82.432 L189.42,88.12 L189.42,89.056 L193.728,89.056 L193.728,91 L194.664,91 Z M193.728,88.252 L190.248,88.252 L193.692,83.716 L193.728,83.716 L193.728,88.252 Z M199.212,91 L202.368,83.236 L202.368,82.432 L196.74,82.432 L196.74,83.332 L201.36,83.332 L198.168,91 L199.212,91 Z M208.428,91 L208.428,89.056 L209.82,89.056 L209.82,88.252 L208.428,88.252 L208.428,82.432 L207.504,82.432 L203.184,88.12 L203.184,89.056 L207.492,89.056 L207.492,91 L208.428,91 Z M207.492,88.252 L204.012,88.252 L207.456,83.716 L207.492,83.716 L207.492,88.252 Z M215.52,92.068 C216.336,92.068 216.756,91.636 216.756,90.796 L216.756,81.376 L215.868,81.376 L215.868,90.568 C215.868,91.012 215.64,91.24 215.196,91.24 C214.656,91.24 214.08,91.216 213.48,91.168 L213.684,92.068 L215.52,92.068 Z M220.884,90.028 L221.652,89.488 C221.148,87.892 220.416,86.02 219.468,83.872 L218.688,84.364 C219.612,86.44 220.344,88.324 220.884,90.028 Z M211.248,89.968 C212.184,88.72 212.94,86.896 213.516,84.496 L212.652,84.16 C212.172,86.32 211.464,88.036 210.504,89.308 L211.248,89.968 Z M231,92.08 C231.744,92.08 232.116,91.696 232.116,90.94 L232.116,84.232 L233.592,84.232 L233.592,83.404 L232.116,83.404 L232.116,81.292 L231.24,81.292 L231.24,83.404 L227.088,83.404 L227.088,84.232 L231.24,84.232 L231.24,90.724 C231.24,91.096 231.06,91.288 230.712,91.288 C230.076,91.288 229.416,91.264 228.72,91.24 L228.9,92.08 L231,92.08 Z M223.92,91.228 L223.92,90.136 L225.696,90.136 L225.696,90.94 L226.536,90.94 L226.536,82.096 L223.08,82.096 L223.08,91.228 L223.92,91.228 Z M225.696,85.636 L223.92,85.636 L223.92,82.888 L225.696,82.888 L225.696,85.636 Z M229.26,89.128 L229.98,88.624 C229.584,87.784 229.008,86.8 228.264,85.672 L227.556,86.116 C228.276,87.22 228.84,88.228 229.26,89.128 Z M225.696,89.332 L223.92,89.332 L223.92,86.44 L225.696,86.44 L225.696,89.332 Z M237.72,91.168 C238.608,91.168 239.328,90.916 239.88,90.412 C240.42,89.92 240.696,89.284 240.696,88.504 C240.696,88 240.552,87.58 240.264,87.244 C240,86.908 239.616,86.668 239.112,86.512 C240.048,86.2 240.516,85.552 240.516,84.592 C240.516,83.872 240.264,83.308 239.772,82.888 C239.268,82.468 238.596,82.264 237.78,82.264 C236.964,82.264 236.304,82.492 235.8,82.96 C235.272,83.428 234.96,84.076 234.888,84.904 L235.86,84.904 C235.92,84.328 236.112,83.884 236.448,83.572 C236.772,83.26 237.216,83.116 237.792,83.116 C238.344,83.116 238.788,83.248 239.1,83.536 C239.388,83.8 239.544,84.172 239.544,84.652 C239.544,85.132 239.388,85.504 239.088,85.768 C238.788,86.02 238.356,86.152 237.78,86.152 L237.12,86.152 L237.12,86.92 L237.816,86.92 C238.416,86.92 238.872,87.052 239.208,87.34 C239.544,87.628 239.712,88.024 239.712,88.54 C239.712,89.044 239.532,89.464 239.196,89.8 C238.824,90.148 238.332,90.328 237.72,90.328 C237.18,90.328 236.736,90.172 236.376,89.884 C235.956,89.536 235.728,89.02 235.704,88.348 L234.708,88.348 C234.78,89.308 235.116,90.04 235.728,90.544 C236.244,90.952 236.904,91.168 237.72,91.168 Z M252.156,86.356 L252.732,85.672 C250.944,84.604 249.708,83.14 249.012,81.292 L248.268,81.712 C249,83.608 250.296,85.156 252.156,86.356 Z M242.292,86.404 C243.288,85.732 244.092,85.048 244.692,84.352 C245.256,83.716 245.82,82.9 246.384,81.904 L245.628,81.448 C245.148,82.36 244.62,83.14 244.044,83.812 C243.384,84.568 242.64,85.18 241.824,85.648 L242.292,86.404 Z M242.94,92.236 C244.164,91.552 245.088,90.784 245.7,89.92 C246.216,89.152 246.612,88.108 246.9,86.8 L249.888,86.8 C249.828,88.672 249.696,89.884 249.48,90.46 C249.276,91.012 248.856,91.288 248.208,91.288 C247.584,91.288 246.924,91.276 246.228,91.252 L246.468,92.104 L248.652,92.104 C249.252,92.068 249.684,91.876 249.948,91.528 C250.224,91.168 250.416,90.52 250.536,89.608 C250.656,88.684 250.728,87.472 250.764,85.972 L243.6,85.972 L243.6,86.8 L246.024,86.8 C245.772,87.928 245.4,88.84 244.896,89.536 C244.332,90.256 243.492,90.916 242.388,91.516 L242.94,92.236 Z M256.92,91.168 C257.808,91.168 258.528,90.916 259.08,90.412 C259.62,89.92 259.896,89.284 259.896,88.504 C259.896,88 259.752,87.58 259.464,87.244 C259.2,86.908 258.816,86.668 258.312,86.512 C259.248,86.2 259.716,85.552 259.716,84.592 C259.716,83.872 259.464,83.308 258.972,82.888 C258.468,82.468 257.796,82.264 256.98,82.264 C256.164,82.264 255.504,82.492 255,82.96 C254.472,83.428 254.16,84.076 254.088,84.904 L255.06,84.904 C255.12,84.328 255.312,83.884 255.648,83.572 C255.972,83.26 256.416,83.116 256.992,83.116 C257.544,83.116 257.988,83.248 258.3,83.536 C258.588,83.8 258.744,84.172 258.744,84.652 C258.744,85.132 258.588,85.504 258.288,85.768 C257.988,86.02 257.556,86.152 256.98,86.152 L256.32,86.152 L256.32,86.92 L257.016,86.92 C257.616,86.92 258.072,87.052 258.408,87.34 C258.744,87.628 258.912,88.024 258.912,88.54 C258.912,89.044 258.732,89.464 258.396,89.8 C258.024,90.148 257.532,90.328 256.92,90.328 C256.38,90.328 255.936,90.172 255.576,89.884 C255.156,89.536 254.928,89.02 254.904,88.348 L253.908,88.348 C253.98,89.308 254.316,90.04 254.928,90.544 C255.444,90.952 256.104,91.168 256.92,91.168 Z M266.952,91 L266.952,90.124 L262.452,90.124 C262.608,89.548 263.232,88.888 264.324,88.156 C265.212,87.556 265.8,87.088 266.1,86.776 C266.652,86.176 266.94,85.504 266.94,84.76 C266.94,84.016 266.676,83.404 266.172,82.948 C265.656,82.492 265.008,82.264 264.216,82.264 C263.352,82.264 262.644,82.552 262.116,83.128 C261.588,83.692 261.312,84.46 261.312,85.42 L262.296,85.42 C262.308,84.664 262.488,84.088 262.824,83.704 C263.136,83.296 263.592,83.104 264.18,83.104 C264.732,83.104 265.176,83.248 265.488,83.536 C265.8,83.824 265.956,84.22 265.956,84.748 C265.956,85.3 265.728,85.816 265.296,86.284 C265.068,86.524 264.624,86.872 263.952,87.352 C263.04,87.976 262.428,88.492 262.092,88.876 C261.516,89.512 261.24,90.22 261.24,91 L266.952,91 Z M276.06,88.036 L276.06,81.22 L275.172,81.22 L275.172,88.036 L276.06,88.036 Z M270.972,92.152 L270.972,86.824 C271.356,87.28 271.824,87.916 272.376,88.72 L272.844,87.988 C272.208,87.268 271.584,86.632 270.972,86.08 L270.972,85.204 L272.46,85.204 L272.46,84.364 L270.972,84.364 L270.972,82.612 C271.572,82.48 272.124,82.336 272.64,82.168 L272.34,81.364 C271.212,81.76 269.904,82.024 268.44,82.168 L268.608,82.984 C269.136,82.924 269.64,82.852 270.144,82.768 L270.144,84.364 L268.404,84.364 L268.404,85.204 L270.108,85.204 C269.7,86.536 269.04,87.724 268.116,88.78 L268.488,89.74 C269.16,88.852 269.712,87.856 270.144,86.776 L270.144,92.152 L270.972,92.152 Z M278.484,86.308 L279.264,85.96 C278.736,84.808 278.112,83.716 277.392,82.708 L276.636,82.96 C277.308,83.92 277.92,85.036 278.484,86.308 Z M273.036,87.244 C273.624,86.092 274.08,84.736 274.404,83.164 L273.576,82.984 C273.312,84.376 272.88,85.636 272.292,86.776 L273.036,87.244 Z M272.292,92.164 C275.4,91.372 277.488,89.608 278.544,86.896 L277.812,86.464 C276.828,89.008 274.836,90.652 271.836,91.396 L272.292,92.164 Z M281.232,92.284 C281.748,91.504 282.156,90.676 282.468,89.812 C282.816,88.78 282.996,87.736 282.996,86.692 C282.996,85.624 282.816,84.58 282.468,83.548 C282.156,82.672 281.748,81.844 281.232,81.076 L280.392,81.076 C280.872,81.868 281.256,82.696 281.532,83.56 C281.88,84.616 282.06,85.648 282.06,86.68 C282.06,87.7 281.88,88.744 281.532,89.8 C281.256,90.652 280.872,91.48 280.392,92.284 L281.232,92.284 Z" id="[OBJ1002设备]年度设备检修(超时6474小时3分32秒)" fill="#262626" fill-rule="nonzero"></path>
        </g>
    </g>
</svg>