<?xml version="1.0" encoding="utf-8"?>
<!-- Generator: Adobe Illustrator 16.0.0, SVG Export Plug-In . SVG Version: 6.00 Build 0)  -->
<!DOCTYPE svg PUBLIC "-//W3C//DTD SVG 1.1//EN" "http://www.w3.org/Graphics/SVG/1.1/DTD/svg11.dtd">
<svg version="1.1" id="图层_1" xmlns="http://www.w3.org/2000/svg" xmlns:xlink="http://www.w3.org/1999/xlink" x="0px" y="0px"
	 width="452px" height="187px" viewBox="0 0 452 187" enable-background="new 0 0 452 187" xml:space="preserve">
<title>工单任务</title>
<g id="门户">
	<g id="编组-8_1_" transform="translate(12.000000, 10.000000)">
		<g id="Pagination_x2F_Default_x2F_Large_x2F_Normal备份-2" transform="translate(99.000000, 124.000000)">
			<g id="编组" transform="translate(26.000000, 1.000000)">
				<path id="Rectangle-3-Copy-35" fill="none" stroke="#1F7BFC" d="M0,1.002C0,0.449,0.44,0,1.002,0h19.995
					C21.551,0,22,0.439,22,1.002v19.996C22,21.551,21.561,22,20.997,22H1.002C0.448,22,0,21.561,0,20.998V1.002z"/>
				<path id="_x31_" fill="#3081F2" d="M12.768,15V6.432h-0.983c-0.288,0.313-0.648,0.588-1.08,0.853
					c-0.433,0.239-0.828,0.407-1.212,0.504v1.296c0.792-0.229,1.451-0.588,1.968-1.08V15H12.768z"/>
			</g>
			<g id="编组-2" transform="translate(52.000000, 1.000000)">
				<path id="Rectangle-3-Copy-35备份" fill="none" d="M0,1.991C0,0.892,0.89,0,1.991,0h18.018C21.109,0,22,0.89,22,1.991v18.018
					c0,1.1-0.89,1.991-1.991,1.991H1.991C0.892,22,0,21.11,0,20.009V1.991z"/>
				<path id="_x32_" fill-opacity="0.85" d="M13.456,15v-0.876h-4.5c0.155-0.576,0.779-1.235,1.872-1.968
					c0.888-0.6,1.476-1.068,1.775-1.381c0.552-0.6,0.84-1.271,0.84-2.016s-0.264-1.355-0.768-1.812
					c-0.516-0.456-1.164-0.685-1.956-0.685c-0.864,0-1.572,0.288-2.1,0.864C8.092,7.691,7.816,8.46,7.816,9.42H8.8
					c0.012-0.756,0.192-1.332,0.528-1.716c0.312-0.408,0.768-0.601,1.355-0.601c0.552,0,0.996,0.145,1.309,0.433
					c0.312,0.288,0.468,0.684,0.468,1.212c0,0.552-0.229,1.068-0.66,1.536c-0.229,0.239-0.672,0.588-1.344,1.067
					c-0.912,0.625-1.524,1.141-1.86,1.524C8.02,13.512,7.744,14.22,7.744,15H13.456z"/>
			</g>
			<g id="编组-4" transform="translate(78.000000, 1.000000)">
				<path id="Rectangle-3-Copy-35备份-2" fill="none" d="M0,1.991C0,0.892,0.89,0,1.991,0h18.018C21.109,0,22,0.89,22,1.991
					v18.018c0,1.1-0.89,1.991-1.991,1.991H1.991C0.892,22,0,21.11,0,20.009V1.991z"/>
				<path id="_x33_" fill-opacity="0.85" d="M10.624,15.168c0.888,0,1.607-0.252,2.16-0.756c0.54-0.492,0.815-1.128,0.815-1.908
					c0-0.504-0.144-0.924-0.432-1.26c-0.265-0.336-0.648-0.576-1.152-0.732c0.937-0.312,1.404-0.96,1.404-1.92
					c0-0.72-0.252-1.283-0.744-1.703c-0.504-0.421-1.176-0.625-1.992-0.625c-0.815,0-1.476,0.229-1.979,0.696
					C8.176,7.428,7.864,8.076,7.792,8.904h0.972c0.061-0.576,0.252-1.021,0.588-1.332c0.324-0.313,0.769-0.456,1.344-0.456
					c0.553,0,0.996,0.132,1.309,0.42c0.288,0.264,0.443,0.636,0.443,1.116c0,0.479-0.155,0.852-0.455,1.115
					c-0.301,0.252-0.732,0.385-1.309,0.385h-0.66v0.768h0.696c0.6,0,1.056,0.132,1.392,0.42s0.505,0.684,0.505,1.2
					c0,0.504-0.181,0.924-0.517,1.26c-0.372,0.349-0.864,0.528-1.476,0.528c-0.54,0-0.984-0.156-1.345-0.444
					c-0.42-0.348-0.647-0.864-0.672-1.536H7.612c0.072,0.961,0.408,1.692,1.021,2.196C9.148,14.952,9.808,15.168,10.624,15.168z"/>
			</g>
			<g id="编组-5" transform="translate(104.000000, 1.000000)">
				<path id="Rectangle-3-Copy-35备份-3" fill="none" d="M0,1.991C0,0.892,0.89,0,1.991,0h18.018C21.109,0,22,0.89,22,1.991
					v18.018c0,1.1-0.89,1.991-1.991,1.991H1.991C0.892,22,0,21.11,0,20.009V1.991z"/>
				<path id="_x34_" fill-opacity="0.85" d="M12.532,15v-1.943h1.392v-0.805h-1.392v-5.82h-0.925L7.288,12.12v0.937h4.308V15H12.532
					z M11.596,12.252H8.116l3.443-4.536h0.036V12.252z"/>
			</g>
			<g id="编组-7" transform="translate(130.000000, 1.000000)">
				<path id="Rectangle-3-Copy-35备份-4" fill="none" d="M0,1.991C0,0.892,0.89,0,1.991,0h18.018C21.109,0,22,0.89,22,1.991
					v18.018c0,1.1-0.89,1.991-1.991,1.991H1.991C0.892,22,0,21.11,0,20.009V1.991z"/>
				<path id="_x35_" fill-opacity="0.85" d="M10.528,15.168c0.841,0,1.561-0.264,2.137-0.779c0.611-0.553,0.924-1.261,0.924-2.125
					c0-0.924-0.264-1.644-0.769-2.172c-0.504-0.516-1.164-0.768-1.979-0.768c-0.396,0-0.756,0.06-1.092,0.203
					c-0.372,0.145-0.685,0.361-0.924,0.648H8.776l0.288-2.867h4.176V6.432H8.26L7.804,11.16H8.74c0.169-0.336,0.433-0.6,0.769-0.768
					c0.324-0.181,0.684-0.265,1.092-0.265c0.624,0,1.116,0.181,1.464,0.563c0.36,0.373,0.553,0.9,0.553,1.584
					c0,0.601-0.204,1.093-0.589,1.477c-0.396,0.384-0.888,0.576-1.487,0.576c-0.528,0-0.973-0.133-1.309-0.385
					c-0.384-0.287-0.6-0.707-0.647-1.248H7.612c0.061,0.781,0.385,1.404,0.984,1.861C9.124,14.964,9.772,15.168,10.528,15.168z"/>
			</g>
			<g id="编组-8" transform="translate(156.000000, 0.000000)">
				<path id="Rectangle-3-Copy-35备份-5" fill="none" d="M0,3.991C0,2.892,0.89,2,1.991,2h18.018C21.109,2,22,2.89,22,3.991
					v18.018c0,1.1-0.89,1.991-1.991,1.991H1.991C0.892,24,0,23.11,0,22.009V3.991z"/>
				<g id="_x2026_-copy-2" transform="translate(5.000000, 0.000000)">
					<path id="_x2026_" fill-opacity="0.85" d="M1.992,13c0.203,0,0.384-0.072,0.527-0.204c0.132-0.132,0.204-0.3,0.204-0.516
						c0-0.204-0.072-0.372-0.204-0.505c-0.144-0.144-0.312-0.203-0.527-0.203c-0.204,0-0.372,0.06-0.505,0.203
						c-0.144,0.133-0.216,0.301-0.216,0.505s0.072,0.372,0.216,0.516C1.62,12.928,1.788,13,1.992,13z M6,13
						c0.204,0,0.384-0.072,0.527-0.204c0.133-0.132,0.204-0.3,0.204-0.516c0-0.204-0.071-0.372-0.204-0.505
						C6.384,11.632,6.204,11.572,6,11.572s-0.372,0.06-0.517,0.203C5.34,11.908,5.28,12.076,5.28,12.28s0.061,0.372,0.204,0.516
						C5.628,12.928,5.796,13,6,13z M9.996,13c0.204,0,0.372-0.072,0.516-0.204s0.216-0.3,0.216-0.516
						c0-0.204-0.072-0.372-0.216-0.505c-0.144-0.144-0.312-0.203-0.516-0.203s-0.372,0.06-0.517,0.203
						c-0.144,0.133-0.204,0.301-0.204,0.505s0.061,0.372,0.204,0.516C9.624,12.928,9.792,13,9.996,13z"/>
				</g>
			</g>
			<g id="编组-9" transform="translate(182.000000, 1.000000)">
				<path id="Rectangle-3-Copy-35备份-6" fill="none" d="M0,1.991C0,0.892,0.89,0,1.991,0h18.018C21.109,0,22,0.89,22,1.991
					v18.018C22,21.108,21.11,22,20.009,22H1.991C0.892,22,0,21.11,0,20.009V1.991z"/>
				<path id="_x39_" fill-opacity="0.85" d="M10.491,15.168c0.96,0,1.729-0.456,2.305-1.344c0.527-0.864,0.804-1.969,0.804-3.336
					c0-1.32-0.252-2.353-0.756-3.072c-0.528-0.768-1.309-1.152-2.34-1.152c-0.841,0-1.536,0.276-2.076,0.84
					C7.876,7.656,7.612,8.352,7.612,9.204c0,0.828,0.24,1.5,0.732,2.016c0.504,0.54,1.164,0.816,1.992,0.816
					c0.504,0,0.947-0.132,1.332-0.372c0.396-0.252,0.708-0.6,0.924-1.032h0.048c0,0.144,0.012,0.252,0.012,0.312
					c0,0.961-0.191,1.765-0.563,2.4c-0.396,0.66-0.925,0.996-1.584,0.996c-1.009,0-1.597-0.492-1.776-1.464H7.756
					C7.984,14.4,8.896,15.168,10.491,15.168z M10.528,11.22c-0.6,0-1.067-0.192-1.416-0.563c-0.359-0.36-0.527-0.852-0.527-1.452
					c0-0.624,0.168-1.128,0.527-1.524c0.36-0.396,0.828-0.588,1.416-0.588s1.068,0.204,1.428,0.612
					c0.349,0.384,0.528,0.876,0.528,1.476c0,0.588-0.192,1.08-0.552,1.465C11.548,11.027,11.079,11.22,10.528,11.22z"/>
			</g>
			<g id="编组-10" transform="translate(0.000000, 1.000000)">
				<path id="Rectangle-3-Copy-35备份-7" fill="none" d="M0,1.991C0,0.892,0.89,0,1.991,0h18.018C21.109,0,22,0.89,22,1.991
					v18.018c0,1.1-0.89,1.991-1.991,1.991H1.991C0.892,22,0,21.11,0,20.009V1.991z"/>
				<g id="Group-Copy-22" transform="translate(7.000000, 7.000000)">
					<rect id="Rectangle" x="0" fill="none" width="8" height="8"/>
					<path id="down" fill="#595959" d="M1.75,3.998c0-0.092,0.035-0.177,0.104-0.238l0,0l3.375-3.039
						C5.357,0.605,5.554,0.615,5.67,0.744C5.785,0.872,5.775,1.07,5.647,1.186l0,0l-3.13,2.818l3.13,2.818
						C5.775,6.938,5.785,7.135,5.67,7.264C5.554,7.392,5.357,7.402,5.229,7.287L1.854,4.248C1.785,4.187,1.75,4.102,1.75,4.017
						c0.001-0.002,0-0.005,0-0.007V3.998L1.75,3.998z"/>
				</g>
			</g>
			
				<g id="编组-10备份" transform="translate(219.000000, 12.000000) scale(-1, 1) translate(-219.000000, -12.000000) translate(208.000000, 1.000000)">
				<path id="Rectangle-3-Copy-35备份-7_1_" fill="none" d="M0,1.991C0,0.892,0.89,0,1.991,0H20.01C21.109,0,22,0.89,22,1.991
					v18.018c0,1.1-0.89,1.991-1.99,1.991H1.991C0.891,22,0,21.11,0,20.009V1.991z"/>
				<g id="Group-Copy-22_1_" transform="translate(7.000000, 7.000000)">
					<rect id="Rectangle_1_" x="0" y="8" fill="none" width="8" height="-8"/>
					<path id="down_1_" fill="#595959" d="M1.751,3.998c0-0.092,0.034-0.177,0.103-0.238l0,0l3.375-3.039
						C5.357,0.605,5.554,0.615,5.67,0.744C5.786,0.872,5.775,1.07,5.647,1.186l0,0l-3.13,2.818l3.13,2.818
						C5.775,6.938,5.786,7.135,5.67,7.264C5.554,7.392,5.357,7.402,5.228,7.287L1.853,4.248C1.786,4.187,1.751,4.102,1.75,4.017
						C1.751,4.015,1.751,4.012,1.751,4.01V3.998L1.751,3.998z"/>
				</g>
			</g>
		</g>
		<path id="工单任务" fill-opacity="0.85" d="M15.168,17.656v-1.472H8.784V6.456h5.376V5H1.888v1.456h5.36v9.728h-6.4v1.472
			H15.168z M24.752,18.712v-2.864h6.399v-1.44h-6.399v-1.264h4.943V6.28h-2.911c0.447-0.608,0.848-1.28,1.199-2.016l-1.472-0.528
			c-0.368,0.896-0.8,1.744-1.312,2.544h-3.232l0.96-0.48c-0.48-0.736-0.992-1.392-1.536-1.984l-1.264,0.608
			c0.496,0.544,0.96,1.168,1.408,1.856h-3.232v6.864h4.944v1.264h-6.4v1.44h6.4v2.864H24.752z M23.248,9.048h-3.473v-1.44h3.473
			V9.048z M28.224,9.048h-3.472v-1.44h3.472V9.048z M28.224,11.8h-3.472v-1.472h3.472V11.8z M23.248,11.8h-3.473v-1.472h3.473V11.8z
			 M35.968,18.68V8.024c0.656-1.104,1.184-2.272,1.6-3.488L36.144,3.88c-0.784,2.4-2,4.512-3.664,6.32l0.496,1.616
			c0.528-0.544,1.024-1.088,1.488-1.648v8.512H35.968z M46.512,18.104v-1.488h-3.728V12.04h4.527v-1.488h-4.527v-4.08
			c1.472-0.192,2.783-0.464,3.903-0.848l-0.752-1.28c-2.24,0.64-4.992,0.96-8.271,0.96l0.479,1.424c1.088,0,2.128-0.048,3.12-0.112
			v3.936h-4.512v1.488h4.512v4.576h-3.712v1.488H46.512z M49.328,11.944c2.527-0.384,4.768-1.008,6.688-1.872
			c1.984,0.944,4.225,1.552,6.704,1.84l0.688-1.424c-2.112-0.192-4.017-0.624-5.729-1.264c1.36-0.8,2.528-1.76,3.488-2.864V5.128
			H54.32c0.192-0.336,0.368-0.704,0.528-1.088l-1.552-0.224c-0.656,1.552-1.92,2.864-3.792,3.936l0.928,1.216
			c0.656-0.4,1.248-0.832,1.792-1.296c0.656,0.544,1.36,1.056,2.128,1.504c-1.664,0.624-3.584,1.072-5.728,1.344L49.328,11.944z
			 M56,8.472c-1.008-0.512-1.937-1.12-2.769-1.808c0.017-0.032,0.048-0.064,0.097-0.112h5.615C58.08,7.288,57.104,7.928,56,8.472z
			 M49.76,18.696c2.96-0.944,4.832-2.128,5.632-3.568c0.192-0.336,0.353-0.704,0.496-1.088h4.336
			c-0.048,1.408-0.176,2.288-0.384,2.624c-0.208,0.32-0.72,0.496-1.536,0.512c-0.512-0.032-1.184-0.064-2.016-0.096l0.384,1.376
			c0.768,0.048,1.439,0.08,1.983,0.08c1.12,0,1.921-0.288,2.368-0.832c0.448-0.544,0.688-2.224,0.721-5.024h-5.521
			c0.08-0.512,0.128-1.056,0.128-1.632h-1.504c0,0.576-0.063,1.12-0.16,1.632h-4.96v1.36h4.496
			c-0.096,0.208-0.224,0.416-0.352,0.624c-0.801,1.104-2.513,2.032-5.12,2.8L49.76,18.696z"/>
		<path id="报销流程_xFF1A_01.填报销单" display="none" fill="#262626" d="M2.22,52.164c0.696,0,1.044-0.36,1.044-1.08
			v-3.576c0.468-0.192,0.924-0.408,1.38-0.636V46.02c-0.456,0.24-0.912,0.456-1.38,0.66v-2.448h1.344v-0.828H3.264v-2.172H2.412
			v2.172h-1.74v0.828h1.74v2.784c-0.624,0.216-1.261,0.408-1.92,0.564l0.216,0.852c0.576-0.18,1.151-0.372,1.704-0.576v3.024
			c0,0.336-0.168,0.516-0.492,0.516s-0.66-0.024-1.008-0.06l0.191,0.828H2.22z M6.816,52.212c0.816-0.408,1.524-0.948,2.101-1.608
			c0.552,0.552,1.235,1.068,2.027,1.572l0.576-0.66c-0.84-0.468-1.548-0.972-2.124-1.524c0.624-0.9,1.044-1.992,1.284-3.264v-0.744
			H6.12V42.48h3.624c-0.024,0.744-0.072,1.236-0.156,1.464c-0.084,0.144-0.192,0.228-0.324,0.276
			c-0.144,0.024-0.372,0.048-0.66,0.048s-0.516-0.012-0.708-0.012l0.24,0.756H9c0.768,0,1.224-0.228,1.368-0.66
			c0.132-0.444,0.203-1.332,0.203-2.664H5.304V52.2H6.12v-5.424h0.695c0.192,1.152,0.696,2.22,1.524,3.204
			c-0.528,0.6-1.176,1.092-1.944,1.476L6.816,52.212z M8.808,49.356c-0.647-0.78-1.044-1.644-1.212-2.58h2.256
			C9.636,47.76,9.288,48.624,8.808,49.356z M13.164,45.624c0.432-0.672,0.804-1.428,1.128-2.256h2.483v-0.816H14.58
			c0.12-0.372,0.228-0.756,0.336-1.164l-0.84-0.168c-0.336,1.44-0.876,2.76-1.62,3.96L13.164,45.624z M18.444,52.164v-2.652h3.66
			v1.26c0,0.372-0.156,0.564-0.456,0.564L20.496,51.3l0.228,0.828h1.2c0.696,0,1.044-0.396,1.044-1.164v-6.408h-2.256v-3.324H19.86
			v3.324H17.58v7.608H18.444z M22.128,44.052c0.468-0.696,0.852-1.404,1.151-2.136l-0.72-0.336c-0.288,0.696-0.66,1.392-1.14,2.112
			L22.128,44.052z M18.396,44.052l0.696-0.348C18.744,42.972,18.384,42.3,18,41.688l-0.732,0.348
			C17.676,42.624,18.048,43.296,18.396,44.052z M14.484,51.912c0.996-0.264,1.872-0.612,2.628-1.032l-0.144-0.768
			c-0.552,0.324-1.104,0.588-1.644,0.78v-2.82h1.655v-0.804h-1.655v-1.512h1.247v-0.78h-2.855v0.78h0.768v1.512h-1.655v0.804h1.655
			v2.736c0,0.156-0.12,0.276-0.359,0.36L14.484,51.912z M22.104,46.704h-3.66v-1.332h3.66V46.704z M22.104,48.768h-3.66v-1.32h3.66
			V48.768z M34.452,46.644l0.708-0.504c-0.433-0.744-1.044-1.596-1.86-2.58l-0.708,0.42c0.288,0.36,0.552,0.708,0.816,1.056
			c-1.368,0.168-2.736,0.288-4.116,0.36c0.432-0.468,0.924-1.2,1.487-2.196h4.381v-0.78h-3.156c-0.168-0.504-0.336-0.96-0.528-1.368
			L30.6,41.196c0.192,0.372,0.372,0.78,0.54,1.224h-3.348v0.78h2.1c-0.72,1.188-1.296,1.92-1.752,2.208
			c-0.048,0.024-0.107,0.048-0.18,0.072l0.191,0.732c2.064-0.12,3.984-0.276,5.748-0.48C34.092,46.044,34.284,46.344,34.452,46.644z
			 M26.808,43.524l0.612-0.612c-0.504-0.516-1.116-1.032-1.849-1.548l-0.624,0.6C25.74,42.516,26.352,43.032,26.808,43.524z
			 M26.568,46.596l0.612-0.624c-0.504-0.576-1.14-1.164-1.896-1.74l-0.612,0.6C25.476,45.456,26.112,46.044,26.568,46.596z
			 M27.576,52.188c0.672-0.552,1.164-1.212,1.451-1.98c0.265-0.732,0.42-1.884,0.469-3.456h-0.841
			c-0.048,1.416-0.18,2.448-0.407,3.084c-0.24,0.648-0.648,1.2-1.225,1.668L27.576,52.188z M31.476,51.96v-5.196H30.6v5.196H31.476z
			 M34.368,52.08c0.479-0.024,0.779-0.156,0.924-0.372c0.144-0.24,0.216-0.888,0.216-1.944l-0.756-0.288
			c0,0.636-0.024,1.104-0.072,1.392c-0.024,0.264-0.144,0.396-0.36,0.42h-0.527c-0.156-0.024-0.229-0.12-0.229-0.3v-4.224h-0.828
			v4.38c0,0.624,0.336,0.936,1.032,0.936H34.368z M25.704,52.044c0.575-1.344,1.092-2.784,1.571-4.32l-0.768-0.3
			c-0.456,1.464-0.984,2.88-1.608,4.272L25.704,52.044z M39.276,52.152V46.74c0.336,0.444,0.757,1.044,1.236,1.788l0.48-0.72
			c-0.576-0.684-1.152-1.308-1.717-1.86v-0.636h1.549v-0.828h-1.549V42.6c0.601-0.12,1.177-0.252,1.717-0.408l-0.301-0.816
			c-1.151,0.36-2.483,0.612-3.983,0.756l0.168,0.816c0.54-0.06,1.067-0.132,1.572-0.204v1.74h-1.753v0.828h1.668
			c-0.384,1.368-1.031,2.58-1.943,3.648l0.372,0.96c0.684-0.948,1.235-2.004,1.656-3.18v5.412H39.276z M46.632,45.108V41.64h-4.98
			v3.468H46.632z M45.792,44.328h-3.288v-1.92h3.288V44.328z M47.436,51.768v-0.816h-2.903v-1.62h2.243v-0.78h-2.243v-1.536h2.615
			v-0.792h-5.964v0.792h2.46v1.536H41.46v0.78h2.184v1.62h-2.939v0.816H47.436z M51,45.168c0.204,0,0.384-0.072,0.527-0.216
			c0.145-0.144,0.217-0.312,0.217-0.516c0-0.216-0.072-0.384-0.217-0.516c-0.144-0.156-0.323-0.228-0.527-0.228
			c-0.216,0-0.384,0.072-0.528,0.228c-0.144,0.132-0.204,0.3-0.204,0.516c0,0.204,0.061,0.372,0.204,0.516
			C50.616,45.096,50.784,45.168,51,45.168z M51,49.56c0.204,0,0.384-0.072,0.527-0.216c0.145-0.144,0.217-0.312,0.217-0.516
			c0-0.216-0.072-0.384-0.217-0.516c-0.144-0.156-0.323-0.228-0.527-0.228c-0.216,0-0.384,0.072-0.528,0.228
			c-0.144,0.132-0.204,0.3-0.204,0.516c0,0.204,0.061,0.372,0.204,0.516C50.616,49.488,50.784,49.56,51,49.56z M63.6,51.168
			c1.021,0,1.788-0.456,2.316-1.356c0.456-0.768,0.684-1.8,0.684-3.096c0-1.296-0.228-2.328-0.684-3.096
			c-0.528-0.912-1.296-1.356-2.316-1.356c-1.032,0-1.8,0.444-2.315,1.356c-0.456,0.768-0.685,1.8-0.685,3.096
			c0,1.296,0.229,2.328,0.685,3.096C61.8,50.712,62.568,51.168,63.6,51.168z M63.6,50.328c-0.768,0-1.32-0.42-1.656-1.236
			c-0.239-0.588-0.359-1.38-0.359-2.376c0-1.008,0.12-1.8,0.359-2.376c0.336-0.828,0.889-1.236,1.656-1.236
			c0.769,0,1.32,0.408,1.656,1.236c0.24,0.576,0.372,1.368,0.372,2.376c0,0.996-0.132,1.788-0.372,2.376
			C64.92,49.908,64.368,50.328,63.6,50.328z M70.728,51v-8.568H69.96c-0.288,0.324-0.624,0.612-1.032,0.876
			c-0.408,0.24-0.816,0.408-1.2,0.516v0.984c0.805-0.24,1.477-0.624,2.017-1.176V51H70.728z M73.596,51.048
			c0.192,0,0.372-0.072,0.516-0.216c0.145-0.144,0.217-0.312,0.217-0.516c0-0.216-0.072-0.384-0.217-0.528
			c-0.144-0.144-0.323-0.216-0.516-0.216c-0.216,0-0.384,0.072-0.516,0.216c-0.145,0.144-0.217,0.312-0.217,0.528
			c0,0.204,0.072,0.372,0.217,0.516C73.212,50.976,73.38,51.048,73.596,51.048z M86.736,49.932v-0.768h-1.104V43.62h-2.4
			c0.036-0.252,0.072-0.516,0.12-0.78h2.964v-0.756h-2.868c0.024-0.264,0.061-0.528,0.085-0.816l-0.841-0.12l-0.084,0.936l0,0H79.56
			v0.756h2.964c-0.036,0.252-0.071,0.516-0.12,0.78h-2.147v5.544H79.14v0.768H86.736z M75.9,50.1
			c1.164-0.276,2.256-0.612,3.265-1.02v-0.852c-0.396,0.168-0.805,0.324-1.212,0.468v-3.744h1.235v-0.816h-1.235v-2.892h-0.828
			v2.892H75.78v0.816h1.345v3.996c-0.48,0.12-0.96,0.228-1.44,0.324L75.9,50.1z M84.816,45.06h-3.744v-0.756h3.744V45.06z
			 M84.816,46.404h-3.744v-0.732h3.744V46.404z M84.816,47.76h-3.744v-0.732h3.744V47.76z M84.816,49.164h-3.744v-0.78h3.744V49.164
			z M79.608,52.248c1.032-0.468,1.896-1.02,2.593-1.644l-0.576-0.516c-0.685,0.576-1.524,1.08-2.532,1.512L79.608,52.248z
			 M86.064,52.248l0.528-0.6c-0.72-0.6-1.488-1.116-2.316-1.548l-0.54,0.492C84.564,51.06,85.344,51.612,86.064,52.248z
			 M89.4,52.164c0.696,0,1.044-0.36,1.044-1.08v-3.576c0.469-0.192,0.925-0.408,1.381-0.636V46.02
			c-0.456,0.24-0.912,0.456-1.381,0.66v-2.448h1.345v-0.828h-1.345v-2.172h-0.852v2.172h-1.74v0.828h1.74v2.784
			c-0.624,0.216-1.26,0.408-1.92,0.564l0.216,0.852c0.576-0.18,1.152-0.372,1.704-0.576v3.024c0,0.336-0.168,0.516-0.492,0.516
			s-0.66-0.024-1.008-0.06l0.192,0.828H89.4z M93.996,52.212c0.815-0.408,1.523-0.948,2.1-1.608
			c0.552,0.552,1.236,1.068,2.028,1.572l0.576-0.66c-0.841-0.468-1.549-0.972-2.124-1.524c0.624-0.9,1.044-1.992,1.283-3.264v-0.744
			H93.3V42.48h3.624c-0.024,0.744-0.072,1.236-0.156,1.464c-0.084,0.144-0.191,0.228-0.324,0.276
			c-0.144,0.024-0.372,0.048-0.659,0.048c-0.288,0-0.517-0.012-0.708-0.012l0.239,0.756h0.864c0.768,0,1.224-0.228,1.368-0.66
			c0.132-0.444,0.204-1.332,0.204-2.664h-5.269V52.2H93.3v-5.424h0.696c0.191,1.152,0.695,2.22,1.523,3.204
			c-0.527,0.6-1.176,1.092-1.943,1.476L93.996,52.212z M95.988,49.356c-0.647-0.78-1.044-1.644-1.212-2.58h2.257
			C96.816,47.76,96.468,48.624,95.988,49.356z M100.344,45.624c0.432-0.672,0.804-1.428,1.128-2.256h2.484v-0.816h-2.196
			c0.12-0.372,0.228-0.756,0.336-1.164l-0.84-0.168c-0.336,1.44-0.876,2.76-1.62,3.96L100.344,45.624z M105.624,52.164v-2.652h3.66
			v1.26c0,0.372-0.156,0.564-0.456,0.564l-1.152-0.036l0.228,0.828h1.2c0.696,0,1.044-0.396,1.044-1.164v-6.408h-2.256v-3.324
			h-0.852v3.324h-2.28v7.608H105.624z M109.308,44.052c0.468-0.696,0.853-1.404,1.152-2.136l-0.721-0.336
			c-0.287,0.696-0.659,1.392-1.14,2.112L109.308,44.052z M105.576,44.052l0.695-0.348c-0.348-0.732-0.708-1.404-1.092-2.016
			l-0.732,0.348C104.856,42.624,105.228,43.296,105.576,44.052z M101.664,51.912c0.996-0.264,1.872-0.612,2.628-1.032l-0.145-0.768
			c-0.552,0.324-1.104,0.588-1.644,0.78v-2.82h1.656v-0.804h-1.656v-1.512h1.248v-0.78h-2.856v0.78h0.769v1.512h-1.656v0.804h1.656
			v2.736c0,0.156-0.12,0.276-0.36,0.36L101.664,51.912z M109.284,46.704h-3.66v-1.332h3.66V46.704z M109.284,48.768h-3.66v-1.32
			h3.66V48.768z M117.612,52.236v-2.28h4.896V49.14h-4.896V48h3.757v-4.932h-2.305c0.36-0.492,0.685-1.044,0.973-1.656l-0.841-0.3
			c-0.3,0.696-0.647,1.356-1.031,1.956h-5.172V48h3.756v1.14h-4.896v0.816h4.896v2.28H117.612z M115.524,43.056l0.721-0.36
			c-0.36-0.552-0.732-1.068-1.128-1.524l-0.732,0.348C114.792,41.976,115.164,42.48,115.524,43.056z M116.748,45.144h-2.916v-1.32
			h2.916V45.144z M120.528,45.144h-2.916v-1.32h2.916V45.144z M120.528,47.232h-2.916v-1.344h2.916V47.232z M116.748,47.232h-2.916
			v-1.344h2.916V47.232z"/>
		<rect id="矩形" x="0" y="66" fill="#E5E5E5" width="428" height="1"/>
		<rect id="矩形备份-13" x="0" y="105" fill="#E5E5E5" width="428" height="1"/>
		<path id="请加流程_xFF1A_01.填请假单" display="none" fill="#262626" d="M11.472,85.72V85H8.196v-0.816h2.545v-0.696
			H8.196v-0.804h2.977v-0.708H8.196v-0.78H7.368v0.78H4.464v0.708h2.904v0.804H4.944v0.696h2.425V85h-3.24v0.72H11.472z
			 M3.396,83.752l0.588-0.6c-0.552-0.612-1.224-1.224-2.027-1.824l-0.612,0.588C2.208,82.564,2.892,83.176,3.396,83.752z
			 M2.28,91.78c0.744-0.54,1.465-1.164,2.137-1.86l-0.229-0.912c-0.408,0.42-0.779,0.792-1.14,1.128v-5.268H0.504v0.827H2.22v4.765
			c0,0.204-0.096,0.384-0.276,0.552L2.28,91.78z M5.868,92.2v-1.908h3.876v0.685c0,0.275-0.156,0.42-0.444,0.42l-0.96-0.037
			l0.204,0.769h1.008c0.672,0,1.02-0.323,1.02-0.972v-4.68H5.04V92.2H5.868z M9.744,88.072H5.868v-0.889h3.876V88.072z M9.744,89.62
			H5.868v-0.876h3.876V89.62z M13.08,92.248c1.536-1.632,2.328-4.212,2.376-7.752h1.596c-0.024,3.216-0.072,5.148-0.144,5.771
			c-0.097,0.685-0.456,1.032-1.068,1.032c-0.288,0-0.624-0.024-1.008-0.048l0.216,0.792c0.432,0.024,0.731,0.048,0.912,0.048
			c1.056,0,1.644-0.504,1.764-1.488c0.12-0.888,0.18-3.203,0.18-6.947h-2.447v-2.424h-0.864v2.424h-1.92v0.84h1.92
			c-0.036,3.288-0.756,5.688-2.148,7.188L13.08,92.248z M19.836,92.02v-0.804h2.256v0.804h0.84v-9.036h-3.924v9.036H19.836z
			 M22.092,90.389h-2.256v-6.577h2.256V90.389z M34.452,86.645l0.708-0.504c-0.433-0.744-1.044-1.597-1.86-2.581l-0.708,0.42
			c0.288,0.36,0.552,0.708,0.816,1.056c-1.368,0.168-2.736,0.288-4.116,0.36c0.432-0.469,0.924-1.201,1.487-2.196h4.381v-0.78
			h-3.156c-0.168-0.504-0.336-0.96-0.528-1.368L30.6,81.196c0.192,0.372,0.372,0.78,0.54,1.224h-3.348v0.78h2.1
			c-0.72,1.188-1.296,1.92-1.752,2.208c-0.048,0.023-0.107,0.048-0.18,0.072l0.191,0.731c2.064-0.12,3.984-0.276,5.748-0.479
			C34.092,86.044,34.284,86.344,34.452,86.645z M26.808,83.524l0.612-0.612c-0.504-0.516-1.116-1.032-1.849-1.548l-0.624,0.6
			C25.74,82.516,26.352,83.032,26.808,83.524z M26.568,86.596l0.612-0.623c-0.504-0.576-1.14-1.164-1.896-1.74l-0.612,0.6
			C25.476,85.456,26.112,86.044,26.568,86.596z M27.576,92.188c0.672-0.552,1.164-1.211,1.451-1.979
			c0.265-0.731,0.42-1.884,0.469-3.456h-0.841c-0.048,1.416-0.18,2.448-0.407,3.084c-0.24,0.648-0.648,1.2-1.225,1.668
			L27.576,92.188z M31.476,91.96v-5.196H30.6v5.196H31.476z M34.368,92.08c0.479-0.023,0.779-0.156,0.924-0.372
			c0.144-0.24,0.216-0.888,0.216-1.944l-0.756-0.287c0,0.635-0.024,1.104-0.072,1.392c-0.024,0.264-0.144,0.396-0.36,0.42h-0.527
			c-0.156-0.024-0.229-0.12-0.229-0.3v-4.225h-0.828v4.381c0,0.623,0.336,0.936,1.032,0.936H34.368z M25.704,92.044
			c0.575-1.344,1.092-2.784,1.571-4.319l-0.768-0.301c-0.456,1.465-0.984,2.881-1.608,4.271L25.704,92.044z M39.276,92.152V86.74
			c0.336,0.443,0.757,1.044,1.236,1.787l0.48-0.719c-0.576-0.685-1.152-1.309-1.717-1.86v-0.636h1.549v-0.828h-1.549V82.6
			c0.601-0.12,1.177-0.252,1.717-0.408l-0.301-0.816c-1.151,0.36-2.483,0.612-3.983,0.756l0.168,0.816
			c0.54-0.06,1.067-0.132,1.572-0.204v1.74h-1.753v0.828h1.668c-0.384,1.367-1.031,2.58-1.943,3.647l0.372,0.96
			c0.684-0.947,1.235-2.004,1.656-3.18v5.412H39.276z M46.632,85.107V81.64h-4.98v3.467H46.632z M45.792,84.328h-3.288v-1.92h3.288
			V84.328z M47.436,91.768v-0.815h-2.903v-1.62h2.243v-0.78h-2.243v-1.536h2.615v-0.791h-5.964v0.791h2.46v1.536H41.46v0.78h2.184
			v1.62h-2.939v0.815H47.436z M51,85.168c0.204,0,0.384-0.072,0.527-0.216c0.145-0.144,0.217-0.312,0.217-0.517
			c0-0.216-0.072-0.384-0.217-0.516c-0.144-0.156-0.323-0.228-0.527-0.228c-0.216,0-0.384,0.072-0.528,0.228
			c-0.144,0.132-0.204,0.3-0.204,0.516c0,0.205,0.061,0.373,0.204,0.517C50.616,85.096,50.784,85.168,51,85.168z M51,89.561
			c0.204,0,0.384-0.072,0.527-0.217c0.145-0.144,0.217-0.312,0.217-0.516c0-0.217-0.072-0.385-0.217-0.516
			c-0.144-0.156-0.323-0.229-0.527-0.229c-0.216,0-0.384,0.072-0.528,0.229c-0.144,0.131-0.204,0.299-0.204,0.516
			c0,0.204,0.061,0.372,0.204,0.516C50.616,89.488,50.784,89.561,51,89.561z M63.6,91.168c1.021,0,1.788-0.456,2.316-1.355
			c0.456-0.769,0.684-1.801,0.684-3.097s-0.228-2.327-0.684-3.096c-0.528-0.912-1.296-1.356-2.316-1.356
			c-1.032,0-1.8,0.444-2.315,1.356c-0.456,0.769-0.685,1.8-0.685,3.096s0.229,2.328,0.685,3.097
			C61.8,90.712,62.568,91.168,63.6,91.168z M63.6,90.328c-0.768,0-1.32-0.42-1.656-1.236c-0.239-0.588-0.359-1.38-0.359-2.376
			c0-1.008,0.12-1.8,0.359-2.376c0.336-0.828,0.889-1.236,1.656-1.236c0.769,0,1.32,0.408,1.656,1.236
			c0.24,0.576,0.372,1.368,0.372,2.376c0,0.996-0.132,1.788-0.372,2.376C64.92,89.908,64.368,90.328,63.6,90.328z M70.728,91v-8.568
			H69.96c-0.288,0.324-0.624,0.612-1.032,0.876c-0.408,0.24-0.816,0.408-1.2,0.516v0.984c0.805-0.24,1.477-0.625,2.017-1.177V91
			H70.728z M73.596,91.048c0.192,0,0.372-0.071,0.516-0.216c0.145-0.145,0.217-0.313,0.217-0.516c0-0.217-0.072-0.385-0.217-0.528
			c-0.144-0.144-0.323-0.216-0.516-0.216c-0.216,0-0.384,0.072-0.516,0.216c-0.145,0.144-0.217,0.312-0.217,0.528
			c0,0.203,0.072,0.371,0.217,0.516C73.212,90.977,73.38,91.048,73.596,91.048z M86.736,89.932v-0.768h-1.104V83.62h-2.4
			c0.036-0.252,0.072-0.516,0.12-0.78h2.964v-0.756h-2.868c0.024-0.264,0.061-0.528,0.085-0.816l-0.841-0.12l-0.084,0.936l0,0H79.56
			v0.756h2.964c-0.036,0.252-0.071,0.516-0.12,0.78h-2.147v5.544H79.14v0.768H86.736z M75.9,90.1
			c1.164-0.275,2.256-0.611,3.265-1.02v-0.852c-0.396,0.168-0.805,0.323-1.212,0.467v-3.743h1.235v-0.816h-1.235v-2.892h-0.828
			v2.892H75.78v0.816h1.345v3.996c-0.48,0.12-0.96,0.228-1.44,0.323L75.9,90.1z M84.816,85.061h-3.744v-0.756h3.744V85.061z
			 M84.816,86.404h-3.744v-0.732h3.744V86.404z M84.816,87.76h-3.744v-0.732h3.744V87.76z M84.816,89.164h-3.744v-0.78h3.744V89.164
			z M79.608,92.248c1.032-0.468,1.896-1.02,2.593-1.645l-0.576-0.516c-0.685,0.576-1.524,1.08-2.532,1.512L79.608,92.248z
			 M86.064,92.248l0.528-0.6c-0.72-0.601-1.488-1.116-2.316-1.549l-0.54,0.492C84.564,91.061,85.344,91.611,86.064,92.248z
			 M98.652,85.72V85h-3.275v-0.816h2.544v-0.696h-2.544v-0.804h2.976v-0.708h-2.976v-0.78h-0.828v0.78h-2.904v0.708h2.904v0.804
			h-2.424v0.696h2.424V85h-3.24v0.72H98.652z M90.576,83.752l0.588-0.6c-0.553-0.612-1.225-1.224-2.028-1.824l-0.612,0.588
			C89.388,82.564,90.072,83.176,90.576,83.752z M89.46,91.78c0.744-0.54,1.464-1.164,2.136-1.86l-0.228-0.912
			c-0.408,0.42-0.78,0.792-1.141,1.128v-5.268h-2.544v0.827H89.4v4.765c0,0.204-0.096,0.384-0.275,0.552L89.46,91.78z M93.048,92.2
			v-1.908h3.876v0.685c0,0.275-0.156,0.42-0.444,0.42l-0.96-0.037l0.204,0.769h1.008c0.672,0,1.021-0.323,1.021-0.972v-4.68H92.22
			V92.2H93.048z M96.924,88.072h-3.876v-0.889h3.876V88.072z M96.924,89.62h-3.876v-0.876h3.876V89.62z M101.688,92.225v-8.341
			c0.324-0.744,0.601-1.548,0.828-2.4l-0.804-0.372c-0.444,1.86-1.152,3.504-2.136,4.945l0.287,0.924
			c0.337-0.457,0.66-0.924,0.961-1.416v6.66H101.688z M103.824,92.212v-2.34h2.231v-0.804h-2.231v-1.561h2.22V86.68h-2.22v-1.488
			h2.46v-3.516h-3.301v10.536H103.824z M110.112,85.191v-3.516h-3.216v0.804h2.376v1.909h-2.399v0.803H110.112z M105.468,84.4
			h-1.644v-1.92h1.644V84.4z M106.26,92.271c0.852-0.396,1.584-0.912,2.184-1.56c0.528,0.612,1.177,1.116,1.969,1.524l0.407-0.732
			c-0.672-0.348-1.283-0.828-1.848-1.439c0.6-0.828,1.021-1.824,1.284-3v-0.756h-3.769v0.803h0.337
			c0.168,1.08,0.527,2.041,1.079,2.893l0.013,0.012c-0.576,0.625-1.284,1.129-2.124,1.524L106.26,92.271z M108.432,89.38
			c-0.432-0.636-0.72-1.392-0.852-2.269h1.896C109.236,87.964,108.888,88.72,108.432,89.38z M117.612,92.236v-2.28h4.896v-0.815
			h-4.896V88h3.757v-4.932h-2.305c0.36-0.492,0.685-1.044,0.973-1.656l-0.841-0.3c-0.3,0.696-0.647,1.356-1.031,1.956h-5.172V88
			h3.756v1.141h-4.896v0.815h4.896v2.28H117.612z M115.524,83.056l0.721-0.36c-0.36-0.552-0.732-1.068-1.128-1.524l-0.732,0.348
			C114.792,81.976,115.164,82.48,115.524,83.056z M116.748,85.145h-2.916v-1.32h2.916V85.145z M120.528,85.145h-2.916v-1.32h2.916
			V85.145z M120.528,87.232h-2.916v-1.344h2.916V87.232z M116.748,87.232h-2.916v-1.344h2.916V87.232z"/>
	</g>
</g>
<text transform="matrix(1 0 0 1 13.1604 101.1406)" font-family="'AdobeSongStd-Light-GBpc-EUC-H'" font-size="12">请假流程：01.填写请假单</text>
<text transform="matrix(1 0 0 1 12.5002 62)" font-family="'AdobeSongStd-Light-GBpc-EUC-H'" font-size="12">报销流程：01.填写报销单</text>
</svg>
